SplineFontDB: 3.0
FontName: KisStM-Italic
FullName: Sorts Mill Kis Italic
FamilyName: Sorts Mill Kis
Weight: Regular
Copyright: Copyright (C) 2010 Barry Schwartz
UComments: "Cut 3200-dpi samples to 640 pixels high. Scale by a factor of 1.1.+AAoACgAA-Cut 6400-dpi samples to 1280 pixels high. Scale by a factor of 1.1." 
Version: 001.000
ItalicAngle: -14
UnderlinePosition: -100
UnderlineWidth: 49
Ascent: 700
Descent: 300
Descent: 300
LayerCount: 3
Layer: 0 0 "Back"  1
Layer: 1 0 "Fore"  0
Layer: 2 0 "backup"  1
NeedsXUIDChange: 1
XUID: [1021 658 797806517 2478896]
FSType: 0
OS2Version: 0
OS2_WeightWidthSlopeOnly: 0
OS2_UseTypoMetrics: 1
CreationTime: 1263111985
ModificationTime: 1267527062
OS2TypoAscent: 0
OS2TypoAOffset: 1
OS2TypoDescent: 0
OS2TypoDOffset: 1
OS2TypoLinegap: 90
OS2WinAscent: 0
OS2WinAOffset: 1
OS2WinDescent: 0
OS2WinDOffset: 1
HheadAscent: 0
HheadAOffset: 1
HheadDescent: 0
HheadDOffset: 1
OS2Vendor: 'PfEd'
Lookup: 3 0 0 "'aalt' Access All Alternates lookup 0"  {"'aalt' Access All Alternates lookup 0 subtable"  } ['aalt' ('DFLT' <'dflt' > ) ]
Lookup: 3 0 0 "'aalt' Access All Alternates in Latin lookup 0"  {"'aalt' Access All Alternates in Latin lookup 0 subtable"  } ['aalt' ('latn' <'TRK ' 'AZE ' 'CRT ' 'dflt' > ) ]
Lookup: 1 0 0 "turkish"  {"turkish subtable"  } ['locl' ('latn' <'TRK ' 'AZE ' 'CRT ' > ) ]
Lookup: 1 0 0 "'ss01' Style Set 1 in Latin lookup 1"  {"'ss01' Style Set 1 in Latin lookup 1 subtable"  } ['ss01' ('latn' <'dflt' > 'DFLT' <'dflt' > ) ]
Lookup: 260 0 0 "spacing anchors"  {"spacing anchors-1"  } []
Lookup: 260 0 0 "accent anchors"  {"accent anchors-1"  } []
Lookup: 258 0 0 "'kern' Horizontal Kerning in Latin lookup 2"  {"'kern' Horizontal Kerning in Latin lookup 2 per glyph data 0"  "'kern' Horizontal Kerning in Latin lookup 2 kerning class 1"  } ['kern' ('latn' <'dflt' > 'DFLT' <'dflt' > ) ]
MarkAttachClasses: 1
DEI: 91125
KernClass2: 51 29 "'kern' Horizontal Kerning in Latin lookup 2 kerning class 1" 

StartChar: a
Encoding: 97 97 0
Width: 376
VWidth: 0
Flags: HW
HStem: -13 63<54.073 107.946> 350 54<173.632 231.562>
VStem: 9 68<51.0185 162.276> 196 69<2.93932 120.453>
LayerCount: 3
Fore
SplineSet
197 350 m 0
 141 350 77 183 77 98 c 0
 77 69 85 50 102 50 c 0
 135 50 200 172 214 200 c 0
 231 235 245 267 245 290 c 0
 245 325 216 350 197 350 c 0
336 83 m 0
 340 83 342 79 342 77 c 0
 342 57 263 -13 217 -13 c 0
 206 -13 196 -9 196 13 c 0
 196 37 224 143 229 170 c 0
 231 182 227 174 224 169 c 0
 202 134 135 -13 52 -13 c 0
 28 -13 9 7 9 54 c 0
 9 197 149 404 220 404 c 0
 265 404 265 315 270 315 c 0
 271 315 273 323 278 340 c 2
 294 394 l 2
 297 403 303 404 313 404 c 2
 336 404 l 2
 346 404 356 403 356 395 c 0
 356 383 315 268 288 172 c 0
 282 150 265 82 265 60 c 0
 265 48 269 44 275 44 c 0
 293 44 328 83 336 83 c 0
EndSplineSet
EndChar

StartChar: M
Encoding: 77 77 1
Width: 890
VWidth: 0
Flags: HW
HStem: 0 21G<32.5 189.5 403 414.5 596.5 858.5> 616 20G<91.5 256 687 836.5>
VStem: 98 32<33.9267 185.182> 686 92<34.1605 354.476>
DStem2: 272 620 225 476 0.332125 -0.943235<45.5382 526.91> 447 123 426 10 0.410666 0.911786<0 474.563>
LayerCount: 3
Fore
SplineSet
916 636 m 1
 917 634 919 630 919 626 c 0
 919 604 863 625 846 599 c 1
 745 104 l 1
 743 75 l 1
 750 3 830 35 830 10 c 0
 830 6 829 2 828 0 c 1
 567 0 l 1
 566 2 564 6 564 10 c 0
 564 28 608 17 635 30 c 1
 649 38 651 49 651 63 c 2
 651 77 l 1
 656 96 l 2
 665 132 749 545 746 545 c 0
 741 545 706 473 660 402 c 2
 406 10 l 2
 398 -2 399 -4 390 -4 c 2
 388 -4 l 2
 378 -4 373 -3 371 12 c 2
 328 445 l 2
 325 471 323 482 319 482 c 0
 314 482 307 464 295 436 c 0
 237 305 150 124 150 66 c 0
 150 52 148 43 148 37 c 0
 148 30 150 27 160 24 c 0
 173 21 191 19 191 10 c 0
 191 6 190 2 189 0 c 1
 33 0 l 1
 32 2 30 6 30 10 c 0
 30 27 72 17 87 39 c 0
 92 47 92 61 98 75 c 0
 263 446 321 561 321 583 c 0
 321 588 319 593 311 603 c 0
 296 621 230 605 230 626 c 0
 230 630 231 634 232 636 c 1
 370 636 l 2
 382 636 390 636 392 620 c 2
 447 123 l 1
 654 451 l 1
 754 627 l 2
 758 634 763 636 771 636 c 2
 916 636 l 1
EndSplineSet
EndChar

StartChar: b
Encoding: 98 98 2
Width: 411
VWidth: 0
Flags: HW
HStem: -13 33<95.5 193.841> 351 53<269.047 362> 644 20G<218 274>
VStem: 13 86<13.5 103.738> 341 65<230.546 344.977>
LayerCount: 3
Fore
SplineSet
114 -13 m 0
 77 -13 13 -4 13 31 c 0
 13 47 179 557 179 586 c 0
 179 609 149 614 133 618 c 0
 125 620 123 625 123 630 c 0
 123 653 164 631 272 664 c 1
 276 663 279 658 279 654 c 1
 159 292 l 2
 153 274 149 260 149 257 c 0
 149 256 149 256 150 256 c 0
 152 256 168 279 180 295 c 0
 237 370 287 404 343 404 c 0
 381 404 406 379 406 326 c 0
 406 228 316 60 195 4 c 0
 169 -8 142 -13 114 -13 c 0
155 20 m 0
 235 20 341 213 341 299 c 0
 341 331 324 351 298 351 c 0
 259 351 207 299 165 236 c 0
 126 177 99 99 99 65 c 0
 99 47 124 20 155 20 c 0
EndSplineSet
EndChar

StartChar: c
Encoding: 99 99 3
Width: 303
VWidth: 0
Flags: HW
HStem: -13 44<66 160.325> 376 28<188.379 254>
VStem: 13 76<34.7452 189.33>
LayerCount: 3
Fore
SplineSet
124 31 m 0
 184 31 211 128 233 128 c 0
 237 128 241 123 241 120 c 0
 241 104 186 -13 95 -13 c 0
 37 -13 13 30 13 88 c 0
 13 165 98 404 232 404 c 0
 276 404 307 382 307 350 c 0
 307 328 291 307 265 307 c 0
 223 307 233 376 208 376 c 0
 200 376 189 368 174 344 c 0
 105 231 89 141 89 90 c 0
 89 65 98 31 124 31 c 0
EndSplineSet
EndChar

StartChar: d
Encoding: 100 100 4
Width: 419
VWidth: 0
Flags: HW
HStem: -13 46<69.6728 148.227> 365 39<185.878 283.944> 644 20G<403 463>
VStem: 17 68<37.7702 188.667> 237 70<3.56555 118.281>
LayerCount: 3
Fore
SplineSet
274 173 m 1
 265 173 190 -13 89 -13 c 0
 47 -13 17 24 17 86 c 0
 17 134 35 196 78 270 c 0
 121 343 180 404 255 404 c 0
 295 404 314 389 321 384 c 1
 343 459 369 561 369 586 c 0
 369 609 336 614 320 618 c 0
 312 620 310 625 310 630 c 0
 310 654 345 629 461 664 c 1
 465 663 468 658 468 654 c 1
 449 594 307 111 307 56 c 0
 307 45 310 39 315 39 c 0
 326 39 349 65 371 94 c 0
 383 110 388 115 394 115 c 0
 396 115 401 113 401 107 c 0
 401 103 399 98 394 90 c 0
 344 17 299 -13 267 -13 c 0
 247 -13 237 -2 237 17 c 0
 237 54 274 166 274 173 c 1
302 303 m 0
 302 353 253 365 228 365 c 0
 116 365 85 138 85 97 c 0
 85 50 103 33 124 33 c 0
 175 33 302 261 302 303 c 0
EndSplineSet
EndChar

StartChar: e
Encoding: 101 101 5
Width: 323
VWidth: 0
Flags: HW
HStem: -11 43<65 156.197> 375 27<207.406 282.5>
VStem: 15 73<34.7589 185.708> 251 66<293.13 374.876>
LayerCount: 3
Fore
SplineSet
232 375 m 0
 205.400912041 375 151.978099837 310.2749329 114 209 c 1
 226.297556287 254.941429216 251 321.8 251 350 c 0
 251 366 244 375 232 375 c 0
15 79 m 0
 15 194 121 402 259 402 c 0
 306 402 317 368 317 347 c 0
 317 273.030444754 204.236858745 222.532480823 106 187 c 1
 104 182 88 129 88 87 c 0
 88 51 100 32 120 32 c 0
 144 32 179 60 212 107 c 0
 218 116 224 125 232 125 c 0
 236 125 240 122 240 116 c 0
 240 105 182 -11 90 -11 c 0
 40 -11 15 28 15 79 c 0
EndSplineSet
EndChar

StartChar: f
Encoding: 102 102 6
Width: 256
VWidth: 0
Flags: HW
HStem: -223 36<-110 -23.5752> 351 26<47.7728 131 202 281.227> 606 58<262.5 345.5>
DStem2: -12.1143 -223 55.2715 -223 0.241922 0.970296<365.206 591.572 633.976 837.486>
LayerCount: 3
Back
SplineSet
-46 -246 m 4
 6 -246 122 317 131 351 c 5
 47 351 l 5
 45 358 47 370 50 377 c 5
 136 377 l 5
 186 580 229 618 272 643 c 4
 283 650 306 664 331 664 c 4
 359 664 379 647 379 613 c 4
 379 586 365 561 336 561 c 4
 294 561 284 606 266 606 c 4
 246 606 252 575 233 500 c 6
 202 377 l 5
 282 377 l 5
 284 371 282 357 279 351 c 5
 197 351 l 5
 156 181 l 6
 126 57 94 -96 39 -189 c 4
 19 -223 -34 -282 -105 -282 c 4
 -145 -282 -163 -258 -163 -234 c 4
 -163 -212 -148 -191 -121 -191 c 4
 -78 -191 -71 -246 -46 -246 c 4
EndSplineSet
Fore
SplineSet
337 578 m 0
 297 578 284 606 266 606 c 0
 259 606 252 575 233 500 c 2
 202 377 l 1
 282 377 l 1
 284 371 282 357 279 351 c 1
 197 351 l 1
 156 181 l 2
 126 57 109 -37 54 -130 c 0
 34 -164 -19 -223 -90 -223 c 0
 -130 -223 -148 -199 -148 -175 c 0
 -148 -153 -133 -132 -106 -132 c 0
 -63 -132 -56 -187 -31 -187 c 0
 21 -187 122 317 131 351 c 1
 47 351 l 1
 45 358 47 370 50 377 c 1
 136 377 l 1
 172 522 204 583 235 615 c 0
 248 628 293 664 331 664 c 0
 363 664 379 642 379 620 c 0
 379 599 365 578 337 578 c 0
EndSplineSet
AlternateSubs2: "'aalt' Access All Alternates lookup 0 subtable" f.ld
AlternateSubs2: "'aalt' Access All Alternates in Latin lookup 0 subtable" f.ld
Substitution2: "'ss01' Style Set 1 in Latin lookup 1 subtable" f.ld
EndChar

StartChar: g
Encoding: 103 103 7
Width: 403
VWidth: 0
Flags: HMW
HStem: -224 24<75.779 227.31> 92 19<117.071 166.904> 382 24<172.411 233.495>
VStem: -43 52<-162.034 -69.4221> 36 63<136.387 291.704> 50 47<12.5 78.5323> 257 59<202.209 339.073> 280 56<-160.105 -87.0916> 336 66<300.276 341.999>
LayerCount: 3
Fore
SplineSet
204 382 m 0xfa
 141 382 99 257 99 183 c 0
 99 142 111 111 141 111 c 0
 188 111 257 196 257 302 c 0
 257 353 233 382 204 382 c 0xfa
9 -114 m 0
 9 -165 62 -200 163 -200 c 0
 205 -200 239 -187 258 -170 c 0
 272 -158 280 -144 280 -128 c 0xf1
 280 -71 181 -44 113 -22 c 1
 78 -29 9 -59 9 -114 c 0
300 345 m 1
 305 348 322 374 358 374 c 0
 389 374 402 354 402 334 c 0
 402 315 390 297 372 297 c 0
 340 297 344 332 336 339 c 0
 334 341 332 342 328 342 c 0
 317 342 309 326 309 326 c 1
 312 312 316 310 316 271 c 0xfa80
 316 173 244 92 144 92 c 0
 124 92 119 95 116 95 c 0
 105 95 97 85 97 74 c 0
 97 45 114 42 217 9 c 0
 252 -3 336 -35 336 -103 c 0
 336 -163 266 -224 147 -224 c 0
 67 -224 -43 -197 -43 -117 c 0
 -43 -59 44 -22 95 -18 c 1
 95 -18 50 -2 50 27 c 0xf5
 50 69 94 100 94 100 c 1
 51 129 36 172 36 216 c 0xf8
 36 308 94 406 194 406 c 0
 258 406 290 365 300 345 c 1
EndSplineSet
AlternateSubs2: "'aalt' Access All Alternates lookup 0 subtable" g.ld
AlternateSubs2: "'aalt' Access All Alternates in Latin lookup 0 subtable" g.ld
Substitution2: "'ss01' Style Set 1 in Latin lookup 1 subtable" g.ld
EndChar

StartChar: h
Encoding: 104 104 8
Width: 443
VWidth: 0
Flags: HW
HStem: -5 43<312.003 335.481> 372 32<272.444 337.799> 644 20G<202.5 259>
VStem: 19 74<1.19188 86.1082> 234 78<9.3457 105.045> 342 69<266.322 369.531>
LayerCount: 3
Fore
SplineSet
234 20 m 0
 234 93 342 282 342 342 c 0
 342 352 334 372 307 372 c 0
 273 372 252 335 218 278 c 2
 160 183 l 1
 123 120 110 82 93 27 c 0
 89 15 87 5 80 1 c 0
 78 0 76 0 74 -0 c 2
 31 0 l 2
 22 0 19 1 19 6 c 0
 19 20 165 536 165 586 c 0
 165 609 135 614 119 618 c 0
 111 620 109 625 109 630 c 0
 109 653 148 631 257 664 c 1
 261 663 264 658 264 654 c 1
 131 194 l 2
 130 192 132 191 133 191 c 0
 134 191 156 231 194 290 c 0
 254 381 264 404 336 404 c 0
 377 404 411 394 411 356 c 0
 411 271 312 88 312 50 c 0
 312 41 316 38 324 38 c 0
 331 38 339 44 348 51 c 0
 382 78 410 127 421 127 c 0
 425 127 427 124 427 120 c 0
 427 99 361 -5 258 -5 c 2
 257 -5 l 2
 241 -5 234 4 234 20 c 0
EndSplineSet
EndChar

StartChar: i
Encoding: 105 105 9
Width: 231
VWidth: 0
Flags: HW
HStem: -13 66<43.5444 121.5> 346 58<111.843 185.761> 546 87<138.44 213.56>
VStem: 31 80<6.25377 111.464> 120 80<286.357 386.788> 132 88<552.167 626.56>
LayerCount: 3
Back
SplineSet
111 65 m 4xf8
 111 57 113 53 118 53 c 4
 125 53 137 61 151 75 c 4
 175 97 187 118 196 118 c 4
 198 118 204 116 204 110 c 4
 204 75 103 -13 55 -13 c 4
 40 -13 31 -5 31 16 c 4
 31 89 120 278 120 335 c 4
 120 343 119 346 113 346 c 4
 97 346 71 318 58 302 c 4
 49 291 43 282 38 282 c 4
 35 282 30 284 30 292 c 4
 30 322 115 404 172 404 c 4
 194 404 200 390 200 376 c 4
 200 320 111 103 111 65 c 4xf8
132 589 m 4xf4
 132 613 152 633 176 633 c 4
 200 633 220 613 220 589 c 4
 220 565 200 546 176 546 c 4
 152 546 132 565 132 589 c 4xf4
EndSplineSet
Fore
SplineSet
111 65 m 0xf8
 111 57 113 53 118 53 c 0
 125 53 137 61 151 75 c 0
 175 97 187 118 196 118 c 0
 198 118 204 116 204 110 c 0
 204 75 103 -13 55 -13 c 0
 40 -13 31 -5 31 16 c 0
 31 90 121 280 121 338 c 0
 121 346 117 348 114 348 c 0
 97 348 71 319 59 304 c 0
 50 293 44 284 39 284 c 0
 36 284 31 286 31 294 c 0
 31 324 116 406 173 406 c 0
 195 406 201 392 201 378 c 0
 201 322 111 103 111 65 c 0xf8
132 589 m 0xf4
 132 613 152 633 176 633 c 0
 200 633 220 613 220 589 c 0
 220 565 200 546 176 546 c 0
 152 546 132 565 132 589 c 0xf4
EndSplineSet
AlternateSubs2: "'aalt' Access All Alternates in Latin lookup 0 subtable" i.TRK
Substitution2: "turkish subtable" i.TRK
EndChar

StartChar: j
Encoding: 106 106 10
Width: 267
VWidth: 0
Flags: HW
HStem: -223 30<-86.5 2.24971> 357 49<149.861 232.426> 546 87<168.44 243.56>
VStem: 168 78<290.105 392.112 550.197 628.61>
LayerCount: 3
Fore
SplineSet
162 589 m 0
 162 613 182 633 206 633 c 0
 230 633 250 613 250 589 c 0
 250 565 230 546 206 546 c 0
 182 546 162 565 162 589 c 0
-97 -126 m 0
 -44 -126 -58 -195 -23 -195 c 0
 3 -195 24 -155 45 -83 c 0
 87 65 168 337 168 344 c 0
 168 353 164 357 157 357 c 0
 144 357 104 332 64 281 c 0
 53 267 45 263 41 263 c 0
 37 263 36 267 36 271 c 0
 36 313 152 406 219 406 c 0
 238 406 246 395 246 383 c 0
 246 339 191 196 146 29 c 0
 117 -76 106 -112 86 -140 c 0
 69 -164 15 -224 -59 -224 c 0
 -114 -224 -140 -193 -140 -166 c 0
 -140 -142 -120 -126 -97 -126 c 0
EndSplineSet
AlternateSubs2: "'aalt' Access All Alternates lookup 0 subtable" j.ld
AlternateSubs2: "'aalt' Access All Alternates in Latin lookup 0 subtable" j.ld
Substitution2: "'ss01' Style Set 1 in Latin lookup 1 subtable" j.ld
EndChar

StartChar: k
Encoding: 107 107 11
Width: 377
VWidth: 0
Flags: HW
HStem: 0 20<281.448 347.717> 368 40<250.304 338> 644 20G<197 253>
VStem: 8 71<0 60.0556> 304 65<279.636 366.191>
LayerCount: 3
Fore
SplineSet
346 0 m 1
 229 0 l 2
 209 0 212 3 134 173 c 1
 115 168 l 1
 79 34 l 2
 73 12 71 0 61 0 c 2
 20 0 l 2
 13 0 8 0 8 8 c 0
 8 20 158 526 158 586 c 0
 158 609 128 614 112 618 c 0
 104 620 102 625 102 630 c 0
 102 653 143 631 251 664 c 1
 255 663 258 658 258 654 c 1
 164 339 l 1
 226 382 286 408 323 408 c 0
 353 408 369 390 369 350 c 0
 369 259 303 237 193 192 c 1
 267 38 260 24 323 20 c 0
 337 19 348 17 348 8 c 0
 348 5 347 2 346 0 c 1
120 192 m 1
 215 221 304 247 304 329 c 0
 304 357 293 368 271 368 c 0
 232 368 154 308 154 308 c 1
 120 192 l 1
EndSplineSet
EndChar

StartChar: l
Encoding: 108 108 12
Width: 231
VWidth: 0
Flags: HW
HStem: -16 73<33.5029 125> 644 20G<202 258>
VStem: 21 78<4.12744 88.606>
LayerCount: 3
Fore
SplineSet
199 131 m 0
 199 90 103 -16 43 -16 c 0
 28 -16 21 -7 21 15 c 0
 21 62 164 522 164 586 c 0
 164 609 134 614 118 618 c 0
 110 620 108 625 108 630 c 0
 108 653 148 631 256 664 c 1
 260 663 263 658 263 654 c 1
 202 452 99 92 99 69 c 0
 99 62 101 57 106 57 c 0
 144 57 182 136 193 136 c 0
 197 136 199 134 199 131 c 0
EndSplineSet
EndChar

StartChar: m
Encoding: 109 109 13
Width: 737
VWidth: 0
Flags: HW
HStem: -5 37<548.185 615.169> 352 52<597.02 659.499> 360 44<358.147 429.998> 373 26<115.97 204.498>
VStem: 18 23<232.02 295.578> 264 79<0.457081 64.3438> 398 74<293.005 386.288> 510 76<8.27258 89.185> 626 77<278.584 383.96>
LayerCount: 3
Fore
SplineSet
586 41 m 0xaf80
 586 34 589 32 595 32 c 0
 626 32 682 103 687 103 c 0
 690 103 695 102 695 93 c 0
 695 84 648 -5 532 -5 c 0
 516 -5 510 4 510 19 c 0
 510 80 626 264 626 340 c 0
 626 345 623 352 613 352 c 0xcf80
 575 352 396 148 343 31 c 0
 329 2 331 0 312 -0 c 2
 276 0 l 2
 268 0 264 2 264 9 c 0
 264 32 398 296 398 347 c 0
 398 355 392 360 381 360 c 0xaf80
 337 360 187 202 127 42 c 0
 112 2 116 0 96 0 c 2
 65 0 l 2
 46 0 43 0 43 9 c 0
 43 16 48 26 56 47 c 2
 163 321 l 2
 171 342 175 354 175 362 c 0
 175 371 170 373 162 373 c 0
 110 373 41 318 41 251 c 0
 41 239 39 232 29 232 c 0
 21 232 18 246 18 262 c 0
 18 278 22 298 28 313 c 0
 48 367 105 399 214 399 c 0x9f80
 234 399 251 398 251 385 c 0
 251 371 182 210 182 198 c 0
 182 197 183 197 183 197 c 1
 186 197 194 211 208 233 c 0
 303 380 392 404 438 404 c 0
 462 404 472 390 472 370 c 0
 472 338 449 288 428 244 c 0
 422 232 391 163 391 155 c 0
 391 154 392 154 392 154 c 1
 395 154 406 173 414 182 c 0
 494 287 568 404 670 404 c 0
 693 404 703 389 703 366 c 0
 703 282 586 85 586 41 c 0xaf80
EndSplineSet
EndChar

StartChar: n
Encoding: 110 110 14
Width: 486
VWidth: 0
Flags: HW
HStem: -5 37<304.608 369.187> 369 30<119.637 200.923 309.571 410.205>
VStem: 265 79<4.04248 83.5395> 387 68<276.237 369.453>
LayerCount: 3
Fore
SplineSet
455 352 m 0
 455 286.125 344 94.3125 344 42 c 0
 344 35 347 32 356 32 c 0
 379 32 434 101 438 105 c 0
 444 111 448 117 453 117 c 0
 456 117 460 116 460 111 c 0
 460 99 409 -5 287 -5 c 0
 277 -5 265 -4 265 10 c 0
 265 60 387 299 387 345 c 0
 387 364 360 374 345 374 c 0
 315 374 295 336 275 304 c 0
 182 152 182 160 134 52 c 0
 112 2 115 0 102 -0 c 2
 54 0 l 2
 50 0 48 2 48 7 c 0
 48 18 60 45 80 98 c 0
 115 191 158 311 165 354 c 0
 167 365 161 369 150 369 c 0
 131 369 97 356 76 327 c 0
 53 297 53 259 36 259 c 0
 31 259 29 263 29 272 c 0
 29 323 64 399 222 399 c 0
 234 399 237 394 237 388 c 0
 237 353 172 205 172 194 c 0
 172 193 172 192 173 192 c 0
 180 192 259 336 287 368 c 0
 303 386 327 404 384 404 c 0
 436 404 455 386 455 352 c 0
EndSplineSet
EndChar

StartChar: o
Encoding: 111 111 15
Width: 364
VWidth: 0
Flags: HW
HStem: -15 29<84.3113 146.164> 381 27<222.212 283.959>
VStem: 18 56<25.9695 153.894> 296 56<237.812 361.562>
LayerCount: 3
Fore
SplineSet
296 333 m 0
 296 375 266 381 253 381 c 0
 182 381 74 140 74 64 c 0
 74 29 90 14 116 14 c 0
 182 14 296 237 296 333 c 0
248 408 m 0
 316 408 352 345 352 280 c 0
 352 136 221 -15 116 -15 c 0
 51 -15 18 42 18 108 c 0
 18 210 113 408 248 408 c 0
EndSplineSet
EndChar

StartChar: p
Encoding: 112 112 16
Width: 446
VWidth: 0
Flags: HW
HStem: -270 21G<-74.5 162.5> -8 25<179.648 250.107> 367 37<243.349 366>
VStem: 189 60<440.448 478> 359 69<173.707 343.208>
DStem2: -6.45834 -270 61.582 -270 0.241922 0.970296<67.4564 311.968 428.831 620.026 622.138 672.087 686.929 776.218>
LayerCount: 3
Fore
SplineSet
154 329 m 1
 83 301 25 235 15 235 c 0
 12 235 8 238 8 243 c 0
 8 269 111 334 160 357 c 1
 189 467 l 2
 192 477 196 478 204 478 c 2
 230 478 l 2
 250 478 251 474 251 468 c 0
 251 464 228 381 228 381 c 1
 276 397 310 404 341 404 c 0
 391 404 428 378 428 292 c 0
 428 142 321 -8 215 -8 c 0
 165 -8 136 16 136 16 c 1
 108 -89 l 2
 99 -121 93 -148 93 -163 c 0
 93 -205 180 -180 180 -203 c 0
 180 -206 179 -209 178 -211 c 1
 -58 -211 l 1
 -59 -209 -60 -206 -60 -203 c 0
 -60 -187 -17 -199 9 -180 c 0
 20 -172 23 -155 25 -149 c 2
 154 329 l 1
216 17 m 0
 278 17 359 160 359 269 c 0
 359 324 337 367 281 367 c 0
 248 367 221 354 221 354 c 1
 197 263 160 136 160 82 c 0
 160 58 170 17 216 17 c 0
EndSplineSet
AlternateSubs2: "'aalt' Access All Alternates lookup 0 subtable" p.ld
AlternateSubs2: "'aalt' Access All Alternates in Latin lookup 0 subtable" p.ld
Substitution2: "'ss01' Style Set 1 in Latin lookup 1 subtable" p.ld
EndChar

StartChar: q
Encoding: 113 113 17
Width: 428
VWidth: 0
Flags: HW
HStem: -270 21G<107.5 344.5> -13 42<65.5 163.325> 364 40<228.838 300.845>
VStem: 13 71<36.9459 149.405> 322 98<242.5 400>
DStem2: 191 -208 274 -148 0.267727 0.963495<5.40355 349.235 545.886 641.197>
LayerCount: 3
Fore
SplineSet
92 -13 m 0
 39 -13 13 26 13 72 c 0
 13 133 68 216 123 285 c 0
 176 351 235 404 285 404 c 0
 316 404 327 369 337 318 c 1
 358 393 l 2
 361 403 366 404 374 404 c 2
 399 404 l 2
 413 404 420 404 420 396 c 0
 420 393 418 383 417 380 c 2
 290 -89 l 2
 281 -121 275 -148 275 -163 c 0
 275 -205 362 -180 362 -203 c 0
 362 -206 361 -209 360 -211 c 1
 124 -211 l 1
 123 -209 122 -206 122 -203 c 0
 122 -187 165 -199 191 -180 c 0
 202 -172 205 -155 207 -149 c 2
 277 110 l 2
 280 121 283 127 283 129 c 1
 282 130 l 1
 278 130 241 69 205 38 c 0
 163 2 134 -13 92 -13 c 0
259 364 m 0
 182 364 84 153 84 87 c 0
 84 61 94 29 133 29 c 0
 197 29 322 197 322 288 c 0
 322 322 299 364 259 364 c 0
EndSplineSet
AlternateSubs2: "'aalt' Access All Alternates lookup 0 subtable" q.ld
AlternateSubs2: "'aalt' Access All Alternates in Latin lookup 0 subtable" q.ld
Substitution2: "'ss01' Style Set 1 in Latin lookup 1 subtable" q.ld
EndChar

StartChar: r
Encoding: 114 114 18
Width: 318
VWidth: 0
Flags: HW
HStem: -0 21G<55 105> 329 70<252.716 318.144> 362 37<108.867 190.998>
VStem: 48 71<0.000743866 91.9153> 133 68<290.931 389.121>
LayerCount: 3
Fore
SplineSet
48 6 m 0xd8
 48 18 133 321 133 352 c 0
 133 355 131 362 123 362 c 0
 81 362 56 311 51 297 c 0
 42 272 42 248 31 248 c 0
 26 248 18 255 18 275 c 0
 18 281 19 288 21 297 c 0
 38 375 128 399 181 399 c 0xb8
 196 399 201 393 201 381 c 0
 201 343 161 243 161 223 c 0
 161 221 162 220 163 220 c 0
 177 220 228 404 300 404 c 0
 329 404 342 386 342 367 c 0
 342 345 325 322 298 322 c 0
 286 322 278 329 268 329 c 0
 257 329 238 326 197 232 c 0
 143 110 131 66 119 23 c 0
 113 0 114 0 96 0 c 2
 59 -0 l 2
 51 0 48 1 48 6 c 0xd8
EndSplineSet
EndChar

StartChar: s
Encoding: 115 115 19
Width: 291
VWidth: 0
Flags: HW
HStem: -13 34<49.5 145.932> 375 29<143.196 225.5>
VStem: 76 57<272.117 358.412> 156 59<41.8402 140.542>
LayerCount: 3
Fore
SplineSet
215 105 m 0
 215 42 158 -13 76 -13 c 0
 23 -13 1 13 1 37 c 0
 1 57 17 76 43 76 c 0
 81 76 83 21 114 21 c 0
 138 21 156 39 156 68 c 0
 156 128 76 226 76 295 c 0
 76 371 147 404 204 404 c 0
 247 404 283 385 283 349 c 0
 283 335 268 320 250 320 c 0
 238 320 225 326 209 346 c 0
 192 368 178 375 167 375 c 0
 146 375 133 348 133 335 c 0
 133 292 215 174 215 105 c 0
EndSplineSet
EndChar

StartChar: t
Encoding: 116 116 20
Width: 268
VWidth: 0
Flags: HW
HStem: -13 46<42.5 130.544> 354 40<44.995 113 189 256.151>
VStem: 18 74<3.01323 108.758> 146 70<447.182 494.709>
DStem2: 12.3784 -13 85.4966 -13 0.241922 0.970296<159.622 380.441 437.639 527.542>
LayerCount: 3
Fore
SplineSet
104 33 m 0
 137 33 199 102 214 102 c 0
 218 102 220 99 220 95 c 0
 220 89 218 81 209 70 c 0
 160 12 91 -13 58 -13 c 0
 27 -13 18 0 18 17 c 0
 18 35 38 105 60 178 c 2
 113 354 l 1
 38 354 l 1
 38 369 43 384 48 394 c 1
 124 394 l 1
 146 472 l 2
 153 494 155 495 180 495 c 2
 196 495 l 2
 212 495 216 492 216 483 c 0
 216 472 201 437 189 394 c 1
 263 394 l 1
 263 382 259 365 253 354 c 1
 177 354 l 1
 177 354 92 67 92 46 c 0
 92 36 98 33 104 33 c 0
EndSplineSet
EndChar

StartChar: u
Encoding: 117 117 21
Width: 454
VWidth: 0
Flags: HW
HStem: -13 39<74.591 150.123 290.018 346.422> 369 30<96.7597 197>
VStem: 17 23<254.976 309.122> 32 71<26.2255 133.103> 145 79<317.881 390.311> 252 76<-0.476885 84.9964>
LayerCount: 3
Fore
SplineSet
224 382 m 0xec
 224 338 103 125 103 50 c 0
 103 35 108 26 120 26 c 0
 135 26 159 38 184 62 c 0
 302 176 364 376 373 390 c 0
 378 398 380 399 415 399 c 0
 439 399 441 397 441 392 c 0
 441 371 328 87 328 45 c 0
 328 36 332 32 337 32 c 0
 366 32 429 111 436 111 c 0
 442 111 443 105 443 103 c 0
 443 87 374 -13 271 -13 c 0
 257 -13 252 -5 252 8 c 0
 252 40 285 110 300 156 c 1
 300 156 310 181 307 181 c 0
 300 181 202 -13 86 -13 c 0
 46 -13 32 8 32 41 c 0xdc
 32 132 145 306 145 361 c 0
 145 366 141 369 134 369 c 0
 115 369 63 352 40 283 c 0
 35 268 36 254 24 254 c 0
 19 254 17 263 17 272 c 0
 17 320 50 399 182 399 c 0
 212 399 224 399 224 382 c 0xec
EndSplineSet
EndChar

StartChar: v
Encoding: 118 118 22
Width: 485
VWidth: 0
Flags: HW
HStem: -13 74<215.339 297.317> 337 62<64.549 224.996> 386 20G<418.5 437.5>
VStem: 10 43<214.904 309.678> 128 63<85.4198 185.041> 225 47<328.581 390.5> 439 38<242.554 369.5>
LayerCount: 3
Fore
SplineSet
477 346 m 0xbe
 477 216 362 -13 225 -13 c 0
 172 -13 128 24 128 89 c 0
 128 196 225 311 225 331 c 0
 225 337 220 337 203 337 c 2
 110 337 l 2
 72 337 53 327 53 289 c 0
 53 261 72 254 72 231 c 0
 72 211 55 200 39 200 c 0
 24 200 10 209 10 229 c 0
 10 283 41 325 67 384 c 0
 73 396 82 399 97 399 c 2
 260 399 l 2xde
 269 399 272 394 272 387 c 0
 272 351 191 230 191 157 c 0
 191 110 211 61 267 61 c 0
 372 61 439 249 439 293 c 0
 439 326 387 315 387 366 c 0
 387 388 408 406 429 406 c 0
 446 406 477 393 477 346 c 0xbe
EndSplineSet
EndChar

StartChar: w
Encoding: 119 119 23
Width: 694
VWidth: 0
Flags: HW
HStem: -13 68<233.89 311.04 455.169 535.47> 337 62<57.0018 244.993> 386 20G<608 646>
VStem: 6 46<217.933 315.268> 143 65<81.6881 175.882> 409 80<279.95 394.189> 426 13<220 242> 643 32<191.138 306.739>
LayerCount: 3
Fore
SplineSet
282 55 m 0xdb
 377 55 426 220 426 275 c 0xdb
 426 316 409 327 409 358 c 0
 409 379 424 399 452 399 c 0
 475 399 489 386 489 355 c 0xdd
 489 313 439 242 439 141 c 0
 439 81 464 55 499 55 c 0
 591 55 643 207 643 270 c 0
 643 327 577 316 577 365 c 0
 577 387 596 406 620 406 c 0xbb
 672 406 675 345 675 287 c 0
 675 153 578 -13 464 -13 c 0
 401 -13 385 21 376 73 c 1
 340 22 292 -13 246 -13 c 0
 178 -13 143 24 143 84 c 0
 143 179 245 319 245 331 c 0
 245 337 236 337 215 337 c 2
 90 337 l 2
 64 337 52 321 52 292 c 0
 52 260 68 258 68 231 c 0
 68 214 56 202 37 202 c 0
 21 202 6 215 6 242 c 0
 6 275 37 334 57 379 c 0
 63 391 66 399 81 399 c 2
 277 399 l 2
 299 399 294 389 292 382 c 0
 282 352 208 198 208 144 c 0
 208 102 236 55 282 55 c 0xdb
EndSplineSet
EndChar

StartChar: x
Encoding: 120 120 24
Width: 434
VWidth: 0
Flags: HW
HStem: -10.025 61.132<238.734 321.543> -10.025 51.272<61.5645 116.462> 342.963 60.146<134.58 204.717 334.516 400.438>
VStem: 15.898 45.356<41.9175 107.211> 196.336 60.146<149.372 239.691> 379.732 43.384<282.432 347.886>
LayerCount: 3
Fore
SplineSet
194 406 m 0x7e
 244 406 241 355 250 240 c 1
 297 341 334 406 389 406 c 0
 418 406 422 382 422 360 c 0
 422 325 410 278 392 278 c 0
 382 278 380 285 380 295 c 0
 380 306 383 318 383 329 c 0
 383 341 379 351 363 351 c 0
 319 351 256 200 256 200 c 1
 259 165 267 48 300 48 c 0
 341 48 348 124 368 124 c 0
 378 124 382 118 382 109 c 0
 382 70 318 -13 267 -13 c 0xbe
 213 -13 214 71 204 151 c 1
 169 85 128 -13 72 -13 c 0x7e
 39 -13 18 11 18 48 c 0xbe
 18 99 51 116 59 116 c 0
 68 116 71 113 71 108 c 0
 71 99 61 87 61 63 c 0
 61 45 71 38 83 38 c 0
 122 38 189 173 198 187 c 1
 183 310 181 348 156 348 c 0
 141 348 126 329 120 317 c 0
 109 294 106 266 91 266 c 0
 84 266 78 271 78 282 c 0
 79 336 130 406 194 406 c 0x7e
EndSplineSet
EndChar

StartChar: y
Encoding: 121 121 25
Width: 434
VWidth: 0
Flags: HW
HStem: -224 57<4.24414 80.1505> 348 58<95.5716 161> 379 20G<368 396.5>
VStem: 194 38<61.0461 169.865> 352 59<300.381 398.815>
LayerCount: 3
Fore
SplineSet
25 -136 m 0xb8
 62 -136 58 -167 76 -167 c 0
 107 -167 194 -53 194 17 c 0
 194 43 162 348 114 348 c 0
 69 348 57 230 41 230 c 0
 32 230 28 238 28 250 c 0
 28 296 82 406 141 406 c 0xd8
 181 406 207 383 232 226 c 0
 248 124 248 61 251 61 c 0
 254 61 264 85 277 111 c 0
 328 211 349 328 352 350 c 0
 357 394 356 399 380 399 c 2
 392 399 l 2
 401 399 411 398 411 384 c 0
 411 340 358 203 285 70 c 0
 157 -164 82 -224 35 -224 c 0
 5 -224 -18 -208 -18 -180 c 4
 -18 -158 -2 -136 25 -136 c 0xb8
EndSplineSet
AlternateSubs2: "'aalt' Access All Alternates lookup 0 subtable" y.ld
AlternateSubs2: "'aalt' Access All Alternates in Latin lookup 0 subtable" y.ld
Substitution2: "'ss01' Style Set 1 in Latin lookup 1 subtable" y.ld
EndChar

StartChar: z
Encoding: 122 122 26
Width: 409
VWidth: 0
Flags: HW
HStem: -22 57<233.582 325.725> 313 54<250.134 285> 359 53<94.5911 195.495> 377 20G<365 368.5>
VStem: 29 44<266.5 347.219> 343 41<42.1339 121.5>
LayerCount: 3
Fore
SplineSet
301 35 m 0xdc
 333 35 343 59 343 70 c 0
 343 91 313 97 313 125 c 0
 313 140 327 155 349 155 c 0
 366 155 384 141 384 102 c 0
 384 69 368 45 346 20 c 0
 324 -5 306 -22 262 -22 c 0
 192 -22 147 22 104 22 c 0
 56 22 38 -26 28 -26 c 0
 17 -26 10 -17 10 -8 c 0
 10 1 285 306 285 313 c 1xdc
 270 316 260 312 221 327 c 0
 187 340 153 359 118 359 c 0
 99 359 73 349 73 325 c 0
 73 303 102 293 102 267 c 0
 102 246 87 236 71 236 c 0
 51 236 29 251 29 282 c 0
 29 323 48 348 74 374 c 0
 103 403 146 412 169 412 c 0xac
 228 412 270 367 320 367 c 0
 330 367 339 372 347 379 c 0
 357 388 364 397 366 397 c 0
 371 397 382 388 382 382 c 0
 382 378 381 375 379 373 c 0
 333 325 124 84 124 84 c 1
 248 65 257 35 301 35 c 0xdc
EndSplineSet
EndChar

StartChar: A
Encoding: 65 65 27
Width: 693
VWidth: 0
Flags: HW
HStem: 0 21G<12.5 252.5 391.5 661.5> 257 36<334.004 509.001> 560 89<550.5 632.447>
VStem: 389 192<8 142>
DStem2: 457 509 380 364 0.631673 0.775235<-440.722 -285.241 -241.074 100.593>
LayerCount: 3
Fore
SplineSet
334 298 m 0
 334 293 340 293 347 293 c 2
 502 293 l 2
 520 293 523 328 527 347 c 2
 551 484 l 2
 557 517 561 537 561 548 c 0
 561 557 559 560 554 560 c 0
 547 560 534 549 525 538 c 0
 508 519 477 481 380 364 c 0
 347 324 334 303 334 298 c 0
628 649 m 0
 647 649 648 644 648 625 c 0
 648 595 581 168 581 69 c 0
 581 53 584 42 589 36 c 0
 604 16 663 30 663 10 c 0
 663 6 662 2 661 0 c 1
 392 0 l 1
 391 2 389 6 389 10 c 0
 389 31 444 15 463 34 c 0
 471 42 475 55 479 76 c 0
 488 117 502 192 509 235 c 0
 511 249 506 257 500 257 c 2
 317 257 l 2
 305 257 292 255 283 241 c 2
 177 90 l 2
 160 65 150 47 150 38 c 0
 150 13 254 34 254 10 c 0
 254 6 253 2 252 0 c 1
 13 0 l 1
 12 2 10 6 10 10 c 0
 10 30 40 10 80 44 c 0
 113 72 149 124 193 181 c 0
 263 272 368 407 457 509 c 0
 554 621 594 649 628 649 c 0
EndSplineSet
EndChar

StartChar: B
Encoding: 66 66 28
Width: 572
VWidth: 0
Flags: HWO
HStem: 0 30<215.481 359.81> 327 25<210 316.143> 611 25<214.814 335.783>
VStem: 117 93<31.8904 327 352 605.918> 405 91<420.261 560.922> 432 100<86.5578 254.434>
LayerCount: 3
Fore
SplineSet
279 307 m 2
 247 307 l 1
 190 75 l 2
 188 68 187 61 187 55 c 0
 187 33 197 30 246 30 c 2
 250 30 l 2
 375 30 425 109 425 193 c 0
 425 253 384 307 279 307 c 2
473 517 m 0
 473 554 455 611 360 611 c 0
 321 611 319 596 310 560 c 2
 253 330 l 1
 368 330 473 362 473 517 c 0
226 583 m 0
 226 632 149 604 149 626 c 0
 149 630 150 634 151 636 c 1
 382 636 l 2
 451 636 561 633 561 499 c 0
 561 445 528 386 470 351 c 0
 415 317 374 322 374 318 c 0
 374 316 392 318 419 309 c 0
 491 285 513 218 513 191 c 0
 513 0 348 0 279 -0 c 2
 18 0 l 1
 17 2 15 6 15 10 c 0
 15 30 74 11 89 36 c 0
 93 44 97 56 102 75 c 2
 222 561 l 2
 224 569 226 577 226 583 c 0
EndSplineSet
EndChar

StartChar: C
Encoding: 67 67 29
Width: 556
VWidth: 0
Flags: HW
HStem: -21 32<319.776 484.356> 627 27<320.053 473.093>
VStem: 40 105<193.646 425.628> 614 20<465.093 498.449>
LayerCount: 3
Fore
SplineSet
376 627 m 0
 179 627 119 293 119 181 c 0
 119 90 150 11 252 11 c 0
 371 11 412 108 430 142 c 0
 434 149 436 151 440 151 c 0
 449.50235406 151 453.343633778 145.95856423 453.343633778 135.954802864 c 0
 453.343633778 117.688106698 440.535988325 82.8759591379 426 32 c 0
 417 1 418 -2 397 -6 c 0
 384 -8 370.80859375 -6.4453125 362 -8 c 0
 294 -20 292 -21 240 -21 c 0
 50 -21 18 191 18 235 c 0
 18 309 102 654 383 654 c 0
 455.545989159 654 501.391877791 604 506 604 c 0
 512 604 526 618 533 618 c 0
 538 618 540 616 540 610 c 0
 540 603 519 464 519 464 c 2
 517 455 517 454 508 454 c 0
 499 454 499 461 499 464 c 0
 492 543 483 627 376 627 c 0
EndSplineSet
EndChar

StartChar: D
Encoding: 68 68 30
Width: 725
VWidth: 0
Flags: HW
HStem: 0 31<215.731 389.154> 608 28<214.535 398.197>
VStem: 117 93<34.3536 604.11> 576 109<200.027 434.641>
LayerCount: 3
Fore
SplineSet
33 0 m 1
 32 2 30 6 30 10 c 0
 30 37 93 -2 112 75 c 2
 237 561 l 2
 239 567 239 573 239 578 c 0
 239 632 150 601 150 626 c 0
 150 630 152 634 153 636 c 1
 393 636 l 2
 655 636 713 538 713 396 c 0
 713 80 545 0 261 0 c 2
 33 0 l 1
330 563 m 2
 205 85 l 2
 203 76 201 67 201 61 c 0
 201 32 226 31 275 31 c 0
 575 31 634 245 634 409 c 0
 634 500 585 608 406 608 c 0
 332 608 340 602 330 563 c 2
EndSplineSet
EndChar

StartChar: E
Encoding: 69 69 31
Width: 632
VWidth: 0
Flags: HW
HStem: 0 27<211.075 465.666> 308 21<210.029 337.181> 609 27<211.617 424.364>
VStem: 117 93<29.8065 307.755 329.021 605.982> 378 21<195.003 254.875 384.055 455.997> 528 13<130.056 136.763>
LayerCount: 3
Fore
SplineSet
559 153 m 0
 559 142.4 529 0 509 0 c 2
 23 0 l 5
 22 2 20 6 20 10 c 4
 20 37 87 -1 107 75 c 6
 237 561 l 2
 257 636 150 599 150 626 c 0
 150 630 152 634 153 636 c 1
 490 636 l 2
 538 636 579 640 589 640 c 0
 605 640 598 629 609 562 c 0
 613 535 612 515 612 502 c 0
 612 495 608 494 605 493 c 0
 597 490 592 500 591 501 c 0
 576 523 540 609 514 609 c 2
 349 609 l 2
 337 609 334 598 330 585 c 2
 269 364 l 2
 267 356 279 355 294 355 c 2
 349 355 l 2
 452 355 445 384 472 431 c 0
 476 438 475 440 483 440 c 0
 491 440 493 439 493 431 c 0
 493 418 486 414 461 336 c 0
 437 260 428 238 428 225 c 0
 428 217 426 216 418 216 c 0
 410 216 408 217 407 225 c 0
 401 261 421 334 349 334 c 2
 298 334 l 2
 281 334 265 334 262 323 c 2
 190 49 l 2
 187 39 192 27 223 27 c 2
 366 27 l 2
 438 27 470 72 541 155 c 0
 544 158 546 163 552 161 c 0
 558 159 559 159 559 153 c 0
EndSplineSet
EndChar

StartChar: F
Encoding: 70 70 32
Width: 587
VWidth: 0
Flags: HW
HStem: 0 21G<32.5 305.5> 300 21<210.029 334.668> 609 27<211.526 432.826>
VStem: 117 93<32.5851 299.755 321.021 606.021> 379 21<185.003 243.359 370.786 442.997>
LayerCount: 3
Fore
SplineSet
583 626 m 2
 583 626 577 531 577 512 c 0
 577 508 576 500 564 515 c 0
 546 537 513 609 484 609 c 2
 337 609 l 2
 325 609 324 597 320 584 c 2
 257 357 l 2
 255 349 267 348 282 348 c 2
 335 348 l 2
 415 348 421 397 434 428 c 0
 437 435 437 437 445 437 c 0
 453 437 455 436 455 428 c 0
 455 404 412 245 412 221 c 0
 412 213 410 212 402 212 c 0
 394 212 392 213 391 221 c 0
 385 257 403 327 335 327 c 2
 283 327 l 2
 266 327 250 327 247 316 c 2
 185 75 l 2
 184 70 183 65 183 61 c 0
 183 6 267 34 267 10 c 0
 267 6 266 2 265 0 c 1
 13 0 l 1
 12 2 10 6 10 10 c 0
 10 37 70.9665296066 -0.720493416308 92 75 c 2
 227 561 l 2
 229 568 230 575 230 580 c 0
 230 630 150 602 150 626 c 0
 150 630 152 634 153 636 c 1
 462 636 l 2
 510 636 560 641 570 641 c 0
 579 641 583 637 583 626 c 2
EndSplineSet
EndChar

StartChar: G
Encoding: 71 71 33
Width: 644
VWidth: 0
Flags: HW
HStem: -22 33<325.016 510.916> 33 27<667.328 706.993> 626 28<321.741 503.719>
VStem: 40 103<191.692 432.087> 572 83<64.0162 239.476> 648 21<449.093 480.581>
LayerCount: 3
Fore
SplineSet
143 325 m 0xf4
 137 287 134 252 134 220 c 0
 134 89 185 11 317 11 c 0
 394 11 405 24 422 99 c 2
 442 185 l 2
 446 204 450 218 450 228 c 0
 450 238 447 244 436 248 c 0
 397 264 334 251 334 270 c 0
 334 274 335 278 336 280 c 1
 620 280 l 1
 621 278 623 274 623 270 c 0
 623 243 544 281 525 205 c 0
 499 98 496 60 496 60 c 1
 496 44 507 40 530 40 c 0
 546 40 547 37 547 27 c 0
 547 17 545 19 514 13 c 0
 370 -13 358 -22 300 -22 c 0
 100 -22 33 84 33 226 c 0
 33 254 35 282 40 312 c 0
 66 482 172 654 403 654 c 0
 536 654 580 596 582 595 c 0
 595 590 627 600 627 580 c 0
 627 577 626 573 624 569 c 0
 621 561 626 562 614 530 c 0
 605 506 600 452 597 444 c 0
 595 438 595 437 587 438 c 0
 578 439 577 447 577 450 c 0
 574 541 562 626 412 626 c 0
 270 626 162 455 143 325 c 0xf4
EndSplineSet
EndChar

StartChar: H
Encoding: 72 72 34
Width: 811
VWidth: 0
Flags: HW
HStem: 0 21G<17.5 262.5 423.5 668.5> 308 31<255 576> 616 20G<145.5 398.5 561.5 804.5>
DStem2: 83.3004 0 171.3 0 0.241922 0.970296<71.7844 338.696 370.468 599.688> 499.3 0 587.3 0 0.241922 0.970296<71.7851 317.406 349.179 599.93>
LayerCount: 3
Fore
SplineSet
225 583 m 0
 225 630 144 604 144 626 c 0
 144 630 145 634 146 636 c 1
 398 636 l 1
 399 634 401 630 401 626 c 0
 401 608 342 623 326 603 c 0
 320 595 316 584 310 561 c 2
 255 339 l 1
 583 339 l 1
 638 561 l 2
 640 569 642 577 642 583 c 0
 642 629 560 605 560 626 c 0
 560 630 561 634 562 636 c 1
 804 636 l 1
 805 634 807 630 807 626 c 0
 807 606 754 629 737 597 c 0
 732 587 730 575 726 561 c 2
 606 75 l 2
 604 66 602 56 602 48 c 0
 602 7 670 35 670 10 c 0
 670 6 669 2 668 0 c 1
 424 0 l 1
 423 2 421 6 421 10 c 0
 421 31 494 7 510 47 c 0
 513 54 515 62 518 75 c 2
 576 308 l 1
 248 308 l 1
 190 75 l 2
 188 65 186 56 186 48 c 0
 186 5.36875 264 33.8390625 264 10 c 0
 264 6 263 2 262 0 c 1
 18 0 l 1
 17 2 15 6 15 10 c 0
 15 28.8681208594 70.2597769716 13.5166747827 85.875 32 c 0
 92 39.25 96 52 102 75 c 2
 222 561 l 2
 224 569 225 577 225 583 c 0
EndSplineSet
EndChar

StartChar: I
Encoding: 73 73 35
Width: 327
VWidth: 0
Flags: HW
HStem: 0 21G<12.5 242.5> 616 20G<150.5 373.5>
DStem2: 73.3004 0 161.3 0 0.241922 0.970296<71.7844 599.93>
LayerCount: 3
Fore
SplineSet
216 583 m 0
 216 628 149 604 149 626 c 0
 149 630 150 634 151 636 c 1
 373 636 l 1
 374 634 376 630 376 626 c 0
 376 607 330 627 312 599 c 0
 305 588 303 573 300 561 c 2
 180 75 l 2
 178 65 176 56 176 48 c 0
 176 41 178 35 182 31 c 0
 198 16 244 30 244 10 c 0
 244 6 243 2 242 0 c 1
 13 0 l 1
 12 2 10 6 10 10 c 0
 10 30 64 11 79 36 c 0
 83 44 87 56 92 75 c 2
 212 561 l 2
 214 570 216 577 216 583 c 0
EndSplineSet
EndChar

StartChar: J
Encoding: 74 74 36
Width: 363
VWidth: 0
Flags: HW
HStem: -188 34<-81.7969 -12.4665> 616 20G<107.5 350.5>
DStem2: 4.15053 -188 89.4267 -188 0.241922 0.970296<106.754 795.847>
LayerCount: 3
Fore
SplineSet
106 626 m 0
 106 630 107 634 108 636 c 1
 350 636 l 1
 351 634 353 630 353 626 c 0
 353 607 302 629 285 596 c 0
 280 587 279 575 275 561 c 2
 155 75 l 2
 136 -1 118 -59 86 -104 c 0
 30 -183 -53 -188 -72 -188 c 2
 -76 -188 l 1
 -76 -188 -82 -177 -82 -168 c 0
 -82 -163 -81 -159 -78 -154 c 1
 14 -143 20 -131 60 36 c 2
 187 561 l 2
 189 569 191 578 191 586 c 0
 191 629 106 604 106 626 c 0
EndSplineSet
EndChar

StartChar: K
Encoding: 75 75 37
Width: 714
VWidth: 0
Flags: HW
HStem: 0 21G<32.5 295.5 396.5 692.5> 304 23<210 254.936> 616 20G<31.5 302.5 414.5 641.5>
VStem: 117 93<30.7996 303 328 604.11>
DStem2: 369 324 294 270 0.649049 -0.760746<-58.068 276.94>
LayerCount: 3
Fore
SplineSet
263 334 m 1
 210 75 l 2
 209 70 209 66 209 62 c 0
 209 5 297 34 297 10 c 0
 297 6 296 2 295 0 c 1
 38 0 l 1
 37 2 35 6 35 10 c 0
 35 37 106.463598109 -0.506913191116 122 75 c 2
 222 561 l 2
 223 567 224 572 224 577 c 0
 224 630 135 602 135 626 c 0
 135 630 136 634 137 636 c 1
 394 636 l 1
 395 634 397 630 397 626 c 0
 397 599 326 638 310 561 c 2
 270.018106603 366.687997787 l 1
 273.113185573 366.394556156 275.859314677 366 279 366 c 0
 315 366 441 443 528 543 c 0
 534.051390708 549.955621503 558 571 558 588 c 0
 558 626 483 606 483 626 c 0
 483 630 484 634 485 636 c 1
 721 636 l 1
 722 634 724 630 724 626 c 0
 724 610 701.011653468 618.96372911 670 609 c 0
 620.018781796 592.941542515 587.247388249 555.925222638 552 520 c 0
 448 414 412 399.533767558 412 392 c 0
 412 384 399 391 423 363 c 1
 584 72 l 2
 628.20009867 -7.88961933539 694 31 694 10 c 0
 694 6 693 2 692 0 c 1
 417 0 l 1
 416 2 414 6 414 10 c 0
 414 32 488 11 488 44 c 0
 488 53 479 61 468 82 c 2
 348 309 l 2
 337 331 331 363 279 338 c 0
 274.775917182 335.969190953 267.686523438 334.110351562 263 334 c 1
EndSplineSet
EndChar

StartChar: L
Encoding: 76 76 38
Width: 623
VWidth: 0
Flags: HW
HStem: 0 34<210.528 484.967> 616 20G<31.5 294.5>
VStem: 117 93<35.0577 605.2>
LayerCount: 3
Fore
SplineSet
28 0 m 1
 27 2 25 6 25 10 c 0
 25 37 95 -1 112 75 c 2
 222 561 l 2
 223 567 224 572 224 577 c 0
 224 630 135 602 135 626 c 0
 135 630 136 634 137 636 c 1
 394 636 l 1
 395 634 397 630 397 626 c 0
 397 599 327.293609619 637.40637207 310 561 c 2
 200 75 l 2
 198 68 198 63 198 58 c 0
 198 36 212 34 226 34 c 2
 314 34 l 2
 355 34 494 40 567 142 c 0
 572.205078125 149.2734375 583 146 583 136 c 0
 583 114.15625 524.12670743 0.253414859877 524 0 c 2
 28 0 l 1
EndSplineSet
EndChar

StartChar: N
Encoding: 78 78 39
Width: 786
VWidth: 0
Flags: HW
HStem: 0 11G<49.5 274.5 641.5 650.5> 616 20G<32.5 195.5 522.5 753.5>
VStem: 142 33<41.14 307.589> 635 26<257.502 575.624>
DStem2: 227 607 116 575 0.673616 -0.739082<-58.1033 23.9491 44.456 606.089>
LayerCount: 3
Fore
SplineSet
140 626 m 0
 140 630 142 634 143 636 c 1
 297 636 l 2
 314 636 323 633 337 607 c 2
 562 192 l 1
 587 152 589 155 590 155 c 0
 592 155 617 176 680 446 c 0
 691 493 700 529 700 556 c 0
 700 582 692 599 669 607 c 0
 639 618 601 609 601 626 c 0
 601 630 602 634 603 636 c 1
 833 636 l 1
 834 634 836 630 836 626 c 0
 836 609 802 621 773 605 c 0
 741 587 742 540 705 413 c 2
 592 26 l 2
 585 1 571 0 570 0 c 0
 547 11 547.647145075 24.4132006779 512 88 c 1
 300 484 l 2
 287 509 280 515 277 515 c 0
 271 515 175 193 175 97 c 0
 175 46 187 32 226 25 c 0
 252 20 286 26 286 10 c 0
 286 6 285 2 284 0 c 1
 20 0 l 1
 19 2 17 6 17 10 c 0
 17 30 67 13 92 37 c 0
 126 71 116 60 162 225 c 0
 182 295 201 397 255 548 c 0
 259 559 255 564 254 565 c 2
 248 575 l 2
 238 591 236 598 227 604 c 0
 199 621 140 609 140 626 c 0
EndSplineSet
EndChar

StartChar: O
Encoding: 79 79 40
Width: 631
VWidth: 0
Flags: HW
HStem: -22 33<306.211 465.567> 622 32<295.584 446.514>
VStem: 40 109<195.728 436.303> 602 97<185.693 448.628>
LayerCount: 3
Fore
SplineSet
384 624 m 0
 229 624 129 243 129 186 c 0
 129 56 200 9 249 9 c 0
 254 9 259 10 264 11 c 0
 485.350045738 61.0672722502 517 410.914484336 517 460 c 0
 517 567 469 624 384 624 c 0
387 651 m 0
 519 651 610 536 610 396 c 0
 610 189.462890625 463.490234375 -22 272 -22 c 0
 102 -22 42 147 42 258 c 0
 42 401 168 651 387 651 c 0
EndSplineSet
EndChar

StartChar: P
Encoding: 80 80 41
Width: 560
VWidth: 0
Flags: HW
HStem: 0 21G<32.5 305.5> 263 40<225.581 355.021> 611 25<215.748 346.935>
VStem: 117 93<32.5851 289 304.919 606.104> 430 90<371.202 542.138>
LayerCount: 3
Fore
SplineSet
123 636 m 1
 399 636 l 2
 427 636 560 624 560 495 c 0
 560 385 459 326 334 326 c 0
 304 326 243 332 243 332 c 1
 180 75 l 2
 179 70 178 65 178 61 c 0
 178 6 277 34 277 10 c 0
 277 6 276 2 275 0 c 1
 13 0 l 1
 12 2 10 6 10 10 c 0
 10 37 80 -2 97 75 c 2
 207 561 l 2
 208 566 208 570 208 574 c 0
 208 634 120 601 120 626 c 0
 120 630 122 634 123 636 c 1
480 500 m 0
 480 562 442 611 371 611 c 2
 364 611 l 2
 309 611 312 609 300 562 c 2
 248 362 l 1
 248 362 276 357 299 357 c 0
 400 357 480 397 480 500 c 0
EndSplineSet
EndChar

StartChar: Q
Encoding: 81 81 42
Width: 631
VWidth: 0
Flags: HW
HStem: -196 50<647 784.028> -175 34<751.702 805.994> -18 26<307.577 373.996> 626 28<309.699 449.127>
VStem: 40 103<184.154 423.946> 613 103<225.803 457.295>
LayerCount: 3
Fore
SplineSet
104 -130 m 0
 81 -130 56 -122 56 -94 c 0
 56 -63 117 -39 153 -39 c 0
 163 -39 173 -40 183 -40 c 0
 192 -40 200 -39 210 -36 c 0
 219 -33 221 -19 226 -13 c 1
 67 11 37 156 37 258 c 0
 37 401 163 651 382 651 c 0
 514 651 605 536 605 396 c 0
 605 192 462 -12 274 -17 c 1
 264 -32 240 -48 240 -51 c 0
 240 -53 386 -128 504 -156 c 0
 535 -164 555 -167 570 -167 c 0
 594 -167 603 -158 623 -146 c 0
 636 -138 649 -130 654 -130 c 0
 663 -130 672 -137 672 -146 c 0
 672 -178 557 -226 518 -226 c 0
 460 -226 415 -199 352 -176 c 0
 280 -149 220 -104 170 -98 c 1
 169 -98 l 2
 156 -98 131 -130 104 -130 c 0
379 624 m 0
 224 624 124 243 124 186 c 0
 124 56 195 9 244 9 c 0
 417 9 512 313 512 460 c 0
 512 567 464 624 379 624 c 0
EndSplineSet
EndChar

StartChar: R
Encoding: 82 82 43
Width: 667
VWidth: 0
Flags: HW
HStem: 0 21G<32.5 305.5 532 645.5> 293 25<210 299.841> 611 25<214.488 342.93>
VStem: 117 93<32.5851 293 318 605.791> 417 93<403.351 555.528>
DStem2: 399 296 311 269 0.574946 -0.818192<-25.2812 314.626>
LayerCount: 3
Fore
SplineSet
535 503 m 0
 535 548 521 611 381 611 c 2
 361 611 l 2
 337 611 329 603 320 564 c 2
 270 353 l 1
 302 353 l 2
 534 353 535 446 535 503 c 0
655 0 m 1
 527 -0 l 2
 494 0 490 1 486 10 c 2
 360 279 l 2
 349 302 343 328 319 328 c 2
 260 328 l 1
 200 75 l 2
 199 70 198 65 198 61 c 0
 198 5 297 34 297 10 c 0
 297 6 296 2 295 0 c 1
 33 0 l 1
 32 2 30 6 30 10 c 0
 30 37 94 -1 112 75 c 2
 232 561 l 2
 234 567 234 573 234 578 c 0
 234 632 145 601 145 626 c 0
 145 630 147 634 148 636 c 1
 356 636 l 2
 493 636 620 625 620 485 c 0
 620 343 439 340 439 327 c 1
 579 36 l 1
 603 12 657 30 657 10 c 0
 657 6 656 2 655 0 c 1
EndSplineSet
EndChar

StartChar: S
Encoding: 83 83 44
Width: 503
VWidth: 0
Flags: HW
HStem: -17 30<189.008 314.57> 627 28<193.993 316.945>
VStem: 50 26<146.321 178.146> 55 75<462.012 564.33> 390 77<93.9481 212.399>
LayerCount: 3
Fore
SplineSet
237 -17 m 0xd8
 187 -17 128 19 92 26 c 1
 88 26 l 2
 76 26 64 18 57 18 c 0
 50 18 43 18 43 35 c 0
 43 49 45 122 45 180 c 0
 45 189 48 191 54 192 c 0
 55 192 56 192 57 192 c 0
 63 192 67 188 68 184 c 0xe8
 85 104 152 13 237 13 c 0
 320 13 360 126 360 147 c 0
 360 292 117 333 117 483 c 0
 117 583 197 655 319 655 c 0
 368 655 426 609 431 609 c 0
 439 609 469 621 473 621 c 0
 476 621 478 619 478 611 c 0
 478 598 477 585 474 484 c 0
 474 477 471 473 462 473 c 0
 456 473 455 476 451 489 c 0
 436 532 419 627 317 627 c 0
 269 627 198 590 198 514 c 0
 198 383 437 344 437 180 c 0
 437 48 327 -17 237 -17 c 0xd8
EndSplineSet
EndChar

StartChar: T
Encoding: 84 84 45
Width: 663
VWidth: 0
Flags: HW
HStem: 0 21G<213.5 511.5> 600 34<95.2726 309.573 414.87 634.61>
VStem: 316 93<32.9031 598.062>
LayerCount: 3
Fore
SplineSet
64 0 m 1
 63 2 62 6 62 10 c 0
 62 36 145 0 166 75 c 2
 286 503 l 2
 319 591 310 602 274 602 c 2
 176 602 l 2
 109 602 117 598 92 576 c 0
 49 538 34 512 31 512 c 0
 29 512 20 515 20 520 c 0
 20 523 55 625 61 649 c 0
 62 652 64 654 67 654 c 0
 73 654 94 636 108 636 c 2
 592 636 l 2
 600 636 627 650 631 650 c 0
 636 650 638 647 641 637 c 2
 645 595 l 2
 647 570 659 479 659 476 c 0
 659 473 647 470 643 470 c 0
 639 470 614 550 565 583 c 0
 547.981377131 594.461521524 541 603 520 602 c 2
 440 600 l 2
 401 600 407 580 379 505 c 2
 259 75 l 2
 238 0 363 36 363 10 c 0
 363 6 362 2 361 0 c 1
 64 0 l 1
EndSplineSet
EndChar

StartChar: U
Encoding: 85 85 46
Width: 722
VWidth: 0
Flags: HW
HStem: -20 56<308.815 485.145> 616 20G<31.5 304.5 487.5 713.5>
VStem: 117 93<167.009 604.11> 604 28<214.545 571.544>
LayerCount: 3
Fore
SplineSet
584 472 m 2
 562 370 l 2
 552 327 510.302390356 -20 258 -20 c 0
 80.4189698557 -20 33.3570050764 54.45817727 33.3570050764 152.134499641 c 0
 33.3570050764 224.616998836 59.2723965844 309.884925142 77 387 c 2
 117 561 l 2
 118.284444444 566.666666667 118.87814321 571.699674074 118.87814321 576.173640516 c 0
 118.87814321 630.913935802 30 601.964444444 30 626 c 0
 30 630 31 634 32 636 c 1
 304 636 l 1
 305 634 307 630 307 626 c 0
 307 599 221 642 200 566 c 2
 154 356 l 2
 143.867653436 310.087804632 116 209.419921875 116 164 c 0
 116 65.974609375 170 40 281 40 c 0
 401 40 470.590116574 103.6401926 520 322 c 2
 551 459 l 2
 560 498 562.442382812 523.610351562 562.442382812 548.68359375 c 0
 562.442382812 563.186523438 559.497070312 575.205078125 554 584 c 0
 524 631 476 605 476 626 c 0
 476 630 477 634 478 636 c 1
 693 636 l 1
 694 634 696 630 696 626 c 0
 696 601 635 631 618 583 c 0
 611 563 597 531 584 472 c 2
EndSplineSet
EndChar

StartChar: V
Encoding: 86 86 47
Width: 754
VWidth: 0
Flags: HW
HStem: -20 21G<318.5 336> 616 20G<31.5 267.5 481.5 721.5>
VStem: 576 148<551 628>
LayerCount: 3
Fore
SplineSet
230 149 m 0
 239 149 387 333 477 459 c 0
 518 516 545 545 545 571 c 0
 545 579 543 586 538 594 c 0
 519 624 460 604 460 626 c 0
 460 630 461 634 462 636 c 1
 681 636 l 1
 682 634 684 630 684 626 c 0
 684 605 664 626 629 600 c 1
 626.273780046 600 186.477782233 28.7612494855 183 24 c 0
 166 0 154 -20 146 -20 c 2
 139 -20 l 2
 132 -20 131 -18 131 26 c 0
 131 66 132 142 132 283 c 0
 132 378 133 442 133 486 c 0
 133 567 130 581 116 600 c 0
 97 624 60 606 60 626 c 0
 60 630 61 634 62 636 c 1
 307 636 l 1
 308 634 310 630 310 626 c 0
 310 612 277 617 258 611 c 0
 241 605 226 579 226 532 c 0
 226 354 224 245 224 179 c 0
 224 152 226 148 228 148 c 0
 229 148 229 149 230 149 c 0
EndSplineSet
EndChar

StartChar: W
Encoding: 87 87 48
Width: 928
VWidth: 0
Flags: HW
HStem: -20 21G<287.5 301 689.5 703> 616 20G<31.5 290.5 411.5 693.5 842.5 1033.5>
VStem: 30 190<567 628> 914 122<555.5 628>
DStem2: 226 536 147 441 0.273874 -0.961766<-37.5584 436.214> 623 509 529 471 0.298157 -0.954517<-68.047 29.571 48.0944 401.344>
LayerCount: 3
Fore
SplineSet
210 149 m 0
 219 149 304 316 394 442 c 1
 428 491 l 1
 428 568 426 586 406 600 c 0
 381 618 350 606 350 626 c 0
 350 630 351 634 352 636 c 1
 597 636 l 1
 598 634 600 630 600 626 c 0
 600 612 567 617 548 611 c 0
 531 605 516 579 516 532 c 0
 516 354 498 245 498 179 c 0
 498 152 496 148 498 148 c 0
 499 148 499 149 500 149 c 0
 509 149 626 332 707 459 c 0
 745 518 765 545 765 571 c 0
 765 579 763 586 758 594 c 0
 739 624 680 604 680 626 c 0
 680 630 681 634 682 636 c 1
 901 636 l 1
 902 634 904 630 904 626 c 0
 904 605 884 626 849 600 c 1
 846 600 461 29 458 24 c 0
 441 0 429 -20 421 -20 c 2
 414 -20 l 2
 407 -20 406 -18 406 26 c 0
 406 66 417 142 417 283 c 0
 417 345 422 393 425 432 c 1
 163 24 l 1
 146 0 134 -20 126 -20 c 2
 119 -20 l 2
 112 -20 111 -18 111 26 c 0
 111 66 102 142 102 283 c 0
 102 378 103 442 103 486 c 0
 103 567 100 581 86 600 c 0
 67 624 30 606 30 626 c 0
 30 630 31 634 32 636 c 1
 277 636 l 1
 278 634 280 630 280 626 c 0
 280 612 247 617 228 611 c 0
 211 605 196 579 196 532 c 0
 196 354 204 245 204 179 c 0
 204 152 206 148 208 148 c 0
 209 148 209 149 210 149 c 0
EndSplineSet
EndChar

StartChar: X
Encoding: 88 88 49
Width: 734
VWidth: 0
Flags: HW
HStem: 0 21G<32.5 279.5 397.5 663.5> 616 20G<51.5 327.5 426.5 663.5>
VStem: 310 85<311.68 342.062> 501 165<558 632>
DStem2: 288 531 172 538 0.509261 -0.860612<-66.5539 173.484 246.514 503.689> 208 160 223 128 0.604709 0.796446<-92.8398 161.289 279.042 502.155>
LayerCount: 3
Fore
SplineSet
475 456 m 1
 496 493 570 552 570 586 c 0
 570 614 556 618 541 618 c 0
 533 618 524 617 517 617 c 0
 510 617 505 619 505 626 c 0
 505 630 506 634 507 636 c 1
 713 636 l 1
 714 634 716 630 716 626 c 0
 716 620 714 619 710 619 c 0
 706 619 701 620 694 620 c 0
 683 620 667 617 648 602 c 0
 629 587 599.655235871 553.178625305 563 510 c 2
 445 371 l 2
 431 354 424 350 424 339 c 0
 424 332 427 324 432 308 c 2
 506 95 l 2
 517 63 528 41 549 29 c 0
 580 12 605 27 605 10 c 0
 605 6 604 2 603 0 c 1
 358 0 l 1
 357 2 355 6 355 10 c 0
 355 31 422 11 422 42 c 0
 422 62 411 84 388 155 c 2
 359 245 l 2
 354 261 349 267 343 267 c 2
 342 267 l 2
 336 267 337 266 223 128 c 0
 190 88 173 65 173 50 c 0
 173 42 178 36 189 31 c 0
 216 18 266 27 266 10 c 0
 266 6 265 2 264 0 c 1
 28 0 l 1
 27 2 25 6 25 10 c 0
 25 29 52 13 95 41 c 0
 120 57 153 96 208 160 c 2
 316 286 l 2
 324 296 330 300 330 310 c 0
 330 315 329 321 326 329 c 0
 294 420 237 588 222 599 c 0
 193 619 149 608 149 626 c 0
 149 630 151 634 152 636 c 1
 407 636 l 1
 408 634 409 630 409 626 c 0
 409 607 364 620 346 604 c 0
 343 601 341 598 341 593 c 0
 342 580 348 563 358 530 c 2
 392 424 l 2
 400 399 406 385 414 385 c 0
 418 385 424 389 430 397 c 2
 475 456 l 1
EndSplineSet
EndChar

StartChar: Y
Encoding: 89 89 50
Width: 680
VWidth: 0
Flags: HW
HStem: 0 21G<216.5 491.5> 616 20G<31.5 306.5 425.5 647.5>
VStem: 302 93<32.5851 273.832> 516 134<567 628>
DStem2: 273 496 121 543 0.509551 -0.86044<-108.001 224.62> 398 322 419 307 0.443552 0.896249<-26.1604 277.6>
LayerCount: 3
Fore
SplineSet
594 599 m 0
 567 581 511 496 469 460 c 2
 302 314 l 1
 292 294 281 257 278 247 c 2
 225 75 l 2
 223 68 222 61 222 56 c 0
 222 8 303 33 303 10 c 0
 303 6 302 2 301 0 c 1
 27 0 l 1
 26 2 24 6 24 10 c 0
 24 37 109 2 132 75 c 2
 185 244 l 2
 195 275 197 292 197 302 c 0
 197 304 197 306 197 308 c 2
 167 542 l 2
 162 578 160 594 145 604 c 0
 125 618 90 610 90 626 c 0
 90 630 91 634 92 636 c 1
 316 636 l 1
 317 634 319 630 319 626 c 0
 319 609 305 617 276 613 c 0
 268 612 254 601 254 595 c 0
 254 585 257 549 263 496 c 2
 280 355 l 2
 282 344 283 337 287 337 c 0
 290 337 295 341 304 349 c 0
 516 537 516 556 516 579 c 0
 516 590 515 598 504 603 c 0
 472 618 444 609 444 626 c 0
 444 630 445 634 446 636 c 1
 652 636 l 1
 653 634 655 630 655 626 c 0
 655 609 628 622 594 599 c 0
EndSplineSet
EndChar

StartChar: Z
Encoding: 90 90 51
Width: 741
VWidth: 0
Flags: HW
HStem: 0 35<175.012 399.258> 609 27<165.25 372.995> 642 20G<77 90.5>
DStem2: 62 78 229 146 0.511274 0.859418<32.4577 610.91>
LayerCount: 3
Fore
SplineSet
610 92 m 0
 595 61 588 24 577 6 c 0
 574 2 565 0 561 0 c 2
 66 0 l 2
 31 0 30 0 30 19 c 0
 30 22 56 48 82 78 c 2
 464 510 l 2
 506 557 543 601 543 604 c 0
 543 609 536 609 520 609 c 2
 394 609 l 2
 372 609 352 610 333 610 c 0
 280 610 237 602 202 541 c 0
 181 505 177 485 167 485 c 0
 154 485 151 492 151 497 c 0
 151 500 152 502 152 503 c 0
 154 512 180 593 184 612 c 0
 190 640 192 662 202 662 c 0
 219 662 233 636 272 636 c 2
 666 636 l 2
 674 636 680 632 680 622 c 0
 680 611 646 577 605 532 c 2
 264 146 l 2
 259 141 185 58 185 48 c 0
 185 35 201 35 229 35 c 2
 385 35 l 2
 431 35 471 39 492 45 c 0
 514 52 542 87 565 118 c 0
 585 145 595 170 608 170 c 0
 618 170 623 161 623 145 c 0
 623 132 620 114 610 92 c 0
EndSplineSet
EndChar

StartChar: period
Encoding: 46 46 53
Width: 320
VWidth: 0
Flags: W
HStem: -14 106<112.315 197.685>
VStem: 102 106<-3.68506 81.6851>
LayerCount: 3
Fore
SplineSet
102 39 m 0
 102 69 125 92 155 92 c 0
 185 92 208 69 208 39 c 0
 208 9 185 -14 155 -14 c 0
 125 -14 102 9 102 39 c 0
EndSplineSet
Validated: 1
EndChar

StartChar: comma
Encoding: 44 44 54
Width: 306
VWidth: 0
Flags: W
HStem: 6 95<95.1951 169.838>
VStem: 171 52<-72.9509 38.5>
LayerCount: 3
Fore
SplineSet
223 7 m 0
 223 -55 192 -91 165 -120 c 0
 135 -153 115 -155 112 -155 c 0
 105 -155 101 -150 99 -143 c 0
 96 -134 101 -128 109 -121 c 0
 146 -92 171 -51 171 -23 c 0
 171 -4 160 6 132 6 c 0
 98 6 82 27 82 48 c 0
 82 73 106 101 147 101 c 0
 185 101 223 70 223 7 c 0
EndSplineSet
Validated: 1
EndChar

StartChar: hyphen
Encoding: 45 45 55
Width: 316
VWidth: 0
Flags: W
HStem: 177 58<23 288.986>
VStem: 23 266<177 235>
LayerCount: 3
Fore
SplineSet
39 235 m 2
 276 235 l 2
 289 235 289 227 289 218 c 2
 289 200 l 2
 289 192 287 177 276 177 c 2
 36 177 l 2
 25 177 23 182 23 196 c 2
 23 217 l 2
 23 230 28 235 39 235 c 2
EndSplineSet
Validated: 1
EndChar

StartChar: colon
Encoding: 58 58 56
Width: 320
VWidth: 0
Flags: W
HStem: -14 104<122.515 207.485> 256 104<122.515 207.485>
VStem: 113 104<-4.48471 80.4847 265.515 350.485>
LayerCount: 3
Fore
SplineSet
113 308 m 0
 113 337 136 360 165 360 c 0
 194 360 217 337 217 308 c 0
 217 279 194 256 165 256 c 0
 136 256 113 279 113 308 c 0
113 38 m 0
 113 67 136 90 165 90 c 0
 194 90 217 67 217 38 c 0
 217 9 194 -14 165 -14 c 0
 136 -14 113 9 113 38 c 0
EndSplineSet
Validated: 1
EndChar

StartChar: semicolon
Encoding: 59 59 57
Width: 328
VWidth: 0
Flags: W
HStem: 6 95<121.195 195.838> 256 104<121.515 206.485>
VStem: 112 104<265.515 350.485> 197 52<-72.9509 38.5>
LayerCount: 3
Fore
SplineSet
249 7 m 0xd0
 249 -55 218 -91 191 -120 c 0
 161 -153 141 -155 138 -155 c 0
 131 -155 127 -150 125 -143 c 0
 122 -134 127 -128 135 -121 c 0
 172 -92 197 -51 197 -23 c 0
 197 -4 186 6 158 6 c 0
 124 6 108 27 108 48 c 0
 108 73 132 101 173 101 c 0
 211 101 249 70 249 7 c 0xd0
112 308 m 0xe0
 112 337 135 360 164 360 c 0
 193 360 216 337 216 308 c 0
 216 279 193 256 164 256 c 0
 135 256 112 279 112 308 c 0xe0
EndSplineSet
Validated: 1
EndChar

StartChar: exclam
Encoding: 33 33 58
Width: 324
VWidth: 0
Flags: W
HStem: -15 96<122.332 201.668> 620 20G<143.5 189.5>
VStem: 114 96<-6.66797 72.668> 117 102<439.982 638.829> 140 38<185.07 426.809>
LayerCount: 3
Fore
SplineSet
157 185 m 0xc8
 142 185 142 194 140 247 c 0xc8
 121 618 117 608 117 619 c 0xd0
 117 635 126 640 161 640 c 2
 178 640 l 2xc8
 201 640 219 638 219 620 c 0xd0
 219 606 202 500 178 247 c 0
 172 190 170 185 157 185 c 0xc8
114 33 m 0xe0
 114 59 136 81 162 81 c 0
 188 81 210 59 210 33 c 0
 210 7 188 -15 162 -15 c 0
 136 -15 114 7 114 33 c 0xe0
EndSplineSet
Validated: 1
EndChar

StartChar: question
Encoding: 63 63 59
Width: 352
VWidth: 0
Flags: W
HStem: -16 90<80.301 155.699> 237 68<138 270.125> 526 80<105.732 234.43> 619 20G<86.5 94>
VStem: 73 90<-8.69897 66.699> 103 33<119.718 223.878> 284 29<326.801 464.182>
LayerCount: 3
Fore
SplineSet
95 526 m 2xf6
 82 526 75 547 75 598 c 0
 75 628 83 639 90 639 c 0
 98 639 105 628 113 619 c 0
 123 607 122 606 136 606 c 0
 191 606 249 601 283 526 c 0
 299 492 313 445 313 380 c 0
 313 289 291 244 246 237 c 0
 146 223 138 228 136 206 c 0
 130 134 125 119 117 119 c 0
 105 119 103 148 103 149 c 0
 102 218 95 257 95 286 c 0
 95 297 99 305 115 305 c 2
 209 305 l 2
 272 305 284 332 284 390 c 2
 284 398 l 2
 284 432 278 526 149 526 c 2
 95 526 l 2xf6
73 29 m 0xfa
 73 53 94 74 118 74 c 0
 142 74 163 53 163 29 c 0
 163 5 142 -16 118 -16 c 0
 94 -16 73 5 73 29 c 0xfa
EndSplineSet
Validated: 1
EndChar

StartChar: parenleft
Encoding: 40 40 60
Width: 338
VWidth: 0
Flags: W
VStem: 45 67<64.1188 344.225>
LayerCount: 3
Fore
SplineSet
293 -211 m 0
 293 -213 279 -232 267 -232 c 0
 263 -232 255 -227 241 -212 c 0
 51 -6 45 125 45 209 c 0
 45 420 199 601 262 664 c 0
 268 670 274 673 277 673 c 0
 281 673 298 656 298 648 c 0
 298 641 288 635 265 609 c 0
 167 498 112 359 112 210 c 0
 112 90 157 -61 271 -185 c 0
 285 -200 293 -206 293 -211 c 0
EndSplineSet
Validated: 1
Layer: 2
SplineSet
305 -210 m 4
 305 -212 291 -226 279 -226 c 4
 275 -226 267 -221 253 -206 c 4
 63 0 37 131 37 215 c 4
 37 426 211 607 274 670 c 4
 280 676 286 679 289 679 c 4
 293 679 310 667 310 659 c 4
 310 652 300 646 277 620 c 4
 179 509 119 365 119 216 c 4
 119 96 169 -60 283 -184 c 4
 297 -199 305 -205 305 -210 c 4
EndSplineSet
EndChar

StartChar: parenright
Encoding: 41 41 61
Width: 338
VWidth: 0
Flags: W
VStem: 231 67<64.1188 344.225>
LayerCount: 3
Fore
SplineSet
50 -211 m 0
 50 -206 58 -200 72 -185 c 0
 186 -61 231 90 231 210 c 0
 231 359 176 498 78 609 c 0
 55 635 45 641 45 648 c 0
 45 656 62 673 66 673 c 0
 69 673 75 670 81 664 c 0
 144 601 298 420 298 209 c 0
 298 125 292 -6 102 -212 c 0
 88 -227 80 -232 76 -232 c 0
 64 -232 50 -213 50 -211 c 0
EndSplineSet
Validated: 1
EndChar

StartChar: bracketleft
Encoding: 91 91 62
Width: 295
VWidth: 0
Flags: HW
HStem: -216 38<134 284.994> 625 38<134 284.994>
VStem: 70 64<-184.003 631.003>
AnchorPoint: "l;hi2" 0 670 basechar 0
AnchorPoint: "l;bl" 0 10 basechar 0
AnchorPoint: "l;lo" 0 -200 basechar 0
AnchorPoint: "l;o" 0 200 basechar 0
AnchorPoint: "l;hi" 0 610 basechar 0
AnchorPoint: "l;x" 0 385 basechar 0
AnchorPoint: "r;hi2" 295 670 basechar 0
AnchorPoint: "r;bl" 255 10 basechar 0
AnchorPoint: "r;lo" 295 -200 basechar 0
AnchorPoint: "r;o" 255 200 basechar 0
AnchorPoint: "r;hi" 295 610 basechar 0
AnchorPoint: "r;x" 255 385 basechar 0
LayerCount: 3
Fore
SplineSet
134 -172 m 2
 134 -188 139 -184 154 -184 c 0
 180 -184 231 -180 266 -178 c 0
 274 -178 285 -179 285 -191 c 2
 285 -199 l 2
 285 -207 283 -216 275 -216 c 0
 224 -215 163 -214 117 -214 c 0
 88 -214 70 -211 70 -201 c 2
 70 648 l 2
 70 658 88 661 117 661 c 0
 163 661 224 662 275 663 c 0
 283 663 285 654 285 646 c 2
 285 638 l 2
 285 626 274 625 266 625 c 0
 231 627 180 631 154 631 c 0
 139 631 134 635 134 619 c 2
 134 -172 l 2
EndSplineSet
EndChar

StartChar: bracketright
Encoding: 93 93 63
Width: 295
VWidth: 0
Flags: HW
HStem: -216 38<10.006 161> 625 38<10.006 161>
VStem: 161 64<-183.9 630.9>
AnchorPoint: "l;x" 40 385 basechar 0
AnchorPoint: "l;hi" 0 610 basechar 0
AnchorPoint: "l;o" 40 200 basechar 0
AnchorPoint: "l;lo" 0 -200 basechar 0
AnchorPoint: "l;bl" 40 10 basechar 0
AnchorPoint: "l;hi2" 0 670 basechar 0
AnchorPoint: "r;x" 295 385 basechar 0
AnchorPoint: "r;hi" 295 610 basechar 0
AnchorPoint: "r;o" 295 200 basechar 0
AnchorPoint: "r;lo" 295 -200 basechar 0
AnchorPoint: "r;bl" 295 10 basechar 0
AnchorPoint: "r;hi2" 295 670 basechar 0
LayerCount: 3
Fore
SplineSet
161 -172 m 2
 161 619 l 2
 161 635 156 631 141 631 c 0
 115 631 64 627 29 625 c 0
 21 625 10 626 10 638 c 2
 10 646 l 2
 10 654 12 663 20 663 c 0
 71 662 132 661 178 661 c 0
 207 661 225 658 225 648 c 2
 225 -201 l 2
 225 -211 207 -214 178 -214 c 0
 132 -214 71 -215 20 -216 c 0
 12 -216 10 -207 10 -199 c 2
 10 -191 l 2
 10 -179 21 -178 29 -178 c 0
 64 -180 115 -184 141 -184 c 0
 156 -184 161 -188 161 -172 c 2
EndSplineSet
EndChar

StartChar: quoteleft
Encoding: 8216 8216 64
Width: 244
VWidth: 0
Flags: W
HStem: 398 95<105.162 179.805> 634 20G<161.5 166.5>
VStem: 52 52<460.5 571.951>
LayerCount: 3
Fore
SplineSet
52 492 m 0
 52 554 83 590 110 619 c 0
 140 652 160 654 163 654 c 0
 170 654 174 649 176 642 c 0
 179 633 174 627 166 620 c 0
 129 591 104 550 104 522 c 0
 104 503 115 493 143 493 c 0
 177 493 193 472 193 451 c 0
 193 426 169 398 128 398 c 0
 90 398 52 429 52 492 c 0
EndSplineSet
Validated: 1
EndChar

StartChar: quoteright
Encoding: 8217 8217 65
Width: 244
VWidth: 0
Flags: W
HStem: 398 21G<78.5 83.5> 559 95<65.1951 139.838>
VStem: 141 52<480.049 591.5>
LayerCount: 3
Fore
SplineSet
193 560 m 0
 193 498 162 462 135 433 c 0
 105 400 85 398 82 398 c 0
 75 398 71 403 69 410 c 0
 66 419 71 425 79 432 c 0
 116 461 141 502 141 530 c 0
 141 549 130 559 102 559 c 0
 68 559 52 580 52 601 c 0
 52 626 76 654 117 654 c 0
 155 654 193 623 193 560 c 0
EndSplineSet
Validated: 1
EndChar

StartChar: ampersand
Encoding: 38 38 66
Width: 660
VWidth: 0
Flags: W
HStem: -9 47<530.876 615.131> 0 61<182.788 278.74> 358 20G<414.5 603.5> 603 31<186.79 276.225>
VStem: 24 72<141.327 252.228> 104 54<478.039 574.237> 309 46<466.221 577.786>
DStem2: 226 420 159 377 0.661031 -0.750359<-115.692 -12.0236 30.3895 275.364 323.816 519.287> 226 420 247 398 0.828198 0.560435<-151.36 -79.588 5.0626 99.4615> 363 148 381 125 0.584739 0.811222<-95.7759 -8.13281 83.2305 219.046>
LayerCount: 3
Fore
SplineSet
250 61 m 0x7e
 307 61 363 148 363 148 c 1
 181 355 l 1
 181 355 96 306 96 204 c 0
 96 128 190 61 250 61 c 0x7e
234 603 m 0
 197 603 158 577 158 535 c 0
 158 489 226 420 226 420 c 1
 226 420 245 430 259 440 c 0
 287 461 309 485 309 530 c 0
 309 553 284 603 234 603 c 0
355 535 m 0
 355 452.8 286.718241318 421.830944791 247 398 c 1
 411 216 l 1
 438 253 l 2
 471 299 482 317 482 333 c 0
 482 344 474 351 464 355 c 0
 443 363 413 356 413 370 c 0
 413 373 414 376 415 378 c 1
 603 378 l 1
 604 376 605 373 605 370 c 0
 605 357 585 363 560 354 c 0
 546 349 538 339 523 322 c 0
 493 287 457 232 429 195 c 1
 463 148 513 38 582 38 c 0
 609 38 622 56 629 56 c 0
 637 56 643 48 643 42 c 0
 643 36 608 -9 546 -9 c 0xbe
 434 -9 402 94 381 125 c 1
 338 73 290 0 207 0 c 0
 109 0 24 75 24 174 c 0
 24 247 83 315 126 350 c 2
 159 377 l 1
 131 412 104 445 104 496 c 0
 104 573 156 634 235 634 c 0
 300 634 355 594 355 535 c 0
EndSplineSet
Validated: 1
Layer: 2
SplineSet
248 57 m 4x7e
 305 57 366 149 366 149 c 5
 181 359 l 5
 181 359 92 311 92 202 c 4
 92 126 188 57 248 57 c 4x7e
234 603 m 4
 197 603 155 575 155 533 c 4
 155 487 228 418 228 418 c 5
 228 418 247 428 261 438 c 4
 289 459 310 483 310 528 c 4
 310 551 284 603 234 603 c 4
163 377 m 5
 135 412 106 447 106 498 c 4
 106 575 156 634 235 634 c 4
 300 634 355 594 355 535 c 4
 355 502 343 475 326 455 c 4
 303 428 250 403 245 400 c 5
 413 214 l 5
 440 251 l 6
 470 292 482 317 482 332 c 4
 482 353 458 353 423 353 c 5
 423 378 l 5
 595 378 l 5
 595 353 l 5
 562 353 542 352 505 304 c 4
 468 257 465 248 427 197 c 5
 461 150 513 38 582 38 c 4
 609 38 622 56 629 56 c 4
 637 56 643 48 643 42 c 4
 643 36 608 -9 546 -9 c 4xbe
 434 -9 402 99 381 130 c 5
 338 78 290 0 207 0 c 4
 109 0 24 75 24 174 c 4
 24 247 86 312 128 348 c 6
 163 377 l 5
EndSplineSet
EndChar

StartChar: braceleft
Encoding: 123 123 67
Width: 295
Flags: HW
HStem: -214 27<217.288 281.994> 634 27<216.826 281.994>
VStem: 43 59<214.085 231.88> 124 64<-167.262 182.191 261.033 615.053>
AnchorPoint: "r;x" 255 385 basechar 0
AnchorPoint: "r;hi" 295 610 basechar 0
AnchorPoint: "r;o" 255 200 basechar 0
AnchorPoint: "r;lo" 295 -200 basechar 0
AnchorPoint: "r;bl" 255 10 basechar 0
AnchorPoint: "r;hi2" 295 670 basechar 0
AnchorPoint: "l;x" 0 385 basechar 0
AnchorPoint: "l;hi" 60 610 basechar 0
AnchorPoint: "l;o" 0 200 basechar 0
AnchorPoint: "l;lo" 60 -200 basechar 0
AnchorPoint: "l;bl" 20 10 basechar 0
AnchorPoint: "l;hi2" 60 670 basechar 0
LayerCount: 3
Fore
SplineSet
124 74 m 2
 124 248 43 192 43 223 c 0
 43 232 47 232 53 234 c 0
 75 240 124 237 124 368 c 2
 124 454 l 2
 124 563 127 604 160 633 c 0
 180 650 220 661 250 661 c 0
 281 661 282 661 282 647 c 0
 282 633 274 635 263 634 c 0
 236 631 188 633 188 537 c 2
 188 397 l 2
 188 289 181 249 118 230 c 0
 107 227 102 226 102 223 c 0
 102 220 107 220 118 216 c 0
 181 195 188 153 188 45 c 2
 188 -90 l 2
 188 -186 236 -184 263 -187 c 0
 274 -188 282 -186 282 -200 c 0
 282 -214 281 -214 250 -214 c 0
 201 -214 161 -189 150 -176 c 0
 126 -146 124 -106 124 -11 c 2
 124 74 l 2
EndSplineSet
EndChar

StartChar: g.ld
Encoding: 65537 -1 96
Width: 403
VWidth: 0
Flags: MW
HStem: -285 28<64.8 216.282> 88 23<120.358 179.163> 380 26<169.95 233.152>
VStem: -51 59<-220.024 -117.8> 29 70<140.367 292.317> 48 42<9 71.7016> 252 68<192.667 333.467> 277 68<-209.519 -120.851>
LayerCount: 3
Fore
SplineSet
200 380 m 0xfa
 147 380 99 268 99 189 c 0
 99 145 114 111 151 111 c 0
 207 111 252 219 252 298 c 0
 252 341 242 380 200 380 c 0xfa
142 -257 m 0
 203 -257 277 -233 277 -165 c 0xf1
 277 -114 218 -96 112 -47 c 1
 98 -55 82 -64 65 -76 c 0
 35 -96 8 -124 8 -167 c 0
 8 -231 72 -257 142 -257 c 0
114 93 m 0
 104 93 101 85 95 75 c 0
 92 69 90 62 90 53 c 0
 90 25 140 12 224 -26 c 0
 262 -43 345 -75 345 -149 c 0
 345 -233 243 -285 129 -285 c 0
 37 -285 -51 -244 -51 -172 c 0
 -51 -96 61 -54 92 -37 c 1
 58 -21 48 -1 48 19 c 0
 48 47 79 88 90 101 c 1xf5
 47 130 29 172 29 216 c 0
 29 308 94 406 194 406 c 0
 239 406 267 391 296 352 c 1
 296 352 322 381 365 381 c 0
 397 381 412 362 412 343 c 0
 412 323 398 304 377 304 c 0
 348 304 349 341 324 341 c 0
 316 341 309 328 309 328 c 1
 313 316 320 293 320 265 c 0xfa
 320 177 258 88 156 88 c 0
 127 88 116 93 114 93 c 0
EndSplineSet
Layer: 2
SplineSet
201 379 m 4xea80
 142 379 116 313 116 249 c 4
 116 184 143 118 200 118 c 4
 256 118 281 183 281 248 c 4
 281 313 256 379 201 379 c 4xea80
124 -58 m 5
 96 -79 76 -114 76 -142 c 4
 76 -185 113 -225 198 -225 c 4
 279 -225 350 -190 350 -133 c 4xe440
 350 -114 340 -92 320 -80 c 4
 294 -64 250 -60 163 -60 c 4
 152 -60 154 -60 124 -58 c 5
18 -193 m 4
 18 -134 75 -74 95 -56 c 5
 58 -52 36 -30 36 2 c 4xf1
 36 62 106 115 106 115 c 5
 76 130 35 174 35 243 c 4
 35 327 110 404 204 404 c 4xea
 249 404 285 390 310 367 c 5
 336 393 369 405 396 405 c 4
 425 405 447 392 447 367 c 4
 447 348 430 330 411 330 c 4
 386 330 373 368 348 368 c 4
 340 368 332 363 325 352 c 5
 349 323 362 285 362 247 c 4
 362 170 309 97 200 97 c 4
 150 97 133 105 128 105 c 4
 116 105 96 79 96 50 c 4xf180
 96 14 113 7 191 7 c 4
 282 6 326 -3 339 -9 c 4
 372 -24 398 -55 398 -102 c 4
 398 -213 256 -281 147 -281 c 4
 75 -281 18 -256 18 -193 c 4
201 379 m 0xea80
 142 379 116 313 116 249 c 0
 116 184 143 118 200 118 c 0
 256 118 281 183 281 248 c 0
 281 313 256 379 201 379 c 0xea80
124 -57 m 1
 96 -78 76 -114 76 -142 c 0
 76 -185 113 -225 198 -225 c 0
 279 -225 350 -190 350 -133 c 0xe440
 350 -89 318 -59 163 -59 c 0
 152 -59 154 -59 124 -57 c 1
36 2 m 0xf1
 36 62 106 115 106 115 c 1
 76 130 35 174 35 243 c 0
 35 327 110 404 204 404 c 0xea
 249 404 285 390 310 367 c 1
 336 393 369 405 396 405 c 0
 425 405 447 392 447 367 c 0
 447 348 430 330 411 330 c 0
 386 330 373 368 348 368 c 0
 340 368 332 363 325 352 c 1
 349 323 362 285 362 247 c 0
 362 170 309 97 200 97 c 0
 150 97 133 105 128 105 c 0
 115 105 96 73 96 44 c 0xf180
 96 15 119 6 162 5 c 0
 266 3 398 18 398 -102 c 0
 398 -213 256 -281 147 -281 c 0
 75 -281 18 -256 18 -193 c 0xf440
 18 -134 74 -76 94 -58 c 1
 57 -54 36 -30 36 2 c 0xf1
EndSplineSet
EndChar

StartChar: j.ld
Encoding: 65538 -1 97
Width: 267
VWidth: 0
Flags: W
HStem: -281 21<4.5 21> 392 20<95.5 150.5> 568 93<65.2803 145.557>
VStem: 57 96<576.49 653.508> 79 77<-128.421 341.22>
LayerCount: 3
Fore
SplineSet
162 589 m 4xf0
 162 613 182 633 206 633 c 4
 230 633 250 613 250 589 c 4
 250 565 230 546 206 546 c 4
 182 546 162 565 162 589 c 4xf0
-98 -185 m 4
 -45 -185 -43 -252 -20 -252 c 4
 6 -252 23 -214 44 -142 c 4
 86 6 169 339 169 346 c 4
 169 355 165 361 156 361 c 4
 134 361 81 296 55 263 c 4
 46 252 41 245 35 245 c 4
 31 245 27 247 27 253 c 4
 27 276 123 408 215 408 c 4
 234 408 242 397 242 385 c 4xe8
 242 364 173 103 124 -88 c 4
 103 -167 98 -207 21 -258 c 4
 -6 -276 -35 -282 -60 -282 c 4
 -115 -282 -141 -252 -141 -225 c 4
 -141 -201 -121 -185 -98 -185 c 4
EndSplineSet
EndChar

StartChar: p.ld
Encoding: 65539 -1 98
Width: 446
VWidth: 0
Flags: W
HStem: -270 21G<16.5 224.5> -13 29<198.028 292.568> 363 41<204.723 301.507> 392 20G<88.5 143.5>
VStem: 77 77<-245.761 12 49.6366 334.742> 362 84<102.097 293.237>
LayerCount: 3
Fore
SplineSet
154 329 m 5
 82.7442306553 300.92954541 24.9403442959 235 15 235 c 4
 12 235 8 238 8 243 c 4
 8 269 111 334 160 357 c 5
 189 467 l 6
 192 477 196 478 204 478 c 6
 230 478 l 6
 250 478 251 474 251 468 c 4
 251 464 228 381 228 381 c 5
 276 397 310 404 341 404 c 4
 391 404 428 378 428 292 c 4
 428 142 321 -8 215 -8 c 4
 165 -8 136 16 136 16 c 5
 92 -148 l 6
 83 -180 77 -207 77 -222 c 4
 77 -264 164 -239 164 -262 c 4
 164 -265 163 -268 162 -270 c 5
 -74 -270 l 5
 -75 -268 -76 -265 -76 -262 c 4
 -76 -246 -33 -258 -7 -239 c 4
 4 -231 7 -214 9 -208 c 6
 154 329 l 5
216 17 m 4
 278.06875 17 359 160.4765625 359 269 c 4
 359 324 337 367 281 367 c 4
 248 367 221 354 221 354 c 5
 197 263 160 136 160 82 c 4
 160 58 170 17 216 17 c 4
EndSplineSet
EndChar

StartChar: q.ld
Encoding: 65540 -1 99
Width: 428
VWidth: 0
Flags: W
HStem: -270 21G<250.5 458.5> -14 35<180.425 304.893> 377 27<169.231 268.573>
VStem: 25 84<96.1264 294.589> 321 77<-245.761 12 34.1356 341.394>
LayerCount: 3
Fore
SplineSet
92 -13 m 4
 39 -13 13 26 13 72 c 4
 13 133 68 216 123 285 c 4
 176 351 235 404 285 404 c 4
 316 404 327 369 337 318 c 5
 358 393 l 6
 361 403 366 404 374 404 c 6
 399 404 l 6
 413 404 420 404 420 396 c 4
 420 393 418 383 417 380 c 6
 274 -148 l 6
 265 -180 259 -207 259 -222 c 4
 259 -264 346 -239 346 -262 c 4
 346 -265 345 -268 344 -270 c 5
 108 -270 l 5
 107 -268 106 -265 106 -262 c 4
 106 -246 149 -258 175 -239 c 4
 186 -231 189 -214 191 -208 c 6
 277 110 l 6
 280 121 283 127 283 129 c 5
 282 130 l 5
 278 130 241 69 205 38 c 4
 163 2 134 -13 92 -13 c 4
259 364 m 4
 182 364 84 153 84 87 c 4
 84 61 94 29 133 29 c 4
 197 29 322 197 322 288 c 4
 322 322 299 364 259 364 c 4
EndSplineSet
EndChar

StartChar: y.ld
Encoding: 65541 -1 100
Width: 434
VWidth: 0
Flags: W
HStem: -282 81<41.2939 111.118> 373 20G<16.5 216.5 309.5 478.5>
VStem: 376 104<337 386.5>
LayerCount: 3
Fore
SplineSet
-17 -282 m 0xb8
 -59 -282 -90 -257 -90 -219 c 0
 -90 -192 -71 -172 -44 -172 c 0
 -1 -172 5 -227 30 -227 c 0
 65 -227 181 -108 181 35 c 0
 181 121 163 348 111 348 c 0
 66 348 54 230 38 230 c 0
 29 230 25 238 25 250 c 0
 25 296 82 406 141 406 c 0xd8
 154 406 195 402 210 334 c 0
 232 238 234 122 234 71 c 0
 234 51 233 40 233 36 c 0
 233 34 233 33 234 33 c 0
 237 33 248 57 261 83 c 0
 291 142 314 235 321 259 c 0
 352 367 328 399 367 399 c 2
 377 399 l 2
 403 399 409 398 409 384 c 0
 409 333 271 -18 125 -189 c 0
 104 -214 47 -282 -17 -282 c 0xb8
EndSplineSet
EndChar

StartChar: quotesinglbase
Encoding: 8218 8218 101
Width: 306
VWidth: 0
Flags: W
HStem: 6 95<95.1951 169.838>
VStem: 171 52<-72.9509 38.5>
LayerCount: 3
Fore
SplineSet
223 7 m 0
 223 -55 192 -91 165 -120 c 0
 135 -153 115 -155 112 -155 c 0
 105 -155 101 -150 99 -143 c 0
 96 -134 101 -128 109 -121 c 0
 146 -92 171 -51 171 -23 c 0
 171 -4 160 6 132 6 c 0
 98 6 82 27 82 48 c 0
 82 73 106 101 147 101 c 0
 185 101 223 70 223 7 c 0
EndSplineSet
Validated: 1
EndChar

StartChar: quotereversed
Encoding: 8219 8219 102
Width: 244
VWidth: 0
Flags: W
HStem: 398 21G<161.5 166.5> 559 95<105.162 179.805>
VStem: 52 52<480.049 591.5>
LayerCount: 3
Fore
SplineSet
52 560 m 0
 52 623 90 654 128 654 c 0
 169 654 193 626 193 601 c 0
 193 580 177 559 143 559 c 0
 115 559 104 549 104 530 c 0
 104 502 129 461 166 432 c 0
 174 425 179 419 176 410 c 0
 174 403 170 398 163 398 c 0
 160 398 140 400 110 433 c 0
 83 462 52 498 52 560 c 0
EndSplineSet
Validated: 1
EndChar

StartChar: quotedblleft
Encoding: 8220 8220 103
Width: 426
VWidth: 0
Flags: W
HStem: 398 95<105.162 179.805 300.162 374.805> 634 20G<161.5 166.5 356.5 361.5>
VStem: 52 52<460.5 571.951> 247 52<460.5 571.951>
LayerCount: 3
Fore
SplineSet
247 492 m 0
 247 554 278 590 305 619 c 0
 335 652 355 654 358 654 c 0
 365 654 369 649 371 642 c 0
 374 633 369 627 361 620 c 0
 324 591 299 550 299 522 c 0
 299 503 310 493 338 493 c 0
 372 493 388 472 388 451 c 0
 388 426 364 398 323 398 c 0
 285 398 247 429 247 492 c 0
52 492 m 0
 52 554 83 590 110 619 c 0
 140 652 160 654 163 654 c 0
 170 654 174 649 176 642 c 0
 179 633 174 627 166 620 c 0
 129 591 104 550 104 522 c 0
 104 503 115 493 143 493 c 0
 177 493 193 472 193 451 c 0
 193 426 169 398 128 398 c 0
 90 398 52 429 52 492 c 0
EndSplineSet
Validated: 1
EndChar

StartChar: quotedblright
Encoding: 8221 8221 104
Width: 420
VWidth: 0
Flags: W
HStem: 398 21G<78.5 83.5 273.5 278.5> 559 95<65.1951 139.838 260.195 334.838>
VStem: 141 52<480.049 591.5> 336 52<480.049 591.5>
LayerCount: 3
Fore
SplineSet
193 560 m 0
 193 498 162 462 135 433 c 0
 105 400 85 398 82 398 c 0
 75 398 71 403 69 410 c 0
 66 419 71 425 79 432 c 0
 116 461 141 502 141 530 c 0
 141 549 130 559 102 559 c 0
 68 559 52 580 52 601 c 0
 52 626 76 654 117 654 c 0
 155 654 193 623 193 560 c 0
388 560 m 0
 388 498 357 462 330 433 c 0
 300 400 280 398 277 398 c 0
 270 398 266 403 264 410 c 0
 261 419 266 425 274 432 c 0
 311 461 336 502 336 530 c 0
 336 549 325 559 297 559 c 0
 263 559 247 580 247 601 c 0
 247 626 271 654 312 654 c 0
 350 654 388 623 388 560 c 0
EndSplineSet
Validated: 1
EndChar

StartChar: quotedblbase
Encoding: 8222 8222 105
Width: 420
VWidth: 0
Flags: W
HStem: 6 95<65.1951 139.838 260.195 334.838>
VStem: 141 52<-72.9509 38.5> 336 52<-72.9509 38.5>
LayerCount: 3
Fore
SplineSet
193 7 m 0
 193 -55 162 -91 135 -120 c 0
 105 -153 85 -155 82 -155 c 0
 75 -155 71 -150 69 -143 c 0
 66 -134 71 -128 79 -121 c 0
 116 -92 141 -51 141 -23 c 0
 141 -4 130 6 102 6 c 0
 68 6 52 27 52 48 c 0
 52 73 76 101 117 101 c 0
 155 101 193 70 193 7 c 0
388 7 m 0
 388 -55 357 -91 330 -120 c 0
 300 -153 280 -155 277 -155 c 0
 270 -155 266 -150 264 -143 c 0
 261 -134 266 -128 274 -121 c 0
 311 -92 336 -51 336 -23 c 0
 336 -4 325 6 297 6 c 0
 263 6 247 27 247 48 c 0
 247 73 271 101 312 101 c 0
 350 101 388 70 388 7 c 0
EndSplineSet
Validated: 1
EndChar

StartChar: uni201F
Encoding: 8223 8223 106
Width: 420
VWidth: 0
Flags: W
HStem: 398 21G<161.5 166.5 356.5 361.5> 559 95<105.162 179.805 300.162 374.805>
VStem: 52 52<480.049 591.5> 247 52<480.049 591.5>
LayerCount: 3
Fore
SplineSet
247 560 m 0
 247 623 285 654 323 654 c 0
 364 654 388 626 388 601 c 0
 388 580 372 559 338 559 c 0
 310 559 299 549 299 530 c 0
 299 502 324 461 361 432 c 0
 369 425 374 419 371 410 c 0
 369 403 365 398 358 398 c 0
 355 398 335 400 305 433 c 0
 278 462 247 498 247 560 c 0
52 560 m 0
 52 623 90 654 128 654 c 0
 169 654 193 626 193 601 c 0
 193 580 177 559 143 559 c 0
 115 559 104 549 104 530 c 0
 104 502 129 461 166 432 c 0
 174 425 179 419 176 410 c 0
 174 403 170 398 163 398 c 0
 160 398 140 400 110 433 c 0
 83 462 52 498 52 560 c 0
EndSplineSet
Validated: 1
EndChar

StartChar: emdash
Encoding: 8212 8212 107
Width: 700
VWidth: 0
Flags: W
HStem: 172 53<5 694.986>
LayerCount: 3
Fore
SplineSet
21 225 m 2
 682 225 l 2
 695 225 695 217 695 208 c 2
 695 195 l 2
 695 187 693 172 682 172 c 2
 18 172 l 2
 7 172 5 177 5 191 c 2
 5 207 l 2
 5 220 10 225 21 225 c 2
EndSplineSet
Validated: 1
EndChar

StartChar: endash
Encoding: 8211 8211 108
Width: 450
VWidth: 0
Flags: W
HStem: 172 53<5 444.986>
LayerCount: 3
Fore
SplineSet
21 225 m 2
 432 225 l 2
 445 225 445 217 445 208 c 2
 445 195 l 2
 445 187 443 172 432 172 c 2
 18 172 l 2
 7 172 5 177 5 191 c 2
 5 207 l 2
 5 220 10 225 21 225 c 2
EndSplineSet
Validated: 1
EndChar

StartChar: afii00208
Encoding: 8213 8213 109
Width: 700
VWidth: 0
Flags: W
HStem: 172 53<5 694.986>
LayerCount: 3
Fore
SplineSet
21 225 m 2
 682 225 l 2
 695 225 695 217 695 208 c 2
 695 195 l 2
 695 187 693 172 682 172 c 2
 18 172 l 2
 7 172 5 177 5 191 c 2
 5 207 l 2
 5 220 10 225 21 225 c 2
EndSplineSet
Validated: 1
EndChar

StartChar: bullet
Encoding: 8226 8226 110
Width: 472
VWidth: 1050
Flags: W
HStem: 184 268<162.778 307.222>
VStem: 101 268<246.483 390.222>
LayerCount: 3
Fore
SplineSet
101 318 m 0
 101 392 161 452 235 452 c 0
 309 452 369 393 369 319 c 0
 369 245 309 184 235 184 c 0
 161 184 101 244 101 318 c 0
EndSplineSet
Validated: 1
EndChar

StartChar: daggerdbl
Encoding: 8225 8225 111
Width: 562
VWidth: 0
Flags: W
HStem: -220 21G<268.5 314> 40 89<97.2002 228.435 356.069 487.343> 324 89<82.2002 225.873 350.405 482.343> 624 20G<267.5 317>
VStem: 247 91<-219.629 19.9136 394.529 643.856> 256 74<101.977 346.438> 273 39<-126.511 66 384 534.324>
LayerCount: 3
Fore
SplineSet
338 -199 m 0xf8
 338 -219 324 -220 304 -220 c 2
 286 -220 l 2
 251 -220 247 -219 247 -201 c 0xf8
 247 -190 273 67 273 67 c 1
 273 67 123 40 115 40 c 0
 99 40 97 54 97 67 c 2
 97 102 l 2
 97 115 100 129 114 129 c 0
 115 129 273 99 273 99 c 1xf2
 260 159 256 196 256 228 c 0
 256 261 260 294 270 349 c 1
 270 349 110 324 100 324 c 0
 84 324 82 338 82 351 c 2
 82 386 l 2
 82 399 85 413 99 413 c 0
 100 413 270 384 270 384 c 1
 270 384 244 627 244 630 c 0
 244 643 255 644 280 644 c 2
 304 644 l 2
 330 644 340 643 340 630 c 0
 340 629 315 384 315 384 c 1
 315 384 452 412 465 412 c 0
 482 412 483 398 483 375 c 2
 483 359 l 2
 483 342 481 324 465 324 c 0
 441 324 315 349 315 349 c 1
 326 295 330 259 330 228 c 0xf4
 330 195 325 163 312 99 c 1
 312 99 460 128 470 128 c 0
 487 128 488 115 488 92 c 2
 488 75 l 2
 488 58 486 39 470 39 c 0
 452 39 312 66 312 66 c 1xf2
 338 -196 338 -193 338 -199 c 0xf8
EndSplineSet
Validated: 1
EndChar

StartChar: dagger
Encoding: 8224 8224 112
Width: 554
VWidth: 0
Flags: W
HStem: -220 21G<248.5 295.5> 324 89<62.2002 205.873 335.87 482.343> 624 20G<247.5 297>
VStem: 227 91<-219.618 45.6052 394.529 643.856> 250 45<145.646 349 384 586.72>
LayerCount: 3
Fore
SplineSet
62 351 m 2xe8
 62 386 l 2
 62 399 65 413 79 413 c 0
 80 413 250 384 250 384 c 1
 250 384 224 627 224 630 c 0
 224 643 235 644 260 644 c 2
 284 644 l 2
 310 644 320 643 320 630 c 0
 320 629 295 384 295 384 c 1
 295 384 452 412 465 412 c 0
 482 412 483 398 483 375 c 2
 483 359 l 2
 483 342 481 324 465 324 c 0
 441 324 295 349 295 349 c 1xe8
 295 349 318 -197 318 -198 c 0
 318 -218 307 -220 284 -220 c 2
 266 -220 l 2
 231 -220 227 -219 227 -201 c 0xf0
 227 -176 250 349 250 349 c 1
 250 349 90 324 80 324 c 0
 64 324 62 338 62 351 c 2xe8
EndSplineSet
Validated: 1
EndChar

StartChar: bar
Encoding: 124 124 113
Width: 186
VWidth: 0
Flags: HW
HStem: -217 21G<89.5 96.5> 644 20G<89 96>
VStem: 70 46<-216.988 663.974>
AnchorPoint: "l;hi2" 0 670 basechar 0
AnchorPoint: "l;bl" 0 10 basechar 0
AnchorPoint: "l;lo" 0 -200 basechar 0
AnchorPoint: "l;o" 0 200 basechar 0
AnchorPoint: "l;hi" 0 610 basechar 0
AnchorPoint: "l;x" 0 385 basechar 0
AnchorPoint: "r;hi2" 186 670 basechar 0
AnchorPoint: "r;bl" 186 10 basechar 0
AnchorPoint: "r;lo" 186 -200 basechar 0
AnchorPoint: "r;o" 186 200 basechar 0
AnchorPoint: "r;hi" 186 610 basechar 0
AnchorPoint: "r;x" 186 385 basechar 0
LayerCount: 3
Fore
SplineSet
116 -214 m 1
 108 -216 100 -217 93 -217 c 0
 86 -217 78 -216 70 -214 c 1
 70 661 l 1
 79 663 86 664 92 664 c 0
 100 664 107 663 116 661 c 1
 116 -214 l 1
EndSplineSet
EndChar

StartChar: braceright
Encoding: 125 125 114
Width: 295
Flags: HW
HStem: -214 27<13.0058 77.7125> 634 27<13.0058 78.174>
VStem: 107 64<-167.262 182.191 261.033 615.053> 193 59<214.085 231.88>
AnchorPoint: "r;hi2" 235 670 basechar 0
AnchorPoint: "r;bl" 275 10 basechar 0
AnchorPoint: "r;lo" 235 -200 basechar 0
AnchorPoint: "r;o" 295 200 basechar 0
AnchorPoint: "r;hi" 235 610 basechar 0
AnchorPoint: "r;x" 295 385 basechar 0
AnchorPoint: "l;hi2" 0 670 basechar 0
AnchorPoint: "l;bl" 40 10 basechar 0
AnchorPoint: "l;lo" 0 -200 basechar 0
AnchorPoint: "l;o" 40 200 basechar 0
AnchorPoint: "l;hi" 0 610 basechar 0
AnchorPoint: "l;x" 40 385 basechar 0
LayerCount: 3
Fore
SplineSet
171 74 m 2
 171 -11 l 2
 171 -106 169 -146 145 -176 c 0
 134 -189 94 -214 45 -214 c 0
 14 -214 13 -214 13 -200 c 0
 13 -186 21 -188 32 -187 c 0
 59 -184 107 -186 107 -90 c 2
 107 45 l 2
 107 153 114 195 177 216 c 0
 188 220 193 220 193 223 c 0
 193 226 188 227 177 230 c 0
 114 249 107 289 107 397 c 2
 107 537 l 2
 107 633 59 631 32 634 c 0
 21 635 13 633 13 647 c 0
 13 661 14 661 45 661 c 0
 75 661 115 650 135 633 c 0
 168 604 171 563 171 454 c 2
 171 368 l 2
 171 237 220 240 242 234 c 0
 248 232 252 232 252 223 c 0
 252 192 171 248 171 74 c 2
EndSplineSet
EndChar

StartChar: OE
Encoding: 338 338 115
Width: 1021
VWidth: 0
Flags: HW
HStem: -22 33<306.507 463.518> 0 27<569.012 900.666> 308 21<701.026 772.181> 609 27<567.563 859.364> 622 32<299.12 445.541>
VStem: 40 109<195.728 436.303> 602 96<185.446 307.985 329 450.964> 813 21<195.003 254.875 384.055 455.997> 963 13<130.056 136.763>
AnchorPoint: "l;o" 0 200 basechar 0
AnchorPoint: "l;hi" 50 610 basechar 0
AnchorPoint: "l;x" 0 385 basechar 0
AnchorPoint: "l;bl" 50 10 basechar 0
AnchorPoint: "r;o" 1021 200 basechar 0
AnchorPoint: "r;hi" 1001 610 basechar 0
AnchorPoint: "r;x" 1001 385 basechar 0
AnchorPoint: "r;bl" 1021 10 basechar 0
LayerCount: 3
Fore
SplineSet
370 622 m 0xaf80
 215 622 149 458 149 330 c 0
 149 186 217 11 384 11 c 0
 470 11 602 59 602 303 c 0
 602 518 490 622 370 622 c 0xaf80
434 -17 m 0
 415 -20 396 -22 377 -22 c 0
 207 -22 40 96 40 325 c 0
 40 468 148 654 367 654 c 0xaf80
 387 654 407 653 426 650 c 0
 519 637 482 636 576 636 c 2
 815 636 l 2
 863 636 904 640 914 640 c 0
 930 640 923 629 934 562 c 0
 938 535 943 509 943 496 c 0
 943 489 939 488 936 487 c 0
 928 484 923 494 922 495 c 0
 907 517 865 609 839 609 c 0
 755 609 671 609 587 609 c 0
 574 609 566 609 566 605 c 0
 566 602 570 597 582 588 c 0
 641 542 684 473 696 376 c 0
 702 332 698 329 720 329 c 2
 732 329 l 2
 810 329 807 411 813 447 c 0
 814 455 816 456 824 456 c 0
 832 456 834 455 834 447 c 0
 834 434 829 403 829 321 c 0
 829 239 834 217 834 204 c 0
 834 196 832 195 824 195 c 0
 816 195 814 196 813 204 c 0
 807 240 804 308 732 308 c 2
 722 308 l 2
 703 308 700 306 698 282 c 0
 689 179 647 102 587 52 c 0
 575 42 569 37 569 33 c 0
 569 28 585 27 592 27 c 2
 865 27 l 2
 902 27 906 41 963 139 c 0
 965 143 968 147 974 145 c 0
 980 143 981 143 981 137 c 0
 981 132 979 123 976 110 c 0
 961 41 957 0 944 0 c 2
 550 0 l 2x7780
 478 0 518 -3 434 -17 c 0
EndSplineSet
EndChar

StartChar: AE
Encoding: 198 198 116
Width: 859
VWidth: 0
Flags: HW
HStem: 0 27<613.091 738.666> 240 36<228.001 416.999> 308 21<506.079 610.181> 609 27<389.007 697.364>
VStem: 34 115<8 60.5> 651 21<195.003 254.875 384.055 455.997> 801 13<130.056 136.763>
DStem2: 119 79 164 114 0.344393 0.938826<-12.5623 187.311 228.301 498.92> 394 582 334 512 0.364745 -0.931108<16.6066 280.292 326.805 534.393>
AnchorPoint: "r;o" 859 200 basechar 0
AnchorPoint: "r;hi" 839 610 basechar 0
AnchorPoint: "r;x" 839 385 basechar 0
AnchorPoint: "r;bl" 859 10 basechar 0
AnchorPoint: "l;bl" 0 10 basechar 0
AnchorPoint: "l;x" 80 385 basechar 0
AnchorPoint: "l;hi" 130 610 basechar 0
AnchorPoint: "l;o" 50 200 basechar 0
LayerCount: 3
Fore
SplineSet
342 636 m 2
 653 636 l 2
 701 636 742 640 752 640 c 0
 768 640 761 629 772 562 c 0
 776 535 781 509 781 496 c 0
 781 489 777 488 774 487 c 0
 766 484 761 494 760 495 c 0
 745 517 703 609 677 609 c 2
 409 609 l 2
 398 609 389 607 389 599 c 0
 389 596 390 590 394 582 c 2
 482 356 l 2
 492 331 500 329 509 329 c 2
 570 329 l 2
 648 329 645 411 651 447 c 0
 652 455 654 456 662 456 c 0
 670 456 672 455 672 447 c 0
 672 434 667 403 667 321 c 0
 667 239 672 217 672 204 c 0
 672 196 670 195 662 195 c 0
 654 195 652 196 651 204 c 0
 645 240 642 308 570 308 c 2
 519 308 l 2
 513 308 506 308 506 298 c 0
 506 295 507 290 509 284 c 0
 580 100 570 123 593 74 c 0
 612 32 620 27 665 27 c 2
 703 27 l 2
 740 27 744 41 801 139 c 0
 803 143 806 147 812 145 c 0
 818 143 819 143 819 137 c 0
 819 132 817 123 814 110 c 0
 799 41 795 0 782 0 c 2
 421 0 l 1
 420 2 418 6 418 10 c 0
 418 35 498 5 498 48 c 0
 498 65 493 94 441 223 c 0
 435 239 433 240 420 240 c 2
 224 240 l 2
 212 240 210 239 205 226 c 2
 164 114 l 2
 153 85 149 67 149 54 c 0
 149 44 151 38 155 34 c 0
 173 15 263 33 263 10 c 0
 263 6 262 2 261 0 c 1
 37 0 l 1
 36 2 34 6 34 10 c 0
 34 29 71 11 96 38 c 0
 104 46 112 60 119 79 c 0
 198 275 286 528 322 622 c 0
 327 635 334 636 342 636 c 2
310 512 m 2
 234 304 l 2
 231 296 228 286 228 282 c 0
 228 279 229 276 235 276 c 2
 402 276 l 2
 416 276 417 277 417 280 c 0
 417 283 417 287 415 293 c 2
 334 512 l 2
 327 532 324 536 322 536 c 0
 320 536 317 532 310 512 c 2
EndSplineSet
EndChar

StartChar: oe
Encoding: 339 339 117
Width: 718
VWidth: 0
Flags: HW
HStem: -13 58<471.239 603.477> -13 28<170.524 275.175> 251 21<420 597.015> 376 28<183.008 279.595 471.482 567.515>
VStem: 25 88<91.6263 288.9> 341 71<108.394 251> 600 81<272.88 337.101>
AnchorPoint: "r;o" 718 200 basechar 0
AnchorPoint: "r;x" 698 385 basechar 0
AnchorPoint: "r;bl" 698 10 basechar 0
AnchorPoint: "l;o" 0 200 basechar 0
AnchorPoint: "l;x" 30 385 basechar 0
AnchorPoint: "l;bl" 30 10 basechar 0
LayerCount: 3
Fore
SplineSet
228 376 m 0x7e
 162 376 113 306 113 194 c 0
 113 96 134 15 222 15 c 0
 314 15 341 103 341 194 c 0
 341 328 292 376 228 376 c 0x7e
520 379 m 0
 490 379 434 358 420 272 c 1
 547 272 l 2
 599 272 600 275 600 291 c 0
 600 333 571 379 520 379 c 0
522 404 m 0
 656 404 681 296 681 279 c 0
 681 251 680 251 593 251 c 2
 416 251 l 1
 413 234 412 218 412 202 c 0
 412 113 454 45 548 45 c 0
 575 45 629 48 670 107 c 1
 676 105 684 99 686 94 c 1
 655 29 591 -13 515 -13 c 0xbe
 426 -13 393 34 374 59 c 1
 374 59 335 -13 222 -13 c 0
 120 -13 25 51 25 196 c 0
 25 305 107 404 235 404 c 0
 351 404 382 334 382 334 c 1
 382 334 421 404 522 404 c 0
EndSplineSet
EndChar

StartChar: ae
Encoding: 230 230 118
Width: 626
VWidth: 0
Flags: HW
HStem: -13 58<381.955 511.477> -13 40<101.5 217.615> 251 21<328 505.015> 369 35<135.198 228.493> 379 25<384.83 467.018>
VStem: 32 75<255.858 336.696> 38 85<34.394 121.629> 248 72<108.422 187 203.22 251> 508 81<272.88 337.101>
AnchorPoint: "r;o" 626 200 basechar 0
AnchorPoint: "r;x" 606 385 basechar 0
AnchorPoint: "r;bl" 606 10 basechar 0
AnchorPoint: "l;o" 0 200 basechar 0
AnchorPoint: "l;x" 20 385 basechar 0
AnchorPoint: "l;bl" 0 10 basechar 0
LayerCount: 3
Fore
SplineSet
250 187 m 1x6380
 241 184 217 178 193 167 c 0
 159 151 123 133 123 81 c 0
 123 51 141 27 167 27 c 0
 173 27 203 32 228 47 c 0
 242 56 261 77 263 98 c 1
 255 127 251 156 250 187 c 1x6380
320 202 m 0
 320 142 339 92 381 65 c 0
 382 65 382 64 383 64 c 0
 403 52 427 45 456 45 c 0
 483 45 537 48 578 107 c 1
 584 105 592 99 594 94 c 1
 563 29 499 -13 423 -13 c 0xad80
 371 -13 322 6 282 63 c 1
 274 49 256 25 218 7 c 0
 196 -3 166 -13 126 -13 c 0
 77 -13 38 16 38 71 c 0x6380
 38 125 96 168 248 209 c 1
 248 252 l 2
 248 325 245 369 177 369 c 0
 133 369 107 350 107 333 c 0
 107 328 112 314 112 296 c 0
 112 265 95 250 75 250 c 0
 54 250 32 266 32 297 c 0
 32 346 141 404 216 404 c 0x7580
 264 404 292 381 308 352 c 1
 329 375 382 404 430 404 c 0x2d80
 564 404 589 296 589 279 c 0
 589 251 588 251 501 251 c 2
 324 251 l 1
 320 235 320 207 320 202 c 0
428 379 m 0
 398 379 342 358 328 272 c 1
 455 272 l 2
 507 272 508 275 508 291 c 0
 508 333 479 379 428 379 c 0
EndSplineSet
EndChar

StartChar: zero
Encoding: 48 48 119
Width: 474
VWidth: 0
Flags: W
HStem: -13 30<183.804 278.758> 354 32<176.817 276.722>
VStem: 38 79<89.3917 285.684> 340 83<91.5936 286.457>
LayerCount: 3
Fore
SplineSet
423 190 m 0
 423 56 326 -13 228 -13 c 0
 132 -13 38 52 38 191 c 0
 38 321 134 386 231 386 c 0
 328 386 423 324 423 190 c 0
117 190 m 0
 117 74 173 17 232 17 c 0
 288 17 340 71 340 181 c 0
 340 297 288 354 226 354 c 0
 166 354 117 298 117 190 c 0
EndSplineSet
Validated: 1
EndChar

StartChar: slash
Encoding: 47 47 120
Width: 308
VWidth: 488
Flags: W
HStem: -224 21G<11.5 27.302> 644 20G<281.721 296.5>
DStem2: -28 -207 20 -224 0.342955 0.939352<-1.56927 929.742>
LayerCount: 3
Fore
SplineSet
-28 -207 m 1
 289 664 l 1
 304 664 333 654 338 647 c 1
 20 -224 l 1
 3 -222 -20 -213 -28 -207 c 1
EndSplineSet
Validated: 1
EndChar

StartChar: one
Encoding: 49 49 121
Width: 239
VWidth: 0
Flags: W
HStem: 0 17<34.0204 74.2824 169.194 208.98> 360 17<34.0204 74.2824 169.194 208.98>
VStem: 83 77<18.6086 358.391>
LayerCount: 3
Fore
SplineSet
83 315 m 2
 83 357 69 358 51 360 c 0
 41 361 34 361 34 369 c 0
 34 372 35 375 36 377 c 1
 207 377 l 1
 208 375 209 372 209 369 c 0
 209 362 202 361 193 360 c 0
 175 358 160 357 160 315 c 2
 160 62 l 2
 160 20 175 19 193 17 c 0
 202 16 209 15 209 8 c 0
 209 5 208 2 207 0 c 1
 36 0 l 1
 35 2 34 5 34 8 c 0
 34 16 41 16 51 17 c 0
 69 19 83 20 83 62 c 2
 83 315 l 2
EndSplineSet
Validated: 1
EndChar

StartChar: two
Encoding: 50 50 122
Width: 356
VWidth: 0
Flags: W
HStem: -0 64<131.004 300.966> 333 53<104.35 197.329>
VStem: 216 72<227.476 314.107>
LayerCount: 3
Fore
SplineSet
147 333 m 0
 117 333 94 316 79 316 c 0
 71 316 68 323 67 330 c 0
 67 333 66 334 70 339 c 0
 88 361 142 386 180 386 c 0
 239 386 288 360 288 300 c 0
 288 231 227 172 202 145 c 0
 168 109 131 71 131 68 c 0
 131 64 137 64 148 64 c 2
 258 64 l 2
 291 64 290 66 299 74 c 0
 305 80 311 83 315 83 c 0
 321 83 324 78 324 72 c 0
 324 68 323 63 320 58 c 2
 298 16 l 2
 290 1 287 0 276 0 c 2
 73 -0 l 2
 58 0 58 0 55 9 c 0
 54 13 53 15 53 18 c 0
 53 25 63 35 74 47 c 0
 150 129 216 192 216 258 c 0
 216 303 189 333 147 333 c 0
EndSplineSet
Validated: 1
EndChar

StartChar: three
Encoding: 51 51 123
Width: 356
VWidth: 0
Flags: W
HStem: -213 48<83.2748 175.625> 335 51<103.976 203.402>
VStem: 231 62<221.056 306.893> 242 70<-78.5092 36.8873>
LayerCount: 3
Fore
SplineSet
98 -142 m 0xd0
 126 -142 134 -165 151 -165 c 0
 169 -165 184 -150 198 -138 c 0
 227 -112 242 -74 242 -30 c 0xd0
 242 52 176 77 140 83 c 0
 130 85 112 86 112 100 c 0
 112 108 123 115 139 125 c 0
 204 168 231 203 231 256 c 0
 231 281 204 335 154 335 c 0
 103 335 89 313 77 313 c 0
 71 313 67 317 65 323 c 0
 63 328 63 329 67 335 c 0
 82 358 138 386 180 386 c 0
 236 386 293 357 293 293 c 0xe0
 293 232 254 193 202 145 c 1
 226 136 312 91 312 0 c 0
 312 -55 281 -102 241 -140 c 0
 199 -180 154 -213 102 -213 c 0
 81 -213 62 -199 62 -179 c 0
 62 -157 76 -142 98 -142 c 0xd0
EndSplineSet
Validated: 1
EndChar

StartChar: four
Encoding: 52 52 124
Width: 514
VWidth: 0
Flags: W
HStem: -215 21G<298.5 331.5> 0 64<80 278 348 472.778> 361 20G<305 340.5>
VStem: 278 70<-214.697 0 64 311>
LayerCount: 3
Fore
SplineSet
80 64 m 1
 278 64 l 1
 278 311 l 1
 228 269 127 137 80 64 c 1
351 344 m 2
 351 250 348 273 348 108 c 2
 348 64 l 1
 446 64 l 2
 472 64 473 63 473 32 c 0
 473 2 470 0 448 0 c 2
 348 0 l 1
 348 -139 l 2
 348 -177 350 -197 350 -203 c 0
 350 -213 346 -215 317 -215 c 0
 280 -215 273 -213 273 -195 c 2
 278 0 l 1
 81 0 l 2
 54 0 41 0 41 34 c 0
 41 42 43 55 46 61 c 0
 111 175 279 381 331 381 c 0
 350 381 351 368 351 352 c 2
 351 344 l 2
EndSplineSet
Validated: 1
EndChar

StartChar: five
Encoding: 53 53 125
Width: 398
VWidth: 0
Flags: W
HStem: -213 44<80 171.402> 307 70<146.32 316.645>
VStem: 83 50<156.5 247.548> 226 63<-78.5699 55.3902>
LayerCount: 3
Fore
SplineSet
286 307 m 2
 167 307 l 2
 160 307 153 310 149 295 c 0
 144 275 133 246 133 229 c 0
 133 210 163 209 204 179 c 0
 236 156 289 97 289 13 c 0
 289 -32 273 -84 230 -138 c 0
 185 -193 142 -213 97 -213 c 0
 63 -213 40 -199 40 -175 c 0
 40 -157 50 -136 80 -136 c 0
 112 -136 119 -169 136 -169 c 0
 168 -169 226 -114 226 -26 c 0
 226 40 201 89 99 132 c 0
 84 138 83 151 83 162 c 0
 83 181 106 238 130 354 c 0
 133 370 142 377 162 377 c 2
 294 377 l 2
 308 377 306 398 321 398 c 0
 328 398 336 392 336 384 c 0
 336 372 333 375 319 335 c 0
 311 312 306 307 286 307 c 2
EndSplineSet
Validated: 1
EndChar

StartChar: six
Encoding: 54 54 126
Width: 478
VWidth: 0
Flags: W
HStem: -13 27<200.044 287.868> 333 31<181.443 289.641>
VStem: 53 80<101.471 285.883> 344 83<83.3259 267.988>
LayerCount: 3
Fore
SplineSet
252 364 m 0
 392 364 427 241 427 171 c 0
 427 84 364 -13 247 -13 c 0
 133 -13 53 82 53 198 c 0
 53 318 141 425 218 500 c 0
 266 548 326 582 340 582 c 0
 349 582 355 570 355 565 c 0
 355 558 349 554 340 548 c 0
 319 534 280 501 256 474 c 0
 222 436 188 384 166 340 c 1
 166 340 193 364 252 364 c 0
232 333 m 0
 156 333 133 257 133 189 c 0
 133 98 168 14 248 14 c 0
 317 14 344 105 344 180 c 0
 344 252 323 333 232 333 c 0
EndSplineSet
Validated: 1
EndChar

StartChar: seven
Encoding: 55 55 127
Width: 398
VWidth: 0
Flags: W
HStem: -211 21G<126.5 142> 309 70<91.9951 293>
VStem: 30 16<270.077 285.458>
LayerCount: 3
Fore
SplineSet
72 400 m 2
 74 405 76 406 81 406 c 0
 96 406 101 379 128 379 c 2
 323 379 l 2
 333 379 339 375 339 367 c 0
 339 344 263 157 216 18 c 0
 139 -210 149 -211 135 -211 c 0
 118 -211 86 -211 86 -201 c 0
 86 -196 233 145 293 309 c 1
 85 309 l 2
 77 309 69 309 46 274 c 0
 44 272 42 270 39 270 c 0
 35 270 30 273 30 277 c 1
 30 277 33 293 48 333 c 2
 72 400 l 2
EndSplineSet
Validated: 1
EndChar

StartChar: eight
Encoding: 56 56 128
Width: 400
VWidth: 0
Flags: W
HStem: -13 23<155.197 243.093> 568 28<145.169 255.751>
VStem: 40 58<66.7599 218.891 399.762 509.665> 298 60<75.1789 198.408 393.721 534.076>
LayerCount: 3
Fore
SplineSet
210 596 m 0
 286 596 359 543 359 467 c 0
 359 378 262 318 262 318 c 1
 262 318 358 262 358 164 c 0
 358 74 296 -13 200 -13 c 0
 111 -13 40 57 40 146 c 0
 40 244 142 286 142 286 c 1
 142 286 44 341 44 436 c 0
 44 532 118 596 210 596 c 0
164 274 m 1
 164 274 98 232 98 154 c 0
 98 86 126 10 198 10 c 0
 264 10 298 68 298 130 c 0
 298 238 164 274 164 274 c 1
198 568 m 0
 145 568 98 529 98 476 c 0
 98 352 226 332 226 332 c 1
 226 332 304 350 304 462 c 0
 304 538 254 568 198 568 c 0
EndSplineSet
Validated: 1
EndChar

StartChar: nine
Encoding: 57 57 129
Width: 456
VWidth: 0
Flags: W
HStem: -218 21G<126 134> 0 27<189.488 282.977> 357 29<182.94 273.153>
VStem: 44 80<104.794 286.291> 342 72<80.9559 272.975>
LayerCount: 3
Fore
SplineSet
131 -218 m 0
 121 -218 120 -211 120 -206 c 0
 120 -199 125 -199 139 -186 c 0
 169 -159 195 -132 221 -100 c 0
 245 -69 285 -16 303 22 c 1
 272 4 254 0 223 0 c 0
 79 0 44 138 44 202 c 0
 44 295 122 386 231 386 c 0
 346 386 414 274 414 175 c 0
 414 -17 238 -145 166 -200 c 0
 146 -215 137 -218 131 -218 c 0
230 357 m 0
 153 357 124 268 124 188 c 0
 124 90 171 27 234 27 c 0
 261 27 293 38 315 71 c 0
 335 102 342 152 342 190 c 0
 342 268 300 357 230 357 c 0
EndSplineSet
Validated: 1
EndChar

StartChar: .notdef
Encoding: 65542 -1 130
Width: 425
VWidth: 0
Flags: W
HStem: -56 40<110.54 183.46> 74 45<133.935 156.897> 305 221<124.003 263.43> 606 66<134.732 265.049> 639 33<106.47 138.679>
VStem: 29 103<119.021 284.633> 29 95<119.021 305> 29 73<-8.69897 66.699 526 638.992> 192 204<-8.69897 66.699> 342 54<268.678 507.291>
LayerCount: 3
Fore
SplineSet
29 672 m 25xe940
 396 672 l 25
 396 -56 l 25
 29 -56 l 25
 29 672 l 25xe940
124 526 m 2xea40
 178 526 l 2
 307 526 313 432 313 398 c 2
 313 390 l 2
 313 332 301 305 238 305 c 2
 144 305 l 2
 128 305 124 297 124 286 c 0xea40
 124 257 131 218 132 149 c 0
 132 148 134 119 146 119 c 0
 154 119 159 134 165 206 c 0
 167 228 175 223 275 237 c 0
 320 244 342 289 342 380 c 0
 342 445 328 492 312 526 c 0
 278 601 220 606 165 606 c 0xf440
 151 606 152 607 142 619 c 0
 134 628 127 639 119 639 c 0
 112 639 104 628 104 598 c 0
 104 547 111 526 124 526 c 2xea40
102 29 m 0xe180
 102 5 123 -16 147 -16 c 0
 171 -16 192 5 192 29 c 0
 192 53 171 74 147 74 c 0
 123 74 102 53 102 29 c 0xe180
EndSplineSet
Validated: 1
EndChar

StartChar: minute
Encoding: 8242 8242 131
Width: 208
VWidth: 0
Flags: W
HStem: 396 259<36 130>
VStem: 24 63<429.884 480.496>
LayerCount: 3
Fore
SplineSet
24 408 m 4
 24 422 40 466 48 488 c 4
 77 573 79 655 130 655 c 4
 138 655 160 651 160 625 c 4
 160 586 115 526 87 473 c 4
 57 416 52 396 36 396 c 4
 26 396 24 403 24 408 c 4
EndSplineSet
Validated: 1
EndChar

StartChar: second
Encoding: 8243 8243 132
Width: 308
VWidth: 0
Flags: W
HStem: 399 256<124 236>
VStem: 24 54<423.057 518.375>
LayerCount: 3
Fore
SplineSet
24 409 m 0
 24 422 56 584 67 625 c 0
 72 645 89 655 109 655 c 0
 130 655 143 636 143 623 c 0
 143 599 104 532 78 474 c 16
 57 428 50 399 35 399 c 0
 29 399 24 403 24 409 c 0
118 412 m 0
 118 424 132 462 146 492 c 16
 181 568 187 654 236 654 c 0
 257 654 268 644 268 627 c 0
 268 601 246 572 184 475 c 0
 151 425 144 400 129 400 c 0
 124 400 118 401 118 412 c 0
EndSplineSet
Validated: 1
EndChar

StartChar: quotesingle
Encoding: 39 39 133
Width: 224
VWidth: 0
Flags: W
HStem: 400 255<94.3909 135.288>
VStem: 74 84<422.75 648.85> 87 57<401.856 604.587>
LayerCount: 3
Fore
SplineSet
120 655 m 0xc0
 149 655 158 633 158 606 c 0xc0
 158 576 149 537 144 492 c 0
 138 430 140 400 112 400 c 0
 95 400 92 419 87 491 c 0xa0
 83 547 74 579 74 607 c 0
 74 650 108 655 120 655 c 0xc0
EndSplineSet
Validated: 1
EndChar

StartChar: quotedbl
Encoding: 34 34 134
Width: 372
VWidth: 0
Flags: W
HStem: 400 255<94.3909 135.288 244.391 285.288>
VStem: 74 84<422.75 648.85> 87 57<401.856 604.587> 224 84<422.75 648.85> 237 57<401.856 604.587>
LayerCount: 3
Fore
SplineSet
270 655 m 0x90
 299 655 308 633 308 606 c 0x90
 308 576 299 537 294 492 c 0
 288 430 290 400 262 400 c 0
 245 400 242 419 237 491 c 0x88
 233 547 224 579 224 607 c 0
 224 650 258 655 270 655 c 0x90
120 655 m 0
 149 655 158 633 158 606 c 0xc0
 158 576 149 537 144 492 c 0
 138 430 140 400 112 400 c 0
 95 400 92 419 87 491 c 0xa0
 83 547 74 579 74 607 c 0xc0
 74 650 108 655 120 655 c 0
EndSplineSet
Validated: 1
EndChar

StartChar: uni2053
Encoding: 8275 8275 135
Width: 996
VWidth: 0
Flags: W
HStem: 107 53<661.48 798.721> 279 60<199.812 332.709>
VStem: 60 32<109.738 160.929> 904 32<293.083 334.625>
LayerCount: 3
Fore
SplineSet
60 113 m 1
 60 113 101 339 291 339 c 0
 470 339 607 160 752 160 c 0
 861 160 904 338 904 338 c 1
 914 338 928 336 936 332 c 1
 920 253 857 107 708 107 c 0
 523 107 386 279 236 279 c 0
 118 279 92 106 92 106 c 1
 80 106 71 107 60 113 c 1
EndSplineSet
Validated: 1
EndChar

StartChar: fraction
Encoding: 8260 8260 137
Width: 512
VWidth: 488
Flags: W
DStem2: -19.5 -47 14.5 -71 0.574282 0.818657<-3.40338 902.449>
LayerCount: 3
Fore
SplineSet
-19.5 -47 m 1
 497.5 690 l 1
 508.833333333 685.226648664 521 679 531.5 666 c 1
 14.5 -71 l 1
 0.298482792474 -68.1589108294 -10.6918299882 -59.5419307049 -19.5 -47 c 1
EndSplineSet
Validated: 1
EndChar

StartChar: guilsinglleft
Encoding: 8249 8249 138
Width: 280
Flags: W
HStem: 52 298<230 244>
VStem: 38 208
LayerCount: 3
Fore
SplineSet
136 201 m 1
 187 155 246 77 246 61 c 0
 246 56 244 52 238 52 c 0
 230 52 230 54 182 94 c 0
 112 153 38 195 38 201 c 0
 38 207 112 249 182 308 c 0
 230 348 230 350 238 350 c 0
 244 350 246 346 246 341 c 0
 246 325 187 247 136 201 c 1
EndSplineSet
Validated: 1
EndChar

StartChar: guilsinglright
Encoding: 8250 8250 139
Width: 280
Flags: W
HStem: 52 298<40 54>
VStem: 38 208
LayerCount: 3
Fore
SplineSet
148 201 m 1
 97 247 38 325 38 341 c 0
 38 346 40 350 46 350 c 0
 54 350 54 348 102 308 c 0
 172 249 246 207 246 201 c 0
 246 195 172 153 102 94 c 0
 54 54 54 52 46 52 c 0
 40 52 38 56 38 61 c 0
 38 77 97 155 148 201 c 1
EndSplineSet
Validated: 1
EndChar

StartChar: guillemotright
Encoding: 187 187 140
Width: 460
Flags: W
HStem: 52 298<40 54 210 224>
LayerCount: 3
Fore
SplineSet
148 201 m 1
 97 247 38 325 38 341 c 0
 38 346 40 350 46 350 c 0
 54 350 54 348 102 308 c 0
 172 249 246 207 246 201 c 0
 246 195 172 153 102 94 c 0
 54 54 54 52 46 52 c 0
 40 52 38 56 38 61 c 0
 38 77 97 155 148 201 c 1
318 201 m 1
 267 247 208 325 208 341 c 0
 208 346 210 350 216 350 c 0
 224 350 224 348 272 308 c 0
 342 249 416 207 416 201 c 0
 416 195 342 153 272 94 c 0
 224 54 224 52 216 52 c 0
 210 52 208 56 208 61 c 0
 208 77 267 155 318 201 c 1
EndSplineSet
Validated: 1
EndChar

StartChar: ordmasculine
Encoding: 186 186 141
Width: 486
VWidth: 0
Flags: W
HStem: 414 17<209.148 272.362> 648 17<217.313 274.515>
VStem: 111 64<464.56 607.627> 311 64<469.816 616.09>
LayerCount: 3
Fore
SplineSet
375 542 m 0
 375 469 320 414 240 414 c 0
 173 414 111 453 111 540 c 0
 111 605 165 665 248 665 c 0
 332 665 375 610 375 542 c 0
244 648 m 0
 204 648 175 606 175 539 c 0
 175 480 187 431 240 431 c 0
 295 431 311 484 311 539 c 0
 311 619 282 648 244 648 c 0
EndSplineSet
Validated: 1
EndChar

StartChar: guillemotleft
Encoding: 171 171 142
Width: 468
Flags: W
HStem: 52 298<230 244 400 414>
LayerCount: 3
Fore
SplineSet
306 201 m 1
 357 155 416 77 416 61 c 0
 416 56 414 52 408 52 c 0
 400 52 400 54 352 94 c 0
 282 153 208 195 208 201 c 0
 208 207 282 249 352 308 c 0
 400 348 400 350 408 350 c 0
 414 350 416 346 416 341 c 0
 416 325 357 247 306 201 c 1
136 201 m 1
 187 155 246 77 246 61 c 0
 246 56 244 52 238 52 c 0
 230 52 230 54 182 94 c 0
 112 153 38 195 38 201 c 0
 38 207 112 249 182 308 c 0
 230 348 230 350 238 350 c 0
 244 350 246 346 246 341 c 0
 246 325 187 247 136 201 c 1
EndSplineSet
Validated: 1
EndChar

StartChar: logicalnot
Encoding: 172 172 143
Width: 579
VWidth: 0
Flags: W
HStem: 228 46<59.0264 463>
VStem: 463 47<37 228>
LayerCount: 3
Fore
SplineSet
62 228 m 1
 60 236 59 244 59 252 c 0
 59 260 60 268 62 274 c 1
 510 274 l 1
 510 37 l 1
 504 36 495 35 487 35 c 0
 479 35 470 36 463 37 c 1
 463 228 l 1
 62 228 l 1
EndSplineSet
Validated: 1
EndChar

StartChar: backslash
Encoding: 92 92 144
Width: 308
VWidth: 488
Flags: W
HStem: -224 21G<278.698 294.5> 644 20G<9.5 24.279>
DStem2: 17 664 -32 647 0.342955 -0.939352<-2.84978 928.461>
LayerCount: 3
Fore
SplineSet
334 -207 m 1
 326 -213 303 -222 286 -224 c 1
 -32 647 l 1
 -27 654 2 664 17 664 c 1
 334 -207 l 1
EndSplineSet
Validated: 1
EndChar

StartChar: underscore
Encoding: 95 95 145
Width: 450
VWidth: 0
Flags: W
HStem: -78 53<25 424.986>
LayerCount: 3
Fore
SplineSet
41 -25 m 2
 412 -25 l 2
 425 -25 425 -33 425 -42 c 2
 425 -55 l 2
 425 -63 423 -78 412 -78 c 2
 38 -78 l 2
 27 -78 25 -73 25 -59 c 2
 25 -43 l 2
 25 -30 30 -25 41 -25 c 2
EndSplineSet
Validated: 1
EndChar

StartChar: asciicircum
Encoding: 94 94 146
Width: 402
VWidth: 0
Flags: W
HStem: 311 320
VStem: 41 324
DStem2: 209 631 201 533 0.438202 -0.898876<84.5843 344.906>
LayerCount: 3
Fore
SplineSet
41 311 m 1
 197 631 l 1
 199 632 201 632 203 632 c 0
 205 632 207 632 209 631 c 1
 365 311 l 1
 355 309 345 308 334 308 c 0
 324 308 314 309 303 311 c 1
 201 533 l 1
 103 311 l 1
 91 309 84 308 70 308 c 0
 59 308 50 309 41 311 c 1
EndSplineSet
Validated: 1
EndChar

StartChar: numbersign
Encoding: 35 35 147
Width: 429
VWidth: 0
Flags: W
HStem: 235 36<20.0229 112 165 237 289 407.927> 344 36<21.0117 142 195 268 320 409.931>
VStem: 178 42<20.013 49.0339>
DStem2: 53 24 96 24 0.268273 0.963343<1.69696 219.093 267.992 332.146 381.045 583.441> 183.394 20 225.394 20 0.241922 0.970296<12.7369 221.582 269.093 334.844 382.354 382.354 576.648 582.452>
LayerCount: 3
Fore
SplineSet
53 24 m 1
 112 235 l 1
 24 235 l 1
 22 241 20 247 20 254 c 0
 20 259 21 265 24 271 c 1
 122 271 l 1
 142 344 l 1
 24 344 l 1
 22 350 21 355 21 361 c 0
 21 367 22 374 24 380 c 1
 152 380 l 1
 207 577 l 1
 214 580 221 581 228 581 c 0
 236 581 243 580 250 577 c 1
 195 380 l 1
 278 380 l 1
 333 577 l 1
 340 580 347 581 353 581 c 0
 360 581 367 579 375 577 c 1
 320 380 l 1
 406 380 l 1
 409 375 410 369 410 364 c 0
 410 357 408 351 406 344 c 1
 310 344 l 1
 289 271 l 1
 405 271 l 1
 407 266 408 261 408 256 c 0
 408 249 407 242 405 235 c 1
 279 235 l 1
 220 24 l 1
 213 22 207 20 200 20 c 0
 194 20 188 21 178 24 c 1
 237 235 l 1
 155 235 l 1
 96 24 l 1
 88 22 80 20 71 20 c 0
 65 20 59 21 53 24 c 1
165 271 m 1
 247 271 l 1
 268 344 l 1
 185 344 l 1
 165 271 l 1
EndSplineSet
Validated: 1
EndChar

StartChar: asterisk
Encoding: 42 42 148
Width: 455
VWidth: 0
Flags: W
HStem: 429 58<195.674 212 244.078 260.488> 644 20G<218 239>
VStem: 183 84<267.169 386.359 545.429 656.058> 195 67<444.557 467.078> 212 28<367.208 426.981 487.139 533.725>
LayerCount: 3
Fore
SplineSet
44 376 m 0xc8
 44 429 195 439 195 456 c 0xd0
 195 482 45 469 45 535 c 0
 45 566 76 575 84 575 c 0
 118 575 192 487 212 487 c 0xc8
 216 487 216 491 216 496 c 0
 216 522 185 599 185 615 c 0
 185 646 207 664 229 664 c 0
 249 664 273 652 273 609 c 0
 273 587 244 512 244 490 c 0
 244 485 245 483 249 483 c 0
 270 483 330 571 372 571 c 0
 395 571 411 557 411 539 c 0
 411 470 262 476 262 456 c 0xd0
 262 433 402 435 402 372 c 0
 402 354 392 336 370 336 c 0
 325 336 258 427 245 427 c 0
 244 427 240 426 240 416 c 0xc8
 240 390 267 327 267 303 c 0
 267 278 247 261 226 261 c 0
 205 261 183 279 183 300 c 0xe0
 183 323 212 408 212 425 c 0
 212 427 212 429 210 429 c 0
 196 429 126 339 80 339 c 0
 55 339 44 362 44 376 c 0xc8
EndSplineSet
Validated: 1
EndChar

StartChar: less
Encoding: 60 60 149
Width: 761
VWidth: 10
Flags: W
DStem2: 120 214 203 206 0.902342 0.431021<71.4462 564.291> 203 206 120 197 0.903023 -0.429593<0 491.893>
LayerCount: 3
Fore
SplineSet
120 214 m 1
 635 460 l 1
 639 451 640 444 640 435 c 0
 640 426 639 418 635 409 c 1
 203 206 l 1
 635 4 l 1
 637 -5 639 -13 639 -23 c 0
 639 -31 638 -39 635 -48 c 1
 120 197 l 1
 119 199 118 202 118 206 c 0
 118 209 119 212 120 214 c 1
EndSplineSet
Validated: 1
EndChar

StartChar: equal
Encoding: 61 61 150
Width: 784
VWidth: 0
Flags: W
HStem: 116 45<147.026 636.993> 249 45<147.047 635.996>
LayerCount: 3
Fore
SplineSet
150 116 m 1
 148 123 147 130 147 137 c 0
 147 145 148 153 150 161 c 1
 634 161 l 1
 636 154 637 147 637 139 c 0
 637 131 636 124 634 116 c 1
 150 116 l 1
150 249 m 1
 148 256 147 262 147 269 c 0
 147 278 148 285 150 294 c 1
 634 294 l 1
 636 287 636 281 636 274 c 0
 636 265 636 258 634 249 c 1
 150 249 l 1
EndSplineSet
Validated: 1
EndChar

StartChar: greater
Encoding: 62 62 151
Width: 761
VWidth: 0
Flags: W
DStem2: 123 460 123 409 0.902342 -0.431021<6.44602 499.291> 123 4 123 -48 0.903023 0.429593<-14.8056 476.884>
LayerCount: 3
Fore
SplineSet
638 214 m 1
 639 212 640 209 640 206 c 0
 640 202 639 199 638 197 c 1
 123 -48 l 1
 120 -39 119 -31 119 -23 c 0
 119 -13 121 -5 123 4 c 1
 555 206 l 1
 123 409 l 1
 119 418 118 426 118 435 c 0
 118 444 119 451 123 460 c 1
 638 214 l 1
EndSplineSet
Validated: 1
EndChar

StartChar: plus
Encoding: 43 43 152
Width: 621
VWidth: 0
Flags: W
HStem: 197 46<57.0066 282 321 543>
VStem: 278 47<-22 200 240 464.982>
LayerCount: 3
Fore
SplineSet
60 197 m 1
 58 205 57 212 57 220 c 0
 57 228 58 235 60 243 c 1
 259 243 282 240 282 240 c 1
 282 240 278 251 278 462 c 1
 286 464 294 465 301 465 c 0
 310 465 317 464 325 462 c 1
 325 251 321 240 321 240 c 1
 321 240 345 243 543 243 c 1
 545 236 545 230 545 223 c 0
 545 214 544 206 543 197 c 1
 345 197 321 200 321 200 c 1
 321 200 325 176 325 -22 c 1
 320 -23 312 -24 304 -24 c 0
 294 -24 284 -23 278 -22 c 1
 278 176 282 200 282 200 c 1
 282 200 259 197 60 197 c 1
EndSplineSet
Validated: 1
EndChar

StartChar: minus
Encoding: 8722 8722 153
Width: 624
VWidth: 0
Flags: W
HStem: 198 46<57.0519 532.973>
LayerCount: 3
Fore
SplineSet
62 198 m 1
 59 206 57 213 57 220 c 0
 57 228 59 236 62 244 c 1
 529 244 l 1
 532 237 533 229 533 222 c 0
 533 214 532 206 529 198 c 1
 62 198 l 1
EndSplineSet
Validated: 1
EndChar

StartChar: plusminus
Encoding: 177 177 154
Width: 587
VWidth: 0
Flags: W
HStem: 22 47<59.0519 519.973> 271 47<61.0264 270 310 519.973>
VStem: 266 48<100 274 314 491.911>
LayerCount: 3
Fore
SplineSet
64 22 m 1
 61 30 59 38 59 46 c 0
 59 54 61 61 64 69 c 1
 516 69 l 1
 519 61 520 54 520 46 c 0
 520 38 519 30 516 22 c 1
 64 22 l 1
64 271 m 1
 62 279 61 286 61 294 c 0
 61 302 62 310 64 318 c 1
 238 318 270 314 270 314 c 1
 270 314 266 347 266 489 c 1
 273 491 280 492 288 492 c 0
 299 492 310 490 314 489 c 1
 314 354 310 314 310 314 c 1
 310 314 350 318 516 318 c 1
 519 310 520 302 520 294 c 0
 520 286 519 279 516 271 c 1
 341 271 310 274 310 274 c 1
 310 274 314 243 314 100 c 1
 308 99 301 98 293 98 c 0
 285 98 276 99 266 100 c 1
 266 242 270 274 270 274 c 1
 270 274 238 271 64 271 c 1
EndSplineSet
Validated: 1
EndChar

StartChar: divide
Encoding: 247 247 155
Width: 582
VWidth: 0
Flags: W
HStem: 47 97<256.336 335.002> 198 46<57.0519 532.973> 298 97<256.336 335.002>
VStem: 247 97<55.9979 134.664 307.336 386.002>
CounterMasks: 1 e0
LayerCount: 3
Fore
SplineSet
62 198 m 1
 59 206 57 213 57 220 c 0
 57 228 59 236 62 244 c 1
 529 244 l 1
 532 237 533 229 533 222 c 0
 533 214 532 206 529 198 c 1
 62 198 l 1
247 95 m 0
 247 121 270 144 296 144 c 0
 322 144 344 121 344 95 c 0
 344 69 322 47 296 47 c 0
 270 47 247 69 247 95 c 0
247 347 m 0
 247 373 270 395 296 395 c 0
 322 395 344 373 344 347 c 0
 344 321 322 298 296 298 c 0
 270 298 247 321 247 347 c 0
EndSplineSet
Validated: 1
EndChar

StartChar: multiply
Encoding: 215 215 156
Width: 464
VWidth: 0
Flags: W
HStem: 373 20G<76.5 101.245 370.503 397>
DStem2: 82 393 48 360 0.708141 -0.706071<-1.99096 220.553 260.917 484.435> 48 52 82 19 0.708141 0.706071<-2.18343 221.329 261.693 484.487>
LayerCount: 3
Fore
SplineSet
48 52 m 1
 207 206 l 1
 48 360 l 1
 59 377 71 387 82 393 c 1
 235 234 l 1
 390 393 l 1
 404 386 417 370 423 360 c 1
 264 206 l 1
 423 52 l 1
 415 35 403 26 390 19 c 1
 235 178 l 1
 82 19 l 1
 64 26 54 39 48 52 c 1
EndSplineSet
Validated: 1
EndChar

StartChar: cent
Encoding: 162 162 157
Width: 427
VWidth: 0
Flags: W
HStem: -13 58<168.753 287.183> 379 25<178.037 230>
VStem: 27 79<109.66 293.65>
DStem2: 62 -179 97 -188 0.27881 0.960346<0.234166 193.241 276.394 575.836 614.436 894.211>
LayerCount: 3
Fore
SplineSet
370 94 m 1
 324 6 247 -13 209 -13 c 0
 192 -13 170 -10 148 -3 c 1
 97 -188 l 1
 85 -188 74 -186 62 -179 c 1
 121 8 l 1
 72 34 27 88 27 197 c 0
 27 316 107 404 234 404 c 0
 235 404 236 404 237 404 c 2
 312 674 l 1
 318 675 325 676 331 676 c 0
 339 676 346 674 353 670 c 1
 268 401 l 1
 333 391 370 355 370 325 c 0
 370 310 356 289 334 289 c 0
 292 289 284 339 257 364 c 1
 168 64 l 1
 190 50 214 45 235 45 c 0
 282 45 319 64 354 108 c 1
 363 104 367 100 370 94 c 1
144 85 m 1
 229 374 l 1
 230 378 l 1
 227 378 224 379 221 379 c 0
 163 379 106 322 106 217 c 0
 106 153 122 111 144 85 c 1
EndSplineSet
Validated: 1
EndChar

StartChar: sterling
Encoding: 163 163 158
Width: 435
VWidth: 0
Flags: W
HStem: -13 40<293.031 363.073> 100 25<128 209.387> 251 31<25.0255 134 202 323.943> 631 33<243.664 324.382>
VStem: 125 83<283.93 536.078> 134 68<282 394.993> 338 80<532.329 622.376> 370 45<34.5897 109.84>
LayerCount: 3
Fore
SplineSet
17 25 m 0xf5
 17 76 92 96 120 115 c 1
 135 131 141 190 141 219 c 0
 141 221 139 235 138 251 c 1
 27 251 l 1
 26 256 25 260 25 265 c 0
 25 271 26 278 27 282 c 1
 134 282 l 1xf5
 130 323 125 375 125 396 c 0
 125 577 206 664 309 664 c 0
 365 664 418 624 418 573 c 0
 418 545 400 526 380 526 c 0
 362 526 345 538 338 575 c 0
 332 603 328 631 286 631 c 0
 254 631 207 605 207 521 c 0
 207 494 208 448 208 361 c 0xfa
 208 334 205 305 202 282 c 1
 322 282 l 1
 323 278 324 274 324 269 c 0
 324 263 323 257 322 251 c 1
 197 251 l 1
 181 174 153 122 153 122 c 1
 153 122 158 125 165 125 c 0
 251 125 281 27 334 27 c 0
 355 27 370 50 370 71 c 0
 370 104 330 113 330 146 c 0
 330 163 342 183 361 183 c 0
 393 183 415 139 415 100 c 0
 415 40 367 -13 296 -13 c 0
 233 -13 217 28 185 69 c 0
 168 90 156 100 145 100 c 0
 111 100 111 -11 51 -11 c 0
 31 -11 17 6 17 25 c 0xf5
EndSplineSet
Validated: 1
EndChar

StartChar: currency
Encoding: 164 164 159
Width: 489
Flags: W
HStem: -16 20G<32 46 423.5 435> 26 50<164.625 303.201> 332 47<165.442 301.85>
VStem: 58 51<131.401 274.404> 360 52<132.711 273.782>
DStem2: 67 406 32 371 0.706152 -0.70806<-30.5846 90.4581 432.397 554.618> 32 35 67 -0 0.706152 0.70806<-30.6985 90.9199 432.146 553.893>
LayerCount: 3
Fore
SplineSet
15 8 m 0
 15 19 24 27 32 35 c 2
 93 97 l 1
 71 127 58 164 58 204 c 0
 58 243 70 280 92 309 c 1
 32 371 l 2
 30 373 15 384 15 398 c 0
 15 412 27 422 39 422 c 0
 50 422 59 414 67 406 c 2
 129 344 l 1
 158 366 195 379 234 379 c 0
 276 379 312 365 340 344 c 1
 402 406 l 2
 404 408 415 422 429 422 c 0
 443 422 454 410 454 398 c 0
 454 387 445 379 437 371 c 2
 375 308 l 1
 397 278 412 242 412 202 c 0
 412 163 397 127 375 98 c 1
 437 35 l 2
 439 33 454 22 454 8 c 0
 454 -6 441 -17 429 -17 c 0
 418 -17 410 -8 402 -0 c 2
 340 62 l 1
 311 40 274 26 234 26 c 0
 195 26 158 39 129 61 c 1
 67 -0 l 2
 65 -2 53 -16 39 -16 c 0
 25 -16 15 -4 15 8 c 0
109 202 m 0
 109 131 166 76 234 76 c 0
 302 76 360 133 360 203 c 0
 360 272 303 332 234 332 c 0
 164 332 109 272 109 202 c 0
EndSplineSet
Validated: 1
EndChar

StartChar: exclamdown
Encoding: 161 161 160
Width: 324
VWidth: 0
Flags: W
HStem: -15 21G<143.5 189.5> 544 96<131.332 210.668>
VStem: 114 102<-13.8292 185.018> 123 96<552.332 631.668> 155 38<198.191 439.93>
LayerCount: 3
Fore
SplineSet
176 440 m 0xc8
 191 440 191 431 193 378 c 0xc8
 212 7 216 17 216 6 c 0xe0
 216 -10 207 -15 172 -15 c 2
 155 -15 l 2xc8
 132 -15 114 -13 114 5 c 0xe0
 114 19 131 125 155 378 c 0
 161 435 163 440 176 440 c 0xc8
219 592 m 0xd0
 219 566 197 544 171 544 c 0
 145 544 123 566 123 592 c 0
 123 618 145 640 171 640 c 0
 197 640 219 618 219 592 c 0xd0
EndSplineSet
Validated: 1
EndChar

StartChar: questiondown
Encoding: 191 191 161
Width: 352
VWidth: 0
Flags: W
HStem: -16 21G<292 299.5> 17 80<151.57 280.268> 318 68<115.875 248> 549 90<230.301 305.699>
VStem: 73 29<158.818 296.199> 223 90<556.301 631.699> 250 33<399.122 503.282>
LayerCount: 3
Fore
SplineSet
291 97 m 2xfa
 304 97 311 76 311 25 c 0
 311 -5 303 -16 296 -16 c 0
 288 -16 281 -5 273 4 c 0
 263 16 264 17 250 17 c 0
 195 17 137 22 103 97 c 0
 87 131 73 178 73 243 c 0
 73 334 95 379 140 386 c 0
 240 400 248 395 250 417 c 0
 256 489 261 504 269 504 c 0
 281 504 283 475 283 474 c 0
 284 405 291 366 291 337 c 0
 291 326 287 318 271 318 c 2
 177 318 l 2
 114 318 102 291 102 233 c 2
 102 225 l 2
 102 191 108 97 237 97 c 2
 291 97 l 2xfa
313 594 m 0xfc
 313 570 292 549 268 549 c 0
 244 549 223 570 223 594 c 0
 223 618 244 639 268 639 c 0
 292 639 313 618 313 594 c 0xfc
EndSplineSet
Validated: 1
EndChar

StartChar: yen
Encoding: 165 165 162
Width: 680
VWidth: 0
Flags: HW
HStem: 0 21G<216.5 491.5> 161 31<148.006 302 395 550> 284 31<148.003 256 423 550.974> 616 20G<31.5 306.5 425.5 647.5>
VStem: 302 93<32.5851 161 192 273.717> 516 134<567 628>
DStem2: 273 496 121 543 0.509551 -0.86044<-108.001 147.077 182.923 224.485> 398 322 423 315 0.450611 0.89272<5.01624 277.546>
AnchorPoint: "r;x" 640 385 basechar 0
AnchorPoint: "r;hi" 680 610 basechar 0
AnchorPoint: "r;o" 610 200 basechar 0
AnchorPoint: "r;bl" 580 10 basechar 0
AnchorPoint: "r;hi2" 670 670 basechar 0
AnchorPoint: "l;x" 60 385 basechar 0
AnchorPoint: "l;hi" 0 610 basechar 0
AnchorPoint: "l;o" 80 200 basechar 0
AnchorPoint: "l;bl" 120 10 basechar 0
LayerCount: 3
Fore
SplineSet
302 161 m 1
 150 161 l 1
 149 166 148 171 148 176 c 0
 148 181 149 187 150 192 c 1
 302 192 l 1
 302 227 l 2
 302 236 293 252 288 261 c 2
 274 284 l 1
 150 284 l 1
 148 289 148 294 148 299 c 0
 148 305 149 311 150 315 c 1
 256 315 l 1
 121 543 l 2
 102 575 90 594 75 604 c 0
 55 618 30 610 30 626 c 0
 30 630 31 634 32 636 c 1
 306 636 l 1
 307 634 309 630 309 626 c 0
 309 609 269 617 238 606 c 0
 230 603 224 599 224 593 c 0
 224 583 246 544 273 496 c 2
 370 320 l 2
 377 308 380 300 383 300 c 0
 386 300 390 306 398 322 c 2
 495 518 l 2
 507 542 516 560 516 574 c 0
 516 588 507 597 494 603 c 0
 462 618 424 609 424 626 c 0
 424 630 425 634 426 636 c 1
 647 636 l 1
 648 634 650 630 650 626 c 0
 650 609 618 622 584 599 c 0
 557 581 539 542 514 494 c 2
 423 315 l 1
 548 315 l 1
 550 311 551 306 551 301 c 0
 551 295 550 289 548 284 c 1
 408 284 l 1
 401 268 395 253 395 246 c 2
 395 192 l 1
 548 192 l 1
 550 188 550 183 550 177 c 0
 550 171 550 165 548 161 c 1
 395 161 l 1
 395 75 l 2
 395 -1 493 36 493 10 c 0
 493 6 492 2 491 0 c 1
 217 0 l 1
 216 2 214 6 214 10 c 0
 214 37 302 -3 302 75 c 2
 302 161 l 1
EndSplineSet
EndChar

StartChar: brokenbar
Encoding: 166 166 163
Width: 158
VWidth: 0
Flags: W
HStem: -217 21G<70 77> 644 20G<69 76>
VStem: 50 46<-216.974 119.974 335 663.974>
LayerCount: 3
Fore
SplineSet
96 117 m 1
 96 -214 l 1
 87 -216 80 -217 74 -217 c 0
 66 -217 59 -216 50 -214 c 1
 50 117 l 1
 57 119 65 120 72 120 c 0
 80 120 88 119 96 117 c 1
50 335 m 1
 50 661 l 1
 59 663 66 664 72 664 c 0
 80 664 87 663 96 661 c 1
 96 335 l 1
 91 334 84 333 76 333 c 0
 66 333 55 334 50 335 c 1
EndSplineSet
Validated: 1
EndChar

StartChar: section
Encoding: 167 167 164
Width: 449
VWidth: 0
Flags: W
HStem: -222 29<190.067 282.838> 68 20<272.874 328.422> 358 18<134.172 166> 633 31<170.407 258.74>
VStem: 63 45<242.528 344.503> 91 52<501.936 613.61> 94 79<-165.751 -62.951> 256 96<523.805 619.322> 316 53<-168.465 -57.7229> 345 43<97.0712 194.445>
LayerCount: 3
Fore
SplineSet
63 270 m 0xf8
 63 350 112 376 154 376 c 0
 159 376 163 375 166 375 c 1
 164 380 91 453 91 542 c 0
 91 629 159 664 220 664 c 0
 300 664 352 614 352 571 c 0
 352 531 330 516 305 516 c 0
 277 516 256 537 256 559 c 0xf5
 256 588 261 595 261 611 c 0
 261 623 242 633 226 633 c 0
 186 633 143 618 143 557 c 0
 143 448 388 362 388 178 c 0xf440
 388 84 338 68 305 68 c 0
 291 68 282 71 272 73 c 1
 299 48 369 -15 369 -100 c 0
 369 -179 306 -222 241 -222 c 0
 169 -222 94 -177 94 -102 c 0
 94 -70 112 -38 144 -38 c 0
 167 -38 185 -53 185 -76 c 0
 185 -97 173 -124 173 -147 c 0xf280
 173 -170 193 -193 243 -193 c 0
 278 -193 316 -160 316 -117 c 0
 316 -41 219 12 143 91 c 0xf480
 81 155 63 222 63 270 c 0xf8
108 305 m 0xf840
 108 230 245 88 296 88 c 0
 324 88 345 104 345 132 c 0
 345 206 199 358 172 358 c 0
 132 358 108 335 108 305 c 0xf840
EndSplineSet
Validated: 1
EndChar

StartChar: paragraph
Encoding: 182 182 165
Width: 599
VWidth: 0
Flags: W
HStem: -217 21G<349.5 356.5 469.5 476.5> 624 20G<349.5 371 469 476>
VStem: 330 41<-216.953 195> 450 41<-216.953 646.974>
LayerCount: 3
Fore
SplineSet
68 425 m 0
 68 654 328 642 371 644 c 1
 371 -214 l 1
 363 -216 360 -217 353 -217 c 0
 346 -217 338 -216 330 -214 c 1
 330 195 l 1
 141 199 68 305 68 425 c 0
491 -214 m 1
 483 -216 480 -217 473 -217 c 0
 466 -217 458 -216 450 -214 c 1
 450 644 l 1
 459 646 466 647 472 647 c 0
 480 647 482 646 491 644 c 1
 491 -214 l 1
EndSplineSet
Validated: 1
EndChar

StartChar: registered
Encoding: 174 174 166
Width: 680
VWidth: 0
Flags: W
HStem: 186 31<263.301 416.592> 449 15<299 339.368> 589 20<299 368.388> 669 31<263.301 416.592>
VStem: 81 38<354.992 531.008> 247 52<333.574 449 464 588.859> 393 52<482.617 577.432> 560 38<354.992 531.008>
DStem2: 387 460 349 430 0.594759 -0.803904<0.616897 162.995>
LayerCount: 3
Fore
SplineSet
81 443 m 0
 81 585 198 700 340 700 c 0
 482 700 598 585 598 443 c 0
 598 301 482 186 340 186 c 0
 198 186 81 301 81 443 c 0
119 443 m 0
 119 319 216 217 340 217 c 0
 464 217 560 319 560 443 c 0
 560 567 464 669 340 669 c 0
 216 669 119 567 119 443 c 0
506 322 m 0
 506 321 505 315 504 313 c 1
 439 313 l 2
 431 313 426 315 423 320 c 2
 349 430 l 2
 338 446 333 449 313 449 c 2
 299 449 l 1
 299 352 l 1
 300 321 348 343 348 322 c 0
 348 320 347 317 345 313 c 1
 210 313 l 1
 207 317 207 318 207 322 c 0
 207 343 247 320 247 351 c 2
 247 571 l 2
 247 604 207 581 207 600 c 0
 207 606 210 608 211 609 c 1
 315 609 l 2
 336 609 360 609 382 604 c 0
 412 596 445 575 445 531 c 0
 444 480 399 468 387 460 c 1
 388 459 389 457 392 453 c 0
 424 405 468 347 478 337 c 0
 490 326 506 337 506 322 c 0
304 589 m 2
 300 589 299 585 299 579 c 2
 299 464 l 1
 313 464 l 2
 350 464 393 476 393 535 c 0
 393 563 375 581 349 587 c 0
 343 588 333 589 319 589 c 2
 304 589 l 2
EndSplineSet
Validated: 1
EndChar

StartChar: copyright
Encoding: 169 169 167
Width: 735
VWidth: 0
Flags: W
HStem: -22 41<266.752 469.14> 110 58<317.159 444.332> 407 21G<465 504> 502 25<330.44 407.599> 615 41<266.752 469.14>
VStem: 26 50<208.165 425.835> 176 79<238.705 416.65> 659 50<208.165 425.835>
LayerCount: 3
Fore
SplineSet
26 317 m 0
 26 504 181 656 368 656 c 0
 555 656 709 504 709 317 c 0
 709 130 555 -22 368 -22 c 0
 181 -22 26 130 26 317 c 0
76 317 m 0
 76 153 204 19 368 19 c 0
 532 19 659 153 659 317 c 0
 659 481 532 615 368 615 c 0
 204 615 76 481 76 317 c 0
529 217 m 1
 483 129 401 110 363 110 c 0
 303 110 176 141 176 320 c 0
 176 439 261 527 388 527 c 0
 474 527 529 478 529 443 c 0
 529 428 515 407 493 407 c 0
 437 407 436 502 375 502 c 0
 317 502 255 445 255 340 c 0
 255 198 337 168 389 168 c 0
 436 168 478 187 513 231 c 1
 522 227 526 223 529 217 c 1
EndSplineSet
Validated: 1
EndChar

StartChar: at
Encoding: 64 64 168
Width: 737
VWidth: 0
Flags: HW
HStem: -133 45<254.943 481.837> 22 45<259 371.084> 30 57<478 549.52> 254 25<387.965 424> 426 32<247.575 384.073>
VStem: 40 63<60.5869 277.661> 197 86<76.8885 179.844> 424 83<99.7065 254 274.778 392.862> 656 41<79.7721 296.717>
AnchorPoint: "l;bl" 0 10 basechar 0
AnchorPoint: "l;o" 0 200 basechar 0
AnchorPoint: "l;x" 0 385 basechar 0
AnchorPoint: "r;bl" 737 10 basechar 0
AnchorPoint: "r;o" 737 200 basechar 0
AnchorPoint: "r;x" 737 385 basechar 0
LayerCount: 3
Fore
SplineSet
533 448 m 1xdf80
 605 420 697 341 697 177 c 0
 697 -78 464 -133 348 -133 c 0
 197 -133 40 -30 40 169 c 0
 40 341 185 458 327 458 c 0
 426 458 507 432 507 293 c 2
 507 176 l 2
 507 121 510 87 531 87 c 0
 556 87 554 110 569 110 c 0
 575 110 577 104 577 96 c 0
 577 58 522 30 492 30 c 0xbf80
 464 30 438 39 428 92 c 1
 405 58 352 22 286 22 c 0
 232 22 197 57 197 117 c 0
 197 188 257 234 424 279 c 1
 424 316 l 2
 424 412 366 426 321 426 c 0
 191 426 103 301 103 181 c 0
 103 -35 261 -88 367 -88 c 0
 492 -88 656 -30 656 197 c 0
 656 275 631 373 523 424 c 1
 519 435 523 446 533 448 c 1xdf80
283 134 m 0
 283 98 300 67 331 67 c 0xdf80
 342 67 424 86 424 147 c 2
 424 254 l 1
 362 235 283 211 283 134 c 0
EndSplineSet
EndChar

StartChar: percent
Encoding: 37 37 169
Width: 771
Flags: W
HStem: -96 26<508.478 580.872> 173 26<510.694 583.064> 197 26<172.478 244.872> 413 31<331.942 472.668> 466 26<174.694 248.101>
VStem: 73 63<262.155 428.485> 284 65<263.893 422.083> 409 63<-30.8445 135.485> 620 65<-29.1071 135.852>
LayerCount: 3
Fore
SplineSet
392 444 m 0xbf80
 527 444 601 564 622 564 c 0
 626 564 636 558 636 553 c 0
 636 546 630 537 627 532 c 0
 168 -155 183 -157 171 -157 c 0
 163 -157 129 -153 129 -132 c 0
 129 -118 138 -107 169 -62 c 2
 334 175 l 2
 462 359 516 423 516 431 c 0
 516 434 514 435 512 435 c 2
 512 435 454 413 394 413 c 0
 371 413 349 413 331 423 c 1
 343 402 349 378 349 347 c 0
 349 251 279 197 209 197 c 0
 140 197 73 248 73 348 c 0
 73 442 141 492 211 492 c 0
 234 492 254 484 275 473 c 0
 316 453 357 444 392 444 c 0xbf80
210 466 m 0
 152 466 136 389 136 335 c 0
 136 264 165 223 209 223 c 0
 251 223 284 267 284 353 c 0
 284 424 256 466 210 466 c 0
546 173 m 0xdf80
 488 173 472 96 472 42 c 0
 472 -29 501 -70 545 -70 c 0
 587 -70 620 -26 620 60 c 0
 620 131 592 173 546 173 c 0xdf80
685 54 m 0
 685 -42 615 -96 545 -96 c 0
 476 -96 409 -45 409 55 c 0
 409 149 477 199 547 199 c 0
 617 199 685 150 685 54 c 0
EndSplineSet
Validated: 1
EndChar

StartChar: dollar
Encoding: 36 36 170
Width: 458
Flags: W
HStem: -13 36<136.98 204> 555 37<150.741 205 239 288.402> 634 20G<216 231>
VStem: 35 60<58.5065 133.836> 57 52<406.79 516.815> 204 35<-129.942 -13 26 274 364 555 593 653.985> 346 54<84.7029 220.783>
DStem2: 204 364 204 281 0.965948 -0.258736<-82.7647 0 57.0944 145.239>
LayerCount: 3
Fore
SplineSet
239 593 m 1xee
 274 593 373 571 374 505 c 0
 374 483 363 471 349 471 c 0
 312 471 323 524 270 550 c 0
 261 554 251 556 239 556 c 1
 239 354 l 1
 275 340 400 320 400 177 c 0
 400 27 267 -4 239 -11 c 1
 241 -94 l 2
 241 -126 234 -130 219 -130 c 0
 203 -130 202 -121 202 -112 c 0
 202 -84 204 -13 204 -13 c 1
 125 -13 35 31 35 100 c 0
 35 109 42 136 69 136 c 0
 77 136 90 132 95 124 c 0xf6
 105 107 89 75 129 46 c 0
 162 22 196 24 204 23 c 1
 204 281 l 1
 160 297 57 322 57 437 c 0
 57 506 103 583 205 592 c 1
 205 606 203 620 203 634 c 0
 203 652 209 654 223 654 c 0
 239 654 241 649 241 641 c 0
 241 612 239 598 239 593 c 1xee
109 460 m 0xee
 109 385 204 364 204 364 c 1
 205 555 l 1
 155 555 109 512 109 460 c 0xee
239 26 m 1
 276 26 346 61 346 157 c 0
 346 224 292 255 260 266 c 1
 239 274 l 1
 239 26 l 1
EndSplineSet
EndChar

StartChar: dollar.DONT_KEEP
Encoding: 65543 -1 171
Width: 458
VWidth: 0
Flags: W
HStem: -17 29<190.514 247> 568 30<191.469 247> 616 20G<168 182 256 270>
VStem: 66 49<396.374 521.412> 158 33<-112.995 -17 29 278 374 550 595 635.996> 247 32<-112.995 -13 24 236 329 557 598 635.996> 334 53<66.8768 203.362>
DStem2: 161 374 161 289 0.884242 -0.467029<-47.7218 0 21.0311 39.6975 69.5936 98.8296 119.837 149.633 167.022 231.384>
LayerCount: 3
Fore
SplineSet
378 519 m 0
 378 497 360 492 354 492 c 0
 343 492 336 496 330 501 c 0
 312 515 308 544 279 557 c 1
 279 504 277 436 277 315 c 1
 286 310 295 305 303 299 c 0
 359 262 387 204 387 148 c 0
 387 84 350 20 278 -6 c 1
 278 -45 279 -66 279 -89 c 0
 279 -107 277 -113 263 -113 c 0
 249 -113 246 -106 246 -93 c 0
 246 -78 246 -56 247 -13 c 1
 230 -17 212 -17 200 -17 c 2
 190 -17 l 1
 190 -49 191 -68 191 -89 c 0
 191 -107 189 -113 175 -113 c 0
 161 -113 158 -106 158 -93 c 0
 158 -78 158 -56 159 -13 c 1
 108 -4 51 34 51 65 c 0
 51 82 69 90 78 90 c 0
 90 90 106 83 125 61 c 0
 143 40 152 35 160 29 c 1
 161 83 161 154 161 244 c 2
 161 289 l 1
 96 324 66 383 66 440 c 0
 66 501 100 560 159 586 c 1
 159 611 l 2
 159 631 161 636 175 636 c 0
 189 636 191 631 191 611 c 2
 191 595 l 1
 206 598 225 598 237 598 c 2
 247 598 l 1
 247 611 l 2
 247 631 249 636 263 636 c 0
 277 636 279 631 279 611 c 2
 279 593 l 1
 339 578 378 546 378 519 c 0
161 374 m 1
 161 454 159 508 159 550 c 1
 131 528 115 492 115 457 c 0
 115 424 130 394 161 374 c 1
190 17 m 1
 201 14 210 12 219 12 c 0
 229 12 238 14 248 16 c 1
 249 72 249 124 249 248 c 1
 227 259 206 271 189 278 c 1
 189 246 l 2
 189 140 189 71 190 17 c 1
189 359 m 1
 249 329 l 1
 249 447 247 515 247 565 c 1
 239 567 231 568 223 568 c 0
 212 568 201 566 191 563 c 1
 191 515 189 461 189 359 c 1
277 236 m 1
 277 143 278 75 278 24 c 1
 300 40 334 78 334 140 c 0
 334 174 320 208 277 236 c 1
EndSplineSet
Validated: 1
EndChar

StartChar: longs
Encoding: 383 383 172
Width: 256
VWidth: 0
Flags: HW
HStem: -223 36<-110 -23.5659> 606 58<262.5 351.9>
DStem2: -6.55176 -223 55.9845 -223 0.241922 0.970296<147.208 811.547>
LayerCount: 3
Back
SplineSet
337 578 m 4
 297 578 284 606 266 606 c 4
 259 606 252 575 233 500 c 6
 202 377 l 5
 282 377 l 5
 284 371 282 357 279 351 c 5
 197 351 l 5
 156 181 l 6
 126 57 109 -37 54 -130 c 4
 34 -164 -19 -223 -90 -223 c 4
 -130 -223 -148 -199 -148 -175 c 4
 -148 -153 -133 -132 -106 -132 c 4
 -63 -132 -56 -187 -31 -187 c 4
 21 -187 122 317 131 351 c 5
 47 351 l 5
 45 358 47 370 50 377 c 5
 136 377 l 5
 172 522 204 583 235 615 c 4
 248 628 293 664 331 664 c 4
 363 664 379 642 379 620 c 4
 379 599 365 578 337 578 c 4
EndSplineSet
Fore
SplineSet
337 578 m 0
 297 578 284 606 266 606 c 0
 259 606 251 575 233 500 c 2
 143 126 l 2
 104 -33 90 -68 54 -130 c 0
 34 -164 -19 -223 -90 -223 c 0
 -130 -223 -148 -199 -148 -175 c 0
 -148 -153 -133 -132 -106 -132 c 0
 -63 -132 -56 -187 -31 -187 c 0
 -5 -187 34 -59 67 72 c 0
 91 166 102 223 129 344 c 0
 152 449 185 564 235 615 c 0
 248 628 293 664 331 664 c 0
 363 664 379 642 379 620 c 0
 379 599 365 578 337 578 c 0
EndSplineSet
AlternateSubs2: "'aalt' Access All Alternates lookup 0 subtable" longs.ld
AlternateSubs2: "'aalt' Access All Alternates in Latin lookup 0 subtable" longs.ld
Substitution2: "'ss01' Style Set 1 in Latin lookup 1 subtable" longs.ld
EndChar

StartChar: germandbls
Encoding: 223 223 173
Width: 454
VWidth: 0
Flags: HW
HStem: -8 24<268.597 333.438> 0 21G<16.5 204.5> 631 33<192.737 271.474>
VStem: 77 77<22.0046 350> 210 73<26.0182 107.034> 294 76<475.798 614.62> 365 69<77.3906 237.126>
AnchorPoint: "l;o" 0 200 basechar 0
AnchorPoint: "l;x" 0 385 basechar 0
AnchorPoint: "l;bl" 0 10 basechar 0
AnchorPoint: "r;bl" 454 10 basechar 0
AnchorPoint: "r;o" 454 200 basechar 0
AnchorPoint: "r;hi" 424 610 basechar 0
AnchorPoint: "r;x" 444 385 basechar 0
LayerCount: 3
Fore
SplineSet
297 16 m 0xba
 338 16 365 47 365 132 c 0xba
 365 240 310 320 222 367 c 0
 192 383 189 377 189 387 c 2
 189 394 l 2
 189 406 215 411 241 435 c 0
 266 458 294 496 294 541 c 0
 294 600 271 631 233 631 c 0
 210 631 190 617 177 596 c 0
 161 571 154 531 154 474 c 2
 154 62 l 2
 154 -2 206 30 206 8 c 0
 206 5 205 2 204 0 c 1
 17 0 l 1
 16 2 15 5 15 8 c 0
 15 30 77 -2 77 62 c 2
 77 350 l 1
 77 350 49 351 35 351 c 0
 27 351 21 352 21 362 c 0
 21 377 61 374 69 401 c 0
 90 467 76 520 145 607 c 0
 173 642 212 664 256 664 c 0
 336 664 370 604 370 551 c 0x7c
 370 422 226 400 226 400 c 1
 368 384 434 312 434 179 c 0
 434 81 380 -8 296 -8 c 0
 239 -8 210 30 210 65 c 0
 210 90 226 111 246 111 c 0
 270 111 283 96 283 66 c 0
 283 51 268 26 268 26 c 1
 270 24 279 16 297 16 c 0xba
EndSplineSet
EndChar

StartChar: uni0307
Encoding: 775 775 174
Width: 0
VWidth: 0
Flags: W
HStem: 568 93<-268.72 -188.443>
VStem: -277 96<576.49 653.508>
AnchorPoint: "top" -230 540 mark 0
LayerCount: 3
Fore
SplineSet
-231 661 m 0
 -197 661 -181 637 -181 614 c 0
 -181 591 -196 568 -227 568 c 0
 -258 568 -277 592 -277 617 c 0
 -277 637 -264 661 -231 661 c 0
EndSplineSet
Validated: 1
EndChar

StartChar: dotlessi
Encoding: 305 305 175
Width: 231
VWidth: 0
Flags: HW
HStem: 0 21G<16.5 214.5> 392 20G<93.5 148.5>
VStem: 77 77<22.8749 341.22>
AnchorPoint: "top" 117 540 basechar 0
AnchorPoint: "l;bl" 0 10 basechar 0
AnchorPoint: "l;x" 0 385 basechar 0
AnchorPoint: "l;o" 0 200 basechar 0
AnchorPoint: "r;bl" 231 10 basechar 0
AnchorPoint: "r;x" 221 385 basechar 0
AnchorPoint: "r;o" 231 200 basechar 0
LayerCount: 3
Fore
SplineSet
154 351 m 2
 154 62 l 2
 154 0 216 30 216 8 c 0
 216 5 215 2 214 0 c 1
 17 0 l 1
 16 2 15 5 15 8 c 0
 15 30 77 -2 77 62 c 2
 77 298 l 2
 77 369 16 330 16 355 c 0
 16 386 40 352 147 412 c 1
 150 412 155 410 156 406 c 0
 156 404 154 355 154 351 c 2
EndSplineSet
EndChar

StartChar: uni0237
Encoding: 567 567 176
Width: 233
VWidth: 0
Flags: HW
HStem: -222 21G<29.5 48> 392 20G<95.5 150.5>
VStem: 79 77<-81.5746 341.22>
AnchorPoint: "top" 104 540 basechar 0
AnchorPoint: "l;bl" 0 10 basechar 0
AnchorPoint: "l;x" 0 385 basechar 0
AnchorPoint: "l;o" 0 200 basechar 0
AnchorPoint: "l;lo" 0 -200 basechar 0
AnchorPoint: "r;bl" 233 10 basechar 0
AnchorPoint: "r;x" 233 385 basechar 0
AnchorPoint: "r;o" 233 200 basechar 0
AnchorPoint: "r;lo" 193 -200 basechar 0
LayerCount: 3
Fore
SplineSet
156 351 m 2
 156 45 l 2
 156 -124 62 -198 34 -222 c 5
 25 -217 18 -212 15 -202 c 1
 74 -142 79 -119 79 48 c 2
 79 298 l 2
 79 369 18 330 18 355 c 0
 18 386 42 352 149 412 c 1
 152 412 157 410 158 406 c 0
 158 404 156 355 156 351 c 2
EndSplineSet
EndChar

StartChar: uni0308
Encoding: 776 776 177
Width: 0
VWidth: 0
Flags: W
HStem: 568 93<-348.72 -268.443 -188.72 -108.443>
VStem: -357 96<576.49 653.508> -197 96<576.49 653.508>
AnchorPoint: "top" -230 540 mark 0
LayerCount: 3
Fore
SplineSet
-151 661 m 0
 -117 661 -101 637 -101 614 c 0
 -101 591 -116 568 -147 568 c 0
 -178 568 -197 592 -197 617 c 0
 -197 637 -184 661 -151 661 c 0
-311 661 m 0
 -277 661 -261 637 -261 614 c 0
 -261 591 -276 568 -307 568 c 0
 -338 568 -357 592 -357 617 c 0
 -357 637 -344 661 -311 661 c 0
EndSplineSet
Validated: 1
EndChar

StartChar: eth
Encoding: 240 240 190
Width: 429
VWidth: 0
Flags: HW
HStem: -13 29<185.993 269.237> 377 27<170.935 269.853> 639 20G<106 180.5>
VStem: 25 86<96.0497 300.07> 326 78<98.8709 322.321>
DStem2: 111 519 122 490 0.939571 0.342354<-2.16276 99.0201 167.776 265.813>
AnchorPoint: "l;bl" 30 10 basechar 0
AnchorPoint: "l;o" 0 200 basechar 0
AnchorPoint: "l;hi" 70 610 basechar 0
AnchorPoint: "l;x" 30 385 basechar 0
AnchorPoint: "r;bl" 399 10 basechar 0
AnchorPoint: "r;o" 429 200 basechar 0
AnchorPoint: "r;hi" 409 610 basechar 0
AnchorPoint: "r;x" 429 385 basechar 0
LayerCount: 3
Fore
SplineSet
227 16 m 0
 267 16 326 49 326 186 c 0
 326 336 284 377 217 377 c 0
 131 377 111 277 111 212 c 0
 111 87 170 16 227 16 c 0
404 210 m 0
 404 79 333 -13 210 -13 c 0
 84 -13 25 92 25 196 c 0
 25 294 78 404 214 404 c 0
 245 404 279 399 305 380 c 1
 295 418 258 482 225 528 c 1
 122 490 l 1
 115 498 112 508 111 519 c 1
 204 553 l 1
 167 602 132 637 106 651 c 0
 102 653 106 659 106 659 c 1
 164 659 l 1
 197 640 224 611 258 573 c 1
 358 609 l 1
 366 602 368 591 369 580 c 1
 279 548 l 1
 363 431 404 327 404 210 c 0
EndSplineSet
EndChar

StartChar: thorn
Encoding: 254 254 191
Width: 446
VWidth: 0
Flags: W
HStem: -211 21G<-58.5 178.5> -8 25<180.915 249.41> 367 37<241.1 366> 644 20G<254 310>
VStem: 359 69<174.09 343.208>
DStem2: 25 -149 108 -89 0.268379 0.963313<5.45055 188.737 310.723 495.085 510.192 557.251 568.306 755.168>
LayerCount: 3
Fore
SplineSet
216 17 m 0
 278 17 359 160 359 269 c 0
 359 324 337 367 281 367 c 0
 256 367 234 360 225 356 c 1
 171 165 160 125 160 82 c 0
 160 58 170 17 216 17 c 0
108 -89 m 2
 100 -121 93 -148 93 -163 c 0
 93 -205 180 -180 180 -203 c 0
 180 -206 179 -209 178 -211 c 1
 -58 -211 l 1
 -59 -209 -60 -206 -60 -203 c 0
 -60 -187 -17 -199 9 -180 c 0
 20 -172 23 -155 25 -149 c 2
 154 329 l 1
 83 301 25 235 15 235 c 0
 12 235 8 238 8 243 c 0
 8 270 114 337 162 358 c 1
 191 464 216 559 216 586 c 0
 216 609 186 614 170 618 c 0
 162 620 160 625 160 630 c 0
 160 653 200 631 308 664 c 1
 312 663 315 658 315 654 c 1
 233 383 l 1
 278 398 311 404 341 404 c 0
 391 404 428 378 428 292 c 0
 428 142 321 -8 215 -8 c 0
 165 -8 136 16 136 16 c 1
 108 -89 l 2
EndSplineSet
AlternateSubs2: "'aalt' Access All Alternates lookup 0 subtable" thorn.ld
AlternateSubs2: "'aalt' Access All Alternates in Latin lookup 0 subtable" thorn.ld
Substitution2: "'ss01' Style Set 1 in Latin lookup 1 subtable" thorn.ld
EndChar

StartChar: acutecomb
Encoding: 769 769 192
Width: 0
VWidth: 0
Flags: W
HStem: 454 207<-238 -170>
VStem: -254 123
AnchorPoint: "top" -230 540 mark 0
LayerCount: 3
Fore
SplineSet
-170 661 m 0
 -143 661 -131 642 -131 629 c 0
 -131 601 -170 554 -194 514 c 0
 -220 471 -223 454 -238 454 c 0
 -244 454 -254 457 -254 467 c 0
 -254 480 -242 512 -236 529 c 0
 -214 595 -218 661 -170 661 c 0
EndSplineSet
Validated: 1
EndChar

StartChar: thorn.ld
Encoding: 65544 -1 216
Width: 446
VWidth: 0
Flags: HW
HStem: -270 21G<16.5 224.5> -13 29<198.028 292.568> 363 41<204.723 301.507> 392 20G<88.5 143.5>
VStem: 77 77<-245.761 12 49.6366 334.742> 362 84<102.097 293.237>
LayerCount: 3
Fore
SplineSet
216 17 m 0
 278 17 359 160 359 269 c 0
 359 324 337 367 281 367 c 0
 256 367 234 360 225 356 c 1
 171 165 160 125 160 82 c 0
 160 58 170 17 216 17 c 0
154 329 m 1
 83 301 25 235 15 235 c 0
 12 235 8 238 8 243 c 0
 8 270 114 337 162 358 c 1
 191 464 216 559 216 586 c 0
 216 609 186 614 170 618 c 0
 162 620 160 625 160 630 c 0
 160 653 200 631 308 664 c 1
 312 663 315 658 315 654 c 1
 233 383 l 1
 278 398 311 404 341 404 c 0
 391 404 428 378 428 292 c 0
 428 142 321 -8 215 -8 c 0
 165 -8 136 16 136 16 c 1
 92 -148 l 2
 83 -180 77 -207 77 -222 c 0
 77 -264 164 -239 164 -262 c 0
 164 -265 163 -268 162 -270 c 1
 -74 -270 l 1
 -75 -268 -76 -265 -76 -262 c 0
 -76 -246 -33 -258 -7 -239 c 0
 4 -231 7 -214 9 -208 c 2
 154 329 l 1
EndSplineSet
EndChar

StartChar: oslash
Encoding: 248 248 219
Width: 454
VWidth: 0
Flags: HW
HStem: -13 28<168.15 276.38> 376 28<183.008 279.845>
VStem: 25 88<89.4448 288.9> 341 88<101.274 302.831>
DStem2: 65 -59 91 -75 0.499531 0.866296<-2.92383 89.8922 142.887 453.841 513.548 605.429>
AnchorPoint: "r;o" 454 200 basechar 0
AnchorPoint: "r;x" 424 385 basechar 0
AnchorPoint: "r;bl" 424 10 basechar 0
AnchorPoint: "l;o" 0 200 basechar 0
AnchorPoint: "l;x" 30 385 basechar 0
AnchorPoint: "l;bl" 30 10 basechar 0
LayerCount: 3
Fore
SplineSet
228 376 m 0
 162 376 113 306 113 194 c 0
 113 143 118 98 136 65 c 1
 299 347 l 1
 280 367 255 376 228 376 c 0
429 200 m 0
 429 79 344 -13 222 -13 c 0
 192 -13 162 -7 136 4 c 1
 91 -75 l 1
 80 -72 71 -67 65 -59 c 1
 109 18 l 1
 59 50 25 108 25 196 c 0
 25 305 107 404 235 404 c 0
 268 404 297 398 322 387 c 1
 366 463 l 1
 376 462 388 455 392 447 c 1
 349 372 l 1
 402 336 429 273 429 200 c 0
318 319 m 1
 156 38 l 1
 172 23 194 15 222 15 c 0
 314 15 341 103 341 194 c 0
 341 250 332 290 318 319 c 1
EndSplineSet
EndChar

StartChar: Thorn
Encoding: 222 222 220
Width: 560
VWidth: 0
Flags: HW
HStem: 0 21G<32.5 295.5> 130 40<225.581 355.021> 478 25<215.748 346.935> 616 20G<31.5 294.5>
VStem: 117 93<30.7996 156 171.919 475.478 503 605.2> 430 90<238.202 409.138>
AnchorPoint: "l;bl" 0 10 basechar 0
AnchorPoint: "l;o" 0 200 basechar 0
AnchorPoint: "l;hi" 0 610 basechar 0
AnchorPoint: "l;x" 0 385 basechar 0
AnchorPoint: "r;o" 550 200 basechar 0
AnchorPoint: "r;x" 560 385 basechar 0
LayerCount: 3
Fore
SplineSet
430 323 m 0
 430 385 400 478 281 478 c 2
 274 478 l 2
 219 478 210 477 210 429 c 2
 210 175 l 1
 210 175 238 170 261 170 c 0
 362 170 430 220 430 323 c 0
210 75 m 2
 210 -1 297 36 297 10 c 0
 297 6 296 2 295 0 c 1
 33 0 l 1
 32 2 30 6 30 10 c 0
 30 37 117 -3 117 75 c 2
 117 561 l 2
 117 637 30 600 30 626 c 0
 30 630 31 634 32 636 c 1
 294 636 l 1
 295 634 297 630 297 626 c 0
 297 599 210 639 210 561 c 2
 210 503 l 1
 309 503 l 2
 344 503 404 496 451 464 c 0
 501 430 520 376 520 322 c 0
 520 275 505 228 481 197 c 0
 448 155 393 130 332 130 c 0
 267 130 210 156 210 156 c 1
 210 75 l 2
EndSplineSet
EndChar

StartChar: Eth
Encoding: 208 208 222
Width: 725
VWidth: 0
Flags: HW
HStem: 0 31<215.731 389.154> 308 31<30.0029 117 210 371.997> 608 28<214.535 398.197>
VStem: 117 93<34.3536 308 339 604.11> 576 109<200.027 434.641>
AnchorPoint: "r;o" 725 200 basechar 0
AnchorPoint: "r;hi" 685 610 basechar 0
AnchorPoint: "r;x" 725 385 basechar 0
AnchorPoint: "r;bl" 685 10 basechar 0
AnchorPoint: "l;o" 20 200 basechar 0
AnchorPoint: "l;hi" 0 610 basechar 0
AnchorPoint: "l;x" 20 385 basechar 0
AnchorPoint: "l;bl" 0 10 basechar 0
LayerCount: 3
Fore
SplineSet
33 0 m 1
 32 2 30 6 30 10 c 0
 30 37 117 -3 117 75 c 2
 117 308 l 1
 33 308 l 1
 31 313 30 318 30 324 c 0
 30 329 31 334 33 339 c 1
 117 339 l 1
 117 561 l 2
 117 639 30 599 30 626 c 0
 30 630 32 634 33 636 c 1
 273 636 l 2
 387 636 450 629 520 600 c 0
 631 553 685 441 685 322 c 0
 685 182 608 44 426 9 c 0
 380 0 312 0 266 0 c 2
 33 0 l 1
210 339 m 1
 369 339 l 1
 371 335 372 329 372 323 c 0
 372 317 371 312 369 308 c 1
 210 308 l 1
 210 85 l 2
 210 32 220 31 280 31 c 0
 523 31 576 192 576 312 c 0
 576 460 500 533 467 559 c 0
 414 602 346 608 286 608 c 0
 212 608 210 603 210 563 c 2
 210 339 l 1
EndSplineSet
EndChar

StartChar: gravecomb
Encoding: 768 768 223
Width: 0
VWidth: 0
Flags: W
HStem: 454 207<-288 -220>
VStem: -327 123
AnchorPoint: "top" -230 540 mark 0
LayerCount: 3
Fore
SplineSet
-288 661 m 0
 -240 661 -244 595 -222 529 c 0
 -216 512 -204 480 -204 467 c 0
 -204 457 -214 454 -220 454 c 0
 -235 454 -238 471 -264 514 c 0
 -288 554 -327 601 -327 629 c 0
 -327 642 -315 661 -288 661 c 0
EndSplineSet
Validated: 1
EndChar

StartChar: uni030B
Encoding: 779 779 233
Width: 0
VWidth: 0
Flags: W
HStem: 454 207<-305 -237 -165 -97>
VStem: -321 263
AnchorPoint: "top" -230 540 mark 0
LayerCount: 3
Fore
SplineSet
-97 661 m 0
 -70 661 -58 642 -58 629 c 0
 -58 601 -97 554 -121 514 c 0
 -147 471 -150 454 -165 454 c 0
 -171 454 -181 457 -181 467 c 0
 -181 480 -169 512 -163 529 c 0
 -141 595 -145 661 -97 661 c 0
-237 661 m 0
 -210 661 -198 642 -198 629 c 0
 -198 601 -237 554 -261 514 c 0
 -287 471 -290 454 -305 454 c 0
 -311 454 -321 457 -321 467 c 0
 -321 480 -309 512 -303 529 c 0
 -281 595 -285 661 -237 661 c 0
EndSplineSet
Validated: 1
EndChar

StartChar: uni0302
Encoding: 770 770 250
Width: 0
Flags: W
HStem: 496 160
VStem: -348 234<502 509>
AnchorPoint: "top" -230 540 mark 0
LayerCount: 3
Fore
SplineSet
-231 577 m 1
 -302 519 -327 496 -337 496 c 0
 -340 496 -348 502 -348 505 c 0
 -348 509 -301 562 -249 654 c 1
 -249 654 -236 656 -232 656 c 0
 -225 656 -213 654 -213 654 c 1
 -160 561 -114 510 -114 505 c 0
 -114 502 -122 496 -125 496 c 0
 -135 496 -160 519 -231 577 c 1
EndSplineSet
Validated: 1
EndChar

StartChar: tildecomb
Encoding: 771 771 251
Width: 996
VWidth: 0
Flags: W
HStem: 558 60<-219.524 -146.345> 601 60<-312.655 -238.356>
VStem: -352 245
AnchorPoint: "top" -230 540 mark 0
LayerCount: 3
Fore
SplineSet
-185 558 m 0xa0
 -223 558 -255 601 -291 601 c 0
 -321 601 -336 559 -336 559 c 1
 -339 559 -349 560 -352 562 c 1
 -352 562 -324 661 -274 661 c 0x60
 -236 661 -203 618 -168 618 c 0
 -138 618 -123 660 -123 660 c 1
 -120 660 -110 659 -107 657 c 1
 -107 657 -135 558 -185 558 c 0xa0
EndSplineSet
Validated: 1
EndChar

StartChar: uni030C
Encoding: 780 780 275
Width: 0
Flags: W
HStem: 496 160
VStem: -348 234<643 650>
AnchorPoint: "top" -230 540 mark 0
LayerCount: 3
Fore
SplineSet
-231 575 m 1
 -160 633 -135 656 -125 656 c 0
 -122 656 -114 650 -114 647 c 0
 -114 643 -161 590 -213 498 c 1
 -213 498 -226 496 -230 496 c 0
 -237 496 -249 498 -249 498 c 1
 -302 591 -348 642 -348 647 c 0
 -348 650 -340 656 -337 656 c 0
 -327 656 -302 633 -231 575 c 1
EndSplineSet
Validated: 1
EndChar

StartChar: uni0304
Encoding: 772 772 295
Width: 824
VWidth: 0
Flags: W
HStem: 595 45<-346 -112>
VStem: -346 234<595 640>
AnchorPoint: "top" -230 540 mark 0
LayerCount: 3
Fore
SplineSet
-112 595 m 1
 -346 595 l 1
 -346 640 l 1
 -112 640 l 1
 -112 595 l 1
EndSplineSet
Validated: 1
EndChar

StartChar: uni0306
Encoding: 774 774 308
Width: 0
Flags: W
HStem: 526 59<-294.799 -163.201>
VStem: -343 25<622.411 655.994> -140 25<622.411 655.994>
AnchorPoint: "top" -230 540 mark 0
LayerCount: 3
Fore
SplineSet
-229 585 m 0
 -148 585 -144 643 -140 654 c 1
 -140 654 -135 656 -128 656 c 0
 -121 656 -115 654 -115 654 c 1
 -115 653 l 2
 -115 639 -122 526 -229 526 c 0
 -336 526 -343 639 -343 653 c 2
 -343 654 l 1
 -343 654 -337 656 -330 656 c 0
 -323 656 -318 654 -318 654 c 1
 -314 643 -310 585 -229 585 c 0
EndSplineSet
Validated: 1
EndChar

StartChar: uni030A
Encoding: 778 778 321
Width: 0
VWidth: 0
Flags: W
HStem: 505 37<-262.96 -193.617> 624 37<-263.634 -195.482>
VStem: -310 40<548.865 619.293> -188 40<546.58 617.673>
AnchorPoint: "top" -230 540 mark 0
LayerCount: 3
Fore
SplineSet
-231 661 m 0
 -174 661 -148 621 -148 582 c 0
 -148 543 -177 505 -227 505 c 0
 -277 505 -310 545 -310 587 c 0
 -310 621 -287 661 -231 661 c 0
-231 624 m 0
 -259 624 -270 602 -270 584 c 0
 -270 562 -254 542 -227 542 c 0
 -200 542 -188 562 -188 582 c 0
 -188 602 -202 624 -231 624 c 0
EndSplineSet
Validated: 1
EndChar

StartChar: dcroat
Encoding: 273 273 338
Width: 473
VWidth: 0
Flags: HW
HStem: -13 40<182.465 276.753> 380 24<180.55 275.95> 488 31<192.003 319 396 456.997> 644 20G<335.5 390.5>
VStem: 25 85<109.904 285.851> 319 77<52.9294 349.5 391 488 519 595.22>
AnchorPoint: "r;o" 473 200 basechar 0
AnchorPoint: "r;hi" 463 610 basechar 0
AnchorPoint: "r;x" 463 385 basechar 0
AnchorPoint: "r;bl" 473 10 basechar 0
AnchorPoint: "l;o" 0 200 basechar 0
AnchorPoint: "l;x" 20 385 basechar 0
AnchorPoint: "l;bl" 20 10 basechar 0
LayerCount: 3
Fore
SplineSet
321 127 m 2
 321 256 l 2
 321 340 290 380 225 380 c 0
 148 380 110 298 110 214 c 0
 110 122 155 27 241 27 c 0
 284 27 321 60 321 127 c 2
247 404 m 0
 276 404 298 396 319 391 c 1
 319 488 l 1
 195 488 l 1
 193 493 192 498 192 504 c 0
 192 509 193 514 195 519 c 1
 319 519 l 1
 319 552 l 2
 319 623 258 584 258 609 c 0
 258 640 282 607 389 664 c 1
 392 664 397 662 398 658 c 0
 398 656 396 609 396 605 c 2
 396 519 l 1
 454 519 l 1
 456 515 457 509 457 503 c 0
 457 497 456 492 454 488 c 1
 396 488 l 1
 396 92 l 2
 396 9 457 60 457 28 c 0
 457 4 426 26 334 -13 c 1
 325 -13 l 1
 325 42 l 1
 294 16 259 -13 199 -13 c 0
 88 -13 25 86 25 188 c 0
 25 295 93 404 247 404 c 0
EndSplineSet
EndChar

StartChar: hbar
Encoding: 295 295 339
Width: 486
VWidth: 0
Flags: HW
HStem: 0 21G<16.5 214.5 271.5 469.5> 354 50<208.315 307.907> 488 31<16.0029 77 154 280.997> 644 20G<93.5 148.5>
VStem: 77 77<22.8749 325.642 332 488 519 595.22> 332 77<22.8749 331.235>
AnchorPoint: "r;o" 476 200 basechar 0
AnchorPoint: "r;x" 476 385 basechar 0
AnchorPoint: "r;bl" 486 10 basechar 0
AnchorPoint: "l;o" 10 200 basechar 0
AnchorPoint: "l;x" 20 385 basechar 0
AnchorPoint: "l;bl" 0 10 basechar 0
AnchorPoint: "l;hi2" 10 670 basechar 0
LayerCount: 3
Fore
SplineSet
17 0 m 1
 16 2 15 5 15 8 c 0
 15 30 77 -2 77 62 c 2
 77 488 l 1
 19 488 l 1
 17 493 16 498 16 504 c 0
 16 509 17 514 19 519 c 1
 77 519 l 1
 77 552 l 2
 77 623 16 584 16 609 c 0
 16 640 40 607 147 664 c 1
 150 664 155 662 156 658 c 0
 156 656 154 609 154 605 c 2
 154 519 l 1
 278 519 l 1
 280 515 281 509 281 503 c 0
 281 497 280 492 278 488 c 1
 154 488 l 1
 154 332 l 1
 158 338 167 344 173 352 c 0
 193 377 231 404 286 404 c 0
 399 404 409 346 409 227 c 2
 409 62 l 2
 409 0 471 30 471 8 c 0
 471 5 470 2 469 0 c 1
 272 0 l 1
 271 2 270 5 270 8 c 0
 270 30 332 -2 332 62 c 2
 332 221 l 2
 332 318 317 354 250 354 c 0
 193 354 154 314 154 288 c 2
 154 62 l 2
 154 0 216 30 216 8 c 0
 216 5 215 2 214 0 c 1
 17 0 l 1
EndSplineSet
EndChar

StartChar: Hbar
Encoding: 294 294 340
Width: 793
VWidth: 0
Flags: HW
HStem: 0 21G<32.5 305.5 488.5 761.5> 308 31<210 583> 455 31<30.0029 117 210 583 676 762.997> 616 20G<31.5 304.5 487.5 760.5>
VStem: 117 93<32.5851 308 339 455 486 604.11> 583 93<31.8904 308 339 455 486 604.11>
AnchorPoint: "r;o" 773 200 basechar 0
AnchorPoint: "r;hi" 793 610 basechar 0
AnchorPoint: "r;x" 773 385 basechar 0
AnchorPoint: "r;bl" 793 10 basechar 0
AnchorPoint: "l;o" 20 200 basechar 0
AnchorPoint: "l;hi" 0 610 basechar 0
AnchorPoint: "l;x" 20 385 basechar 0
AnchorPoint: "l;bl" 0 10 basechar 0
LayerCount: 3
Fore
SplineSet
486 626 m 0
 486 630 487 634 488 636 c 1
 760 636 l 1
 761 634 763 630 763 626 c 0
 763 599 676 639 676 561 c 2
 676 486 l 1
 760 486 l 1
 762 482 763 476 763 470 c 0
 763 464 762 459 760 455 c 1
 676 455 l 1
 676 75 l 2
 676 -1 763 36 763 10 c 0
 763 6 762 2 761 0 c 1
 489 0 l 1
 488 2 486 6 486 10 c 0
 486 37 583 -3 583 75 c 2
 583 308 l 1
 210 308 l 1
 210 75 l 2
 210 -1 307 36 307 10 c 0
 307 6 306 2 305 0 c 1
 33 0 l 1
 32 2 30 6 30 10 c 0
 30 37 117 -3 117 75 c 2
 117 455 l 1
 33 455 l 1
 31 460 30 465 30 471 c 0
 30 476 31 481 33 486 c 1
 117 486 l 1
 117 561 l 2
 117 637 30 600 30 626 c 0
 30 630 31 634 32 636 c 1
 304 636 l 1
 305 634 307 630 307 626 c 0
 307 599 210 639 210 561 c 2
 210 486 l 1
 583 486 l 1
 583 561 l 2
 583 639 486 600 486 626 c 0
583 455 m 1
 210 455 l 1
 210 339 l 1
 583 339 l 1
 583 455 l 1
EndSplineSet
EndChar

StartChar: tbar
Encoding: 359 359 341
Width: 303
VWidth: 0
Flags: HW
HStem: -12 44<168.491 254.477> 197 31<25.0029 72 149 280.997> 349 44<149 280.993>
VStem: 72 77<51.5977 197 228 344>
AnchorPoint: "r;o" 283 200 basechar 0
AnchorPoint: "r;x" 303 385 basechar 0
AnchorPoint: "r;bl" 303 10 basechar 0
AnchorPoint: "l;o" 0 200 basechar 0
AnchorPoint: "l;x" 0 385 basechar 0
AnchorPoint: "l;bl" 0 10 basechar 0
LayerCount: 3
Fore
SplineSet
288 29 m 0
 260 10 215 -12 173 -12 c 0
 82 -12 72 52 72 196 c 2
 72 197 l 1
 28 197 l 1
 26 202 25 207 25 213 c 0
 25 218 26 223 28 228 c 1
 72 228 l 1
 72 344 l 1
 29 345 25 343 25 353 c 0
 25 360 26 358 65 398 c 2
 116 450 l 2
 124 458 130 466 140 466 c 0
 147 466 149 459 149 450 c 2
 149 393 l 1
 270 393 l 2
 281 393 281 389 281 369 c 0
 281 352 271 349 255 349 c 2
 149 349 l 1
 149 228 l 1
 278 228 l 1
 280 224 281 218 281 212 c 0
 281 206 280 201 278 197 c 1
 149 197 l 1
 149 192 l 2
 149 77 156 32 215 32 c 0
 239 32 262 40 281 46 c 1
 287 42 288 36 288 32 c 0
 288 31 288 30 288 29 c 0
EndSplineSet
EndChar

StartChar: Tbar
Encoding: 358 358 342
Width: 720
VWidth: 0
Flags: HW
HStem: 0 21G<213.5 511.5> 316 31<164.003 316 409 560.997> 600 34<95.2726 309.573 414.87 634.61>
VStem: 316 93<32.9031 316 347 598.062>
AnchorPoint: "r;x" 640 385 basechar 0
AnchorPoint: "r;hi" 720 610 basechar 0
AnchorPoint: "r;o" 625 200 basechar 0
AnchorPoint: "r;bl" 610 10 basechar 0
AnchorPoint: "r;hi2" 720 670 basechar 0
AnchorPoint: "l;x" 80 385 basechar 0
AnchorPoint: "l;hi" 0 610 basechar 0
AnchorPoint: "l;o" 90 200 basechar 0
AnchorPoint: "l;bl" 110 10 basechar 0
LayerCount: 3
Fore
SplineSet
214 0 m 1
 213 2 212 6 212 10 c 0
 212 36 316 -3 316 75 c 2
 316 316 l 1
 167 316 l 1
 165 321 164 326 164 332 c 0
 164 337 165 342 167 347 c 1
 316 347 l 1
 316 503 l 2
 316 597 310 600 274 600 c 2
 176 600 l 2
 109 600 112 598 87 576 c 0
 44 538 29 522 26 522 c 0
 24 522 15 525 15 530 c 0
 15 533 50 625 56 649 c 0
 57 652 59 654 62 654 c 0
 68 654 89 634 103 634 c 2
 625 634 l 2
 633 634 660 650 664 650 c 0
 669 650 671 647 674 637 c 2
 685 595 l 2
 691 571 705 527 705 524 c 0
 705 521 698 518 694 518 c 0
 690 518 663 553 635 583 c 0
 621 598 611 600 590 600 c 2
 449 600 l 2
 410 600 409 585 409 505 c 2
 409 347 l 1
 558 347 l 1
 560 343 561 337 561 331 c 0
 561 325 560 320 558 316 c 1
 409 316 l 1
 409 75 l 2
 409 -3 513 36 513 10 c 0
 513 6 512 2 511 0 c 1
 214 0 l 1
EndSplineSet
EndChar

StartChar: lslash
Encoding: 322 322 343
Width: 231
VWidth: 0
Flags: HW
HStem: 0 21G<16.5 214.5> 389 20G<179.714 216> 644 20G<93.5 148.5>
VStem: 15 139<5 30 267 286 598.629 626.046> 77 77<22.8749 293 330 337 374 595.22>
DStem2: 17 295 17 258 0.865527 0.500863<-10.534 50.9299 158.145 220.542>
AnchorPoint: "l;hi2" 10 670 basechar 0
AnchorPoint: "r;o" 221 200 basechar 0
AnchorPoint: "r;hi" 231 610 basechar 0
AnchorPoint: "r;x" 221 385 basechar 0
AnchorPoint: "r;bl" 231 10 basechar 0
AnchorPoint: "l;o" 10 200 basechar 0
AnchorPoint: "l;x" 20 385 basechar 0
AnchorPoint: "l;bl" 0 10 basechar 0
LayerCount: 3
Fore
SplineSet
154 337 m 1xe8
 154 62 l 2xe8
 154 0 216 30 216 8 c 0
 216 5 215 2 214 0 c 1
 17 0 l 1
 16 2 15 5 15 8 c 0xf0
 15 30 77 -2 77 62 c 2
 77 293 l 1xe8
 17 258 l 1
 17 258 15 267 15 277 c 0xf0
 15 286 17 295 17 295 c 1
 77 330 l 1
 77 552 l 2xe8
 77 623 16 584 16 609 c 0
 16 640 40 607 147 664 c 1
 150 664 155 662 156 658 c 0
 156 656 154 609 154 605 c 2xf0
 154 374 l 1
 214 409 l 1
 214 409 216 402 216 392 c 0
 216 380 214 372 214 372 c 1
 154 337 l 1xe8
EndSplineSet
EndChar

StartChar: Lslash
Encoding: 321 321 344
Width: 616
VWidth: 0
Flags: HW
HStem: 0 34<210.528 484.967> 389 20G<342 410> 616 20G<31.5 294.5>
VStem: 117 93<35.0577 286 349 605.2>
DStem2: 32 295 32 260 0.956982 0.290149<-7.01286 78.7321 186.011 389.72>
AnchorPoint: "l;bl" 0 10 basechar 0
AnchorPoint: "l;x" 20 385 basechar 0
AnchorPoint: "l;hi" 0 610 basechar 0
AnchorPoint: "l;o" 20 200 basechar 0
AnchorPoint: "r;bl" 596 10 basechar 0
AnchorPoint: "r;x" 556 385 basechar 0
AnchorPoint: "r;hi" 496 610 basechar 0
AnchorPoint: "r;o" 616 200 basechar 0
LayerCount: 3
Fore
SplineSet
32 0 m 1
 31 2 30 6 30 10 c 0
 30 36 117 -1 117 75 c 2
 117 286 l 1
 32 260 l 1
 32 260 30 267 30 277 c 0
 30 286 32 295 32 295 c 1
 117 321 l 1
 117 561 l 2
 117 637 30 600 30 626 c 0
 30 630 31 634 32 636 c 1
 294 636 l 1
 295 634 297 630 297 626 c 0
 297 599 210 639 210 561 c 2
 210 349 l 1
 408 409 l 1
 408 409 410 402 410 392 c 0
 410 380 408 374 408 374 c 1
 210 314 l 1
 210 56 l 2
 210 45 217 34 235 34 c 2
 441 34 l 2
 482 34 490 45 557 168 c 0
 561 176 576 172 576 162 c 0
 576 160 576 138 564 80 c 0
 552 25 550 0 534 0 c 2
 32 0 l 1
EndSplineSet
EndChar

StartChar: ldot
Encoding: 320 320 345
Width: 391
VWidth: 0
Flags: HW
HStem: 0 21G<16.5 214.5> 281 93<266.28 346.557> 644 20G<93.5 148.5>
VStem: 77 77<22.8749 595.22> 258 96<289.49 366.508>
AnchorPoint: "l;hi2" 10 670 basechar 0
AnchorPoint: "r;o" 391 200 basechar 0
AnchorPoint: "r;hi" 231 610 basechar 0
AnchorPoint: "r;x" 391 385 basechar 0
AnchorPoint: "r;bl" 231 10 basechar 0
AnchorPoint: "l;o" 10 200 basechar 0
AnchorPoint: "l;x" 20 385 basechar 0
AnchorPoint: "l;bl" 0 10 basechar 0
LayerCount: 3
Fore
SplineSet
77 62 m 2
 77 552 l 2
 77 623 16 584 16 609 c 0
 16 640 40 607 147 664 c 1
 150 664 155 662 156 658 c 0
 156 656 154 609 154 605 c 2
 154 62 l 2
 154 0 216 30 216 8 c 0
 216 5 215 2 214 0 c 1
 17 0 l 1
 16 2 15 5 15 8 c 0
 15 30 77 -2 77 62 c 2
304 374 m 0
 338 374 354 350 354 327 c 0
 354 304 339 281 308 281 c 0
 277 281 258 305 258 330 c 0
 258 350 271 374 304 374 c 0
EndSplineSet
EndChar

StartChar: kgreenlandic
Encoding: 312 312 346
Width: 471
VWidth: 0
Flags: HW
HStem: 0 21G<16.5 214.5 256.5 454.5> 170 21<154 198.072> 388 5G<137 148.5 260.5 440.5>
VStem: 77 77<22.8749 169 191.001 354.28>
DStem2: 220 221 265 231 0.654447 0.756108<21.4343 150.214> 263 212 222 135 0.601435 -0.798922<-15.3008 160.981>
AnchorPoint: "r;o" 441 200 basechar 0
AnchorPoint: "r;x" 461 385 basechar 0
AnchorPoint: "r;bl" 471 10 basechar 0
AnchorPoint: "l;o" 10 200 basechar 0
AnchorPoint: "l;x" 0 385 basechar 0
AnchorPoint: "l;bl" 0 10 basechar 0
LayerCount: 3
Fore
SplineSet
147 408 m 1
 150 408 155 406 156 402 c 0
 156 400 154 355 154 351 c 2
 154 192 l 1
 154 192 158 191 164 191 c 0
 177 191 199 195 220 221 c 2
 286 301 l 2
 303 322 308 336 308 346 c 0
 308 356 303 361 300 364 c 0
 282 381 259 369 259 385 c 0
 259 388 260 391 261 393 c 1
 440 393 l 1
 441 391 442 388 442 385 c 0
 442 365 414 391 368 350 c 0
 359 342 348 330 335 315 c 2
 265 231 l 2
 260 226 258 219 263 212 c 2
 369 68 l 2
 383 49 389 41 397 34 c 0
 421 12 456 25 456 8 c 0
 456 5 455 2 454 0 c 1
 257 0 l 1
 256 2 255 5 255 8 c 0
 255 24 292 13 292 32 c 0
 292 39 286 49 272 68 c 2
 222 135 l 2
 210 150 196 170 170 170 c 0
 165 170 154 169 154 169 c 1
 154 62 l 2
 154 0 216 30 216 8 c 0
 216 5 215 2 214 0 c 1
 17 0 l 1
 16 2 15 5 15 8 c 0
 15 30 77 -2 77 62 c 2
 77 311 l 2
 77 382 16 343 16 369 c 0
 16 383 21 385 35 385 c 0
 77 385 127 396 147 408 c 1
EndSplineSet
EndChar

StartChar: uni0302.cap
Encoding: 65545 -1 347
Width: 0
Flags: W
HStem: 496 135
VStem: -348 234<502 509>
AnchorPoint: "top" -230 540 mark 0
LayerCount: 3
Fore
SplineSet
-231 562 m 1
 -303 514 -327 496 -337 496 c 0
 -340 496 -348 502 -348 505 c 0
 -348 509 -314 537 -249 629 c 1
 -249 629 -237 631 -230 631 c 0
 -226 631 -213 629 -213 629 c 1
 -148 537 -114 509 -114 505 c 0
 -114 502 -122 496 -125 496 c 0
 -135 496 -160 513 -231 562 c 1
EndSplineSet
Validated: 1
EndChar

StartChar: uni0237.ld
Encoding: 65546 -1 348
Width: 267
VWidth: 0
Flags: HW
HStem: -281 21G<4.5 21> 392 20G<95.5 150.5>
VStem: 79 77<-128.421 341.22>
LayerCount: 3
Fore
SplineSet
-98 -185 m 0
 -45 -185 -43 -252 -20 -252 c 0
 6 -252 23 -214 44 -142 c 0
 86 6 169 339 169 346 c 0
 169 355 165 361 156 361 c 0
 134 361 81 296 55 263 c 0
 46 252 41 245 35 245 c 0
 31 245 27 247 27 253 c 0
 27 276 123 408 215 408 c 0
 234 408 242 397 242 385 c 0xe8
 242 364 173 103 124 -88 c 0
 103 -167 98 -207 21 -258 c 0
 -6 -276 -35 -282 -60 -282 c 0
 -115 -282 -141 -252 -141 -225 c 0
 -141 -201 -121 -185 -98 -185 c 0
EndSplineSet
EndChar

StartChar: uni030C.cap
Encoding: 65547 -1 352
Width: 0
Flags: W
HStem: 496 135
VStem: -348 234<618 625>
AnchorPoint: "top" -230 540 mark 0
LayerCount: 3
Fore
SplineSet
-231 565 m 5
 -159 613 -135 631 -125 631 c 4
 -122 631 -114 625 -114 622 c 4
 -114 618 -148 590 -213 498 c 5
 -213 498 -225 496 -232 496 c 4
 -236 496 -249 498 -249 498 c 5
 -314 590 -348 618 -348 622 c 4
 -348 625 -340 631 -337 631 c 4
 -327 631 -302 614 -231 565 c 5
EndSplineSet
Validated: 1
EndChar

StartChar: Iogonek
Encoding: 302 302 353
Width: 327
VWidth: 0
Flags: HW
HStem: -222 40<158.316 236.294> 616 20G<31.5 294.5>
VStem: 70 64<-160.908 -59.4678> 117 93<30.7996 605.2>
AnchorPoint: "r;o" 307 200 basechar 0
AnchorPoint: "r;hi" 327 610 basechar 0
AnchorPoint: "r;x" 307 385 basechar 0
AnchorPoint: "r;bl" 327 10 basechar 0
AnchorPoint: "l;o" 20 200 basechar 0
AnchorPoint: "l;hi" 0 610 basechar 0
AnchorPoint: "l;x" 20 385 basechar 0
AnchorPoint: "l;bl" 0 10 basechar 0
AnchorPoint: "r;lo" 277 -200 basechar 0
AnchorPoint: "l;lo" 40 -200 basechar 0
LayerCount: 3
Fore
SplineSet
33 0 m 1xe0
 32 2 30 6 30 10 c 0
 30 37 117 -3 117 75 c 2
 117 561 l 2
 117 637 30 600 30 626 c 0
 30 630 31 634 32 636 c 1
 294 636 l 1
 295 634 297 630 297 626 c 0
 297 599 210 639 210 561 c 2
 210 75 l 2xd0
 210 -1 297 36 297 10 c 0
 297 6 296 2 295 0 c 1
 226 0 l 2
 169 0 134 -38 134 -98 c 0
 134 -149 165 -182 201 -182 c 0
 231 -182 253 -170 253 -170 c 1
 257 -173 260 -176 260 -185 c 1
 260 -185 223 -222 168 -222 c 0
 103 -222 70 -175 70 -130 c 0
 70 -64 118 -23 156 0 c 1
 33 0 l 1xe0
EndSplineSet
EndChar

StartChar: Ldot
Encoding: 319 319 362
Width: 616
VWidth: 0
Flags: HW
HStem: 0 34<210.528 484.967> 281 93<416.28 496.557> 616 20G<31.5 294.5>
VStem: 117 93<35.0577 605.2> 408 96<289.49 366.508>
AnchorPoint: "r;o" 616 200 basechar 0
AnchorPoint: "r;hi" 496 610 basechar 0
AnchorPoint: "r;x" 556 385 basechar 0
AnchorPoint: "r;bl" 596 10 basechar 0
AnchorPoint: "l;o" 20 200 basechar 0
AnchorPoint: "l;hi" 0 610 basechar 0
AnchorPoint: "l;x" 20 385 basechar 0
AnchorPoint: "l;bl" 0 10 basechar 0
LayerCount: 3
Fore
SplineSet
32 0 m 1
 31 2 30 6 30 10 c 0
 30 36 117 -1 117 75 c 2
 117 561 l 2
 117 637 30 600 30 626 c 0
 30 630 31 634 32 636 c 1
 294 636 l 1
 295 634 297 630 297 626 c 0
 297 599 210 639 210 561 c 2
 210 56 l 2
 210 45 217 34 235 34 c 2
 441 34 l 2
 482 34 490 45 557 168 c 0
 561 176 576 172 576 162 c 0
 576 160 576 138 564 80 c 0
 552 25 550 0 534 0 c 2
 32 0 l 1
454 374 m 0
 488 374 504 350 504 327 c 0
 504 304 489 281 458 281 c 0
 427 281 408 305 408 330 c 0
 408 350 421 374 454 374 c 0
EndSplineSet
EndChar

StartChar: uni0308.cap
Encoding: 65548 -1 365
Width: 0
VWidth: 0
Flags: W
HStem: 538 93<-348.72 -268.443 -188.72 -108.443>
VStem: -357 96<546.49 623.508> -197 96<546.49 623.508>
AnchorPoint: "top" -230 540 mark 0
LayerCount: 3
Fore
SplineSet
-151 631 m 0
 -117 631 -101 607 -101 584 c 0
 -101 561 -116 538 -147 538 c 0
 -178 538 -197 562 -197 587 c 0
 -197 607 -184 631 -151 631 c 0
-311 631 m 0
 -277 631 -261 607 -261 584 c 0
 -261 561 -276 538 -307 538 c 0
 -338 538 -357 562 -357 587 c 0
 -357 607 -344 631 -311 631 c 0
EndSplineSet
Validated: 1
EndChar

StartChar: uni0306.cap
Encoding: 65549 -1 366
Width: 0
Flags: W
HStem: 501 59<-295.799 -164.201>
VStem: -344 25<597.411 630.994> -141 25<597.411 630.994>
AnchorPoint: "top" -230 540 mark 0
LayerCount: 3
Fore
SplineSet
-230 560 m 0
 -149 560 -145 618 -141 629 c 1
 -141 629 -136 631 -129 631 c 0
 -122 631 -116 629 -116 629 c 1
 -116 628 l 2
 -116 614 -123 501 -230 501 c 0
 -337 501 -344 614 -344 628 c 2
 -344 629 l 1
 -344 629 -338 631 -331 631 c 0
 -324 631 -319 629 -319 629 c 1
 -315 618 -311 560 -230 560 c 0
EndSplineSet
Validated: 1
EndChar

StartChar: gravecomb.cap
Encoding: 65550 -1 367
Width: 0
VWidth: 0
Flags: W
HStem: 485 151
VStem: -337 131
AnchorPoint: "top" -230 540 mark 0
LayerCount: 3
Fore
SplineSet
-337 605 m 0
 -337 620 -323 636 -304 636 c 0
 -273 636 -259 590 -234 546 c 0
 -218 518 -206 501 -206 496 c 0
 -206 488 -212 485 -215 485 c 0
 -227 485 -236 493 -268 524 c 0
 -284 539 -337 574 -337 605 c 0
EndSplineSet
Validated: 1
EndChar

StartChar: acutecomb.cap
Encoding: 65551 -1 368
Width: 0
VWidth: 0
Flags: W
HStem: 485 151
VStem: -252 131
AnchorPoint: "top" -230 540 mark 0
LayerCount: 3
Fore
SplineSet
-121 605 m 4
 -121 574 -174 539 -190 524 c 4
 -222 493 -231 485 -243 485 c 4
 -246 485 -252 488 -252 496 c 4
 -252 501 -240 518 -224 546 c 4
 -199 590 -185 636 -154 636 c 4
 -135 636 -121 620 -121 605 c 4
EndSplineSet
Validated: 1
EndChar

StartChar: tildecomb.cap
Encoding: 65552 -1 369
Width: 996
VWidth: 0
Flags: W
HStem: 528 60<-219.524 -146.345> 571 60<-312.655 -238.356>
VStem: -352 245
AnchorPoint: "top" -230 540 mark 0
LayerCount: 3
Fore
SplineSet
-185 528 m 0xa0
 -223 528 -255 571 -291 571 c 0
 -321 571 -336 529 -336 529 c 1
 -339 529 -349 530 -352 532 c 1
 -352 532 -324 631 -274 631 c 0x60
 -236 631 -203 588 -168 588 c 0
 -138 588 -123 630 -123 630 c 1
 -120 630 -110 629 -107 627 c 1
 -107 627 -135 528 -185 528 c 0xa0
EndSplineSet
Validated: 1
EndChar

StartChar: uni030B.cap
Encoding: 65553 -1 371
Width: 0
VWidth: 0
Flags: W
HStem: 485 151
VStem: -325 271
AnchorPoint: "top" -230 540 mark 0
LayerCount: 3
Fore
SplineSet
-54 605 m 0
 -54 574 -107 539 -123 524 c 0
 -155 493 -164 485 -176 485 c 0
 -179 485 -185 488 -185 496 c 0
 -185 501 -173 518 -157 546 c 0
 -132 590 -118 636 -87 636 c 0
 -68 636 -54 620 -54 605 c 0
-194 605 m 0
 -194 574 -247 539 -263 524 c 0
 -295 493 -304 485 -316 485 c 0
 -319 485 -325 488 -325 496 c 0
 -325 501 -313 518 -297 546 c 0
 -272 590 -258 636 -227 636 c 0
 -208 636 -194 620 -194 605 c 0
EndSplineSet
Validated: 1
EndChar

StartChar: uni030A.cap
Encoding: 65554 -1 373
Width: 0
VWidth: 0
Flags: W
HStem: 475 37<-262.96 -193.617> 594 37<-263.634 -195.482>
VStem: -310 40<518.865 589.293> -188 40<516.58 587.673>
AnchorPoint: "top" -230 540 mark 0
LayerCount: 3
Fore
SplineSet
-231 631 m 0
 -174 631 -148 591 -148 552 c 0
 -148 513 -177 475 -227 475 c 0
 -277 475 -310 515 -310 557 c 0
 -310 591 -287 631 -231 631 c 0
-231 594 m 0
 -259 594 -270 572 -270 554 c 0
 -270 532 -254 512 -227 512 c 0
 -200 512 -188 532 -188 552 c 0
 -188 572 -202 594 -231 594 c 0
EndSplineSet
Validated: 1
EndChar

StartChar: uni0307.cap
Encoding: 65555 -1 374
Width: 0
VWidth: 0
Flags: W
HStem: 538 93<-268.72 -188.443>
VStem: -277 96<546.49 623.508>
AnchorPoint: "top" -230 540 mark 0
LayerCount: 3
Fore
SplineSet
-231 631 m 0
 -197 631 -181 607 -181 584 c 0
 -181 561 -196 538 -227 538 c 0
 -258 538 -277 562 -277 587 c 0
 -277 607 -264 631 -231 631 c 0
EndSplineSet
Validated: 1
EndChar

StartChar: uni0304.cap
Encoding: 65556 -1 376
Width: 824
VWidth: 0
Flags: W
HStem: 565 45<-346 -112>
VStem: -346 234<565 610>
AnchorPoint: "top" -230 540 mark 0
LayerCount: 3
Fore
SplineSet
-112 565 m 1
 -346 565 l 1
 -346 610 l 1
 -112 610 l 1
 -112 565 l 1
EndSplineSet
Validated: 1
EndChar

StartChar: uni0326
Encoding: 806 806 378
Width: 0
VWidth: 0
Flags: W
HStem: -270 21G<-261.5 -256.5> -138 76<-273.708 -210.103>
VStem: -209 40<-207.747 -114>
AnchorPoint: "cedilla" -230 -80 mark 0
LayerCount: 3
Fore
SplineSet
-169 -138 m 0
 -169 -186 -191 -215 -214 -240 c 0
 -240 -268 -255 -270 -258 -270 c 0
 -265 -270 -268 -267 -270 -260 c 0
 -273 -251 -269 -248 -261 -241 c 0
 -230 -216 -209 -186 -209 -162 c 0
 -209 -146 -218 -138 -242 -138 c 0
 -270 -138 -280 -124 -280 -106 c 0
 -280 -84 -264 -62 -230 -62 c 0
 -199 -62 -169 -90 -169 -138 c 0
EndSplineSet
Validated: 1
EndChar

StartChar: uni0327
Encoding: 807 807 386
Width: 0
VWidth: 0
Flags: W
HStem: -270 21G<-261.5 -256.5> -138 76<-273.708 -210.103>
VStem: -209 40<-207.747 -114>
AnchorPoint: "cedilla" -230 -80 mark 0
LayerCount: 3
Fore
SplineSet
-169 -138 m 4
 -169 -186 -191 -215 -214 -240 c 4
 -240 -268 -255 -270 -258 -270 c 4
 -265 -270 -268 -267 -270 -260 c 4
 -273 -251 -269 -248 -261 -241 c 4
 -230 -216 -209 -186 -209 -162 c 4
 -209 -146 -218 -138 -242 -138 c 4
 -270 -138 -280 -124 -280 -106 c 4
 -280 -84 -264 -62 -230 -62 c 4
 -199 -62 -169 -90 -169 -138 c 4
EndSplineSet
Validated: 1
EndChar

StartChar: uni0312
Encoding: 786 786 394
Width: 0
VWidth: 0
Flags: W
HStem: 454 76<-249.897 -186.292> 642 20G<-203.5 -198.5>
VStem: -291 40<506 599.747>
AnchorPoint: "top" -230 540 mark 0
LayerCount: 3
Fore
SplineSet
-291 530 m 0
 -291 578 -269 607 -246 632 c 0
 -220 660 -205 662 -202 662 c 0
 -195 662 -192 659 -190 652 c 0
 -187 643 -191 640 -199 633 c 0
 -230 608 -251 578 -251 554 c 0
 -251 538 -242 530 -218 530 c 0
 -190 530 -180 516 -180 498 c 0
 -180 476 -196 454 -230 454 c 0
 -261 454 -291 482 -291 530 c 0
EndSplineSet
Validated: 1
EndChar

StartChar: Oslash
Encoding: 216 216 398
Width: 739
VWidth: 0
Flags: HW
HStem: -22 33<302.436 465.567> 622 32<295.584 446.98>
VStem: 40 109<193.678 436.303> 602 97<185.693 447.723>
DStem2: 120 -103 146 -118 0.500052 0.865995<-2.03259 151.344 215.081 765.686 830.644 964.551>
AnchorPoint: "r;o" 739 200 basechar 0
AnchorPoint: "r;hi" 689 610 basechar 0
AnchorPoint: "r;x" 739 385 basechar 0
AnchorPoint: "r;bl" 689 10 basechar 0
AnchorPoint: "l;o" 0 200 basechar 0
AnchorPoint: "l;hi" 50 610 basechar 0
AnchorPoint: "l;x" 0 385 basechar 0
AnchorPoint: "l;bl" 50 10 basechar 0
LayerCount: 3
Fore
SplineSet
370 622 m 0
 215 622 149 458 149 330 c 0
 149 244 173 147 228 83 c 1
 508 568 l 1
 468 604 420 622 370 622 c 0
529 545 m 1
 249 61 l 1
 284 30 329 11 384 11 c 0
 470 11 602 59 602 303 c 0
 602 412 573 492 529 545 c 1
222 13 m 1
 146 -118 l 1
 136 -115 127 -111 120 -103 c 1
 195 28 l 1
 105 83 40 182 40 325 c 0
 40 468 148 654 367 654 c 0
 427 654 485 642 536 617 c 1
 601 730 l 1
 613 728 621 722 627 715 c 1
 562 602 l 1
 643 550 699 459 699 320 c 0
 699 90 541 -22 377 -22 c 0
 323 -22 270 -10 222 13 c 1
EndSplineSet
EndChar

StartChar: uni0308.narrow
Encoding: 65557 -1 399
Width: 0
VWidth: 0
Flags: W
HStem: 568 93<-348.72 -268.443 -218.72 -138.443>
VStem: -357 96<576.49 653.508> -227 96<576.49 653.508>
AnchorPoint: "top" -230 540 mark 0
LayerCount: 3
Fore
SplineSet
-181 661 m 0
 -147 661 -131 637 -131 614 c 0
 -131 591 -146 568 -177 568 c 0
 -208 568 -227 592 -227 617 c 0
 -227 637 -214 661 -181 661 c 0
-311 661 m 0
 -277 661 -261 637 -261 614 c 0
 -261 591 -276 568 -307 568 c 0
 -338 568 -357 592 -357 617 c 0
 -357 637 -344 661 -311 661 c 0
EndSplineSet
Validated: 1
EndChar

StartChar: uni0315
Encoding: 789 789 400
Width: 0
VWidth: 0
Flags: W
HStem: 454 208.086<-202.129 -199>
VStem: -211 71.3037<562.735 652.587>
AnchorPoint: "commaright" -230 540 mark 0
LayerCount: 3
Fore
SplineSet
-169.274414062 662.0859375 m 0
 -156.012695312 662.0859375 -139.696289062 656.364257812 -139.696289062 633.477539062 c 0
 -139.696289062 617.182617188 -148.909179688 591.439453125 -166 552 c 0
 -192 492 -199 454 -207 454 c 0
 -220 454 -222 460 -222 462 c 0
 -222 467 -216 505 -211 561 c 0
 -207.088867188 606.959960938 -202.12890625 662.0859375 -169.274414062 662.0859375 c 0
EndSplineSet
Validated: 1
EndChar

StartChar: periodcentered
Encoding: 183 183 404
Width: 244
VWidth: 0
Flags: W
HStem: 281 93<82.2803 162.557>
VStem: 74 96<289.49 366.508>
LayerCount: 3
Fore
SplineSet
120 374 m 0
 154 374 170 350 170 327 c 0
 170 304 155 281 124 281 c 0
 93 281 74 305 74 330 c 0
 74 350 87 374 120 374 c 0
EndSplineSet
Validated: 1
EndChar

StartChar: degree
Encoding: 176 176 405
Width: 354
VWidth: 0
Flags: W
HStem: 474 37<131.344 214.241> 628 36<129.879 209.756>
VStem: 73 42<524.677 616.325> 227 42<521.025 614.294>
LayerCount: 3
Fore
SplineSet
169 664 m 0
 238 664 269 614 269 567 c 0
 269 520 233 474 173 474 c 0
 113 474 73 522 73 573 c 0
 73 614 101 664 169 664 c 0
168 628 m 0
 130 628 115 593 115 569 c 0
 115 539 137 511 174 511 c 0
 211 511 227 539 227 567 c 0
 227 595 208 628 168 628 c 0
EndSplineSet
Validated: 1
EndChar

StartChar: eng
Encoding: 331 331 406
Width: 486
VWidth: 0
Flags: HW
HStem: -222 21G<282.5 301> 0 21G<16.5 214.5> 354 50<210.49 310.861> 392 20G<93.5 148.5>
VStem: 77 77<22.8749 341.22> 332 77<-81.5746 331.802>
AnchorPoint: "r;lo" 446 -200 basechar 0
AnchorPoint: "r;o" 476 200 basechar 0
AnchorPoint: "r;x" 476 385 basechar 0
AnchorPoint: "r;bl" 486 10 basechar 0
AnchorPoint: "l;o" 0 200 basechar 0
AnchorPoint: "l;x" 0 385 basechar 0
AnchorPoint: "l;bl" 0 10 basechar 0
LayerCount: 3
Fore
SplineSet
332 221 m 2xec
 332 318 320 354 250 354 c 0xec
 193 354 154 314 154 288 c 2
 154 62 l 2
 154 0 216 30 216 8 c 0
 216 5 215 2 214 0 c 1
 17 0 l 1
 16 2 15 5 15 8 c 0
 15 30 77 -2 77 62 c 2
 77 298 l 2
 77 369 16 330 16 355 c 0
 16 386 40 352 147 412 c 1xdc
 150 412 155 410 156 406 c 1
 155 400 150 371 148 323 c 1
 161 339 l 1
 185 364 221 404 286 404 c 0
 399 404 409 346 409 227 c 2
 409 45 l 2
 409 -124 315 -198 287 -222 c 1
 278 -217 271 -212 268 -202 c 1
 327 -142 332 -119 332 48 c 2
 332 221 l 2xec
EndSplineSet
AlternateSubs2: "'aalt' Access All Alternates lookup 0 subtable" eng.ld
AlternateSubs2: "'aalt' Access All Alternates in Latin lookup 0 subtable" eng.ld
Substitution2: "'ss01' Style Set 1 in Latin lookup 1 subtable" eng.ld
EndChar

StartChar: Eng
Encoding: 330 330 407
Width: 786
VWidth: 0
Flags: HW
HStem: -222 21G<533.5 549> 0 21G<49.5 274.5> 616 20G<32.5 195.5 522.5 753.5>
VStem: 142 33<41.14 307.589> 601 60<-80.5879 57.8201> 635 26<257.502 575.624>
DStem2: 227 607 116 575 0.673616 -0.739082<-56.684 23.9491 44.456 606.089>
AnchorPoint: "r;lo" 698 -200 basechar 0
AnchorPoint: "r;o" 766 200 basechar 0
AnchorPoint: "r;hi" 786 610 basechar 0
AnchorPoint: "r;x" 766 385 basechar 0
AnchorPoint: "r;bl" 766 10 basechar 0
AnchorPoint: "l;o" 20 200 basechar 0
AnchorPoint: "l;hi" 0 610 basechar 0
AnchorPoint: "l;x" 20 385 basechar 0
AnchorPoint: "l;bl" 0 10 basechar 0
LayerCount: 3
Fore
SplineSet
30 626 m 0xf8
 30 630 32 634 33 636 c 1
 187 636 l 2
 204 636 207 629 227 607 c 2
 582 211 l 2
 613 177 631 156 632 156 c 0
 634 156 635 200 635 446 c 0
 635 541 635 590 589 607 c 0
 559 618 521 609 521 626 c 0
 521 630 522 634 523 636 c 1
 753 636 l 1
 754 634 756 630 756 626 c 0
 756 609 722 621 693 605 c 0
 661 587 661 544 661 413 c 2
 661 101 l 2xf4
 661 28 660 -4 651 -44 c 0
 626 -151 560 -203 538 -222 c 1
 529 -217 522 -212 519 -202 c 1
 554 -166 601 -103 601 -17 c 2
 601 11 l 2
 601 46 507 146 507 146 c 26
 241 440 l 2
 205 480 182 505 181 505 c 0
 179 505 175 226 175 153 c 0
 175 124 176 100 176 85 c 0
 178 50 190 37 198 32 c 0
 221 16 276 30 276 10 c 0
 276 6 275 2 274 0 c 1
 50 0 l 1
 49 2 47 6 47 10 c 0
 47 30 97 13 122 37 c 0
 138 53 141 71 142 110 c 0
 148 235 151 342 151 425 c 2
 151 522 l 2
 151 533 151 539 136 554 c 2
 116 575 l 2
 75 619 30 625 30 626 c 0xf8
EndSplineSet
AlternateSubs2: "'aalt' Access All Alternates lookup 0 subtable" Eng.ld
AlternateSubs2: "'aalt' Access All Alternates in Latin lookup 0 subtable" Eng.ld
Substitution2: "'ss01' Style Set 1 in Latin lookup 1 subtable" Eng.ld
EndChar

StartChar: aogonek
Encoding: 261 261 408
Width: 402
VWidth: 0
Flags: HW
HStem: -222 40<256.932 335.294> -13 40<101.5 204.392> 369 35<133.897 276.492>
VStem: 32 75<255.858 336.81> 38 85<34.394 122.745> 175 64<-166.967 -75.2931> 247 77<51.4188 187 203.22 353.691>
AnchorPoint: "r;lo" 377 -200 basechar 0
AnchorPoint: "r;o" 392 200 basechar 0
AnchorPoint: "r;x" 377 385 basechar 0
AnchorPoint: "r;bl" 402 10 basechar 0
AnchorPoint: "l;o" 0 200 basechar 0
AnchorPoint: "l;x" 20 385 basechar 0
AnchorPoint: "l;bl" 0 10 basechar 0
LayerCount: 3
Fore
SplineSet
247 187 m 1xee
 238 184 217 178 193 167 c 0
 159 151 123 133 123 81 c 0
 123 51 141 27 167 27 c 0
 177 27 247 40 247 98 c 2
 247 187 l 1xee
267 -222 m 0
 199 -222 175 -177 175 -137 c 0
 175 -89 207 -61 233 -40 c 0
 259 -18 284 -4 284 -4 c 1
 284 -4 256 10 251 48 c 1
 230 17 186 -13 126 -13 c 0
 77 -13 38 16 38 71 c 0xee
 38 125 95 168 247 209 c 1
 247 282 l 2
 247 327 242 369 177 369 c 0
 133 369 107 350 107 333 c 0
 107 328 112 314 112 296 c 0
 112 265 95 250 75 250 c 0
 54 250 32 266 32 297 c 0xf6
 32 341 129 404 225 404 c 0
 324 404 324 357 324 231 c 2
 324 125 l 2
 324 75 325 44 344 44 c 0
 367 44 365 65 379 65 c 0
 384 65 386 59 386 52 c 0
 386 13 343 4 301 -19 c 0
 258 -42 239 -76 239 -109 c 0
 239 -160 270 -182 300 -182 c 0
 330 -182 352 -170 352 -170 c 1
 356 -173 359 -176 359 -185 c 1
 359 -185 322 -222 267 -222 c 0
EndSplineSet
EndChar

StartChar: Eng.ld
Encoding: 65565 -1 409
Width: 786
VWidth: 0
Flags: HW
HStem: -281 21G<509.5 526> 0 21G<49.5 274.5> 616 20G<32.5 195.5 522.5 753.5>
VStem: 142 33<41.14 307.589> 602 59<-128.278 53.2797> 635 26<257.502 575.624>
DStem2: 227 607 116 575 0.673616 -0.739082<-56.684 23.9491 44.456 606.762>
AnchorPoint: "l;bl" 0 10 basechar 0
AnchorPoint: "l;x" 20 385 basechar 0
AnchorPoint: "l;hi" 0 610 basechar 0
AnchorPoint: "l;o" 20 200 basechar 0
AnchorPoint: "r;bl" 766 10 basechar 0
AnchorPoint: "r;x" 766 385 basechar 0
AnchorPoint: "r;hi" 786 610 basechar 0
AnchorPoint: "r;o" 766 200 basechar 0
AnchorPoint: "r;lo" 698 -200 basechar 0
LayerCount: 3
Fore
SplineSet
661 -14 m 2xf8
 661 -181 538 -260 514 -281 c 1
 505 -276 500 -269 497 -259 c 1
 559 -200 602 -167 602 -5 c 2
 602 11 l 2xf8
 602 42 507 146 507 146 c 26
 241 440 l 2
 205 480 182 505 181 505 c 0
 179 505 175 226 175 153 c 0
 175 124 176 100 176 85 c 0
 178 50 190 37 198 32 c 0
 221 16 276 30 276 10 c 0
 276 6 275 2 274 0 c 1
 50 0 l 1
 49 2 47 6 47 10 c 0
 47 30 97 13 122 37 c 0
 138 53 141 71 142 110 c 0
 148 235 151 342 151 425 c 2
 151 522 l 2
 151 533 151 539 136 554 c 2
 116 575 l 2
 75 619 30 625 30 626 c 0
 30 630 32 634 33 636 c 1
 187 636 l 2
 204 636 207 629 227 607 c 2
 582 211 l 2
 613 177 632 156 633 156 c 0
 635 156 635 200 635 446 c 0
 635 541 635 590 589 607 c 0
 559 618 521 609 521 626 c 0
 521 630 522 634 523 636 c 1
 753 636 l 1
 754 634 756 630 756 626 c 0
 756 609 722 621 693 605 c 0
 661 587 661 544 661 413 c 2xf4
 661 -14 l 2xf8
EndSplineSet
EndChar

StartChar: eng.ld
Encoding: 65566 -1 410
Width: 486
VWidth: 0
Flags: HW
HStem: -281 21G<257.5 274> 0 21G<16.5 214.5> 354 50<210.49 310.861> 392 20G<93.5 148.5>
VStem: 77 77<22.8749 341.22> 332 77<-128.421 331.802>
AnchorPoint: "l;bl" 0 10 basechar 0
AnchorPoint: "l;x" 0 385 basechar 0
AnchorPoint: "l;o" 0 200 basechar 0
AnchorPoint: "r;bl" 486 10 basechar 0
AnchorPoint: "r;x" 476 385 basechar 0
AnchorPoint: "r;o" 476 200 basechar 0
AnchorPoint: "r;lo" 446 -200 basechar 0
LayerCount: 3
Fore
SplineSet
332 -11 m 2xec
 332 221 l 2
 332 318 320 354 250 354 c 0xec
 193 354 154 314 154 288 c 2
 154 62 l 2
 154 0 216 30 216 8 c 0
 216 5 215 2 214 0 c 1
 17 0 l 1
 16 2 15 5 15 8 c 0
 15 30 77 -2 77 62 c 2
 77 298 l 2
 77 369 16 330 16 355 c 0
 16 386 40 352 147 412 c 1xdc
 150 412 155 410 156 406 c 1
 155 400 150 371 148 323 c 1
 161 339 l 1
 185 364 221 404 286 404 c 0
 399 404 409 346 409 227 c 2
 409 -14 l 2
 409 -183 286 -260 262 -281 c 1
 253 -276 248 -269 245 -259 c 1
 307 -200 332 -173 332 -11 c 2xec
EndSplineSet
EndChar

StartChar: Aogonek
Encoding: 260 260 411
Width: 713
VWidth: 0
Flags: HW
HStem: -222 40<456.932 535.294> 0 21G<32.5 257.5> 240 36<224.095 412.999> 627 20G<339.5 353.5>
VStem: 30 115<8 60.5> 375 64<-166.967 -66.9903>
DStem2: 115 79 160 114 0.343193 0.939265<-12.609 187.256 227.262 498.877> 408 537 330 512 0.363403 -0.931632<-31.7375 241.115 278.489 486.953>
AnchorPoint: "r;lo" 578 -200 basechar 0
AnchorPoint: "r;o" 653 200 basechar 0
AnchorPoint: "r;hi" 593 610 basechar 0
AnchorPoint: "r;x" 623 385 basechar 0
AnchorPoint: "r;bl" 713 10 basechar 0
AnchorPoint: "l;o" 50 200 basechar 0
AnchorPoint: "l;hi" 130 610 basechar 0
AnchorPoint: "l;x" 80 385 basechar 0
AnchorPoint: "l;bl" 0 10 basechar 0
LayerCount: 3
Fore
SplineSet
306 512 m 2
 230 304 l 2
 227 295 223 284 224 281 c 0
 226 275 230 276 235 276 c 2
 398 276 l 2
 412 276 413 277 413 280 c 0
 413 283 413 287 411 293 c 2
 330 512 l 2
 323 532 320 536 318 536 c 0
 316 536 313 532 306 512 c 2
437 223 m 0
 431 239 429 240 416 240 c 2
 220 240 l 2
 208 240 206 239 201 226 c 2
 160 114 l 2
 149 85 145 67 145 54 c 0
 145 44 147 38 151 34 c 0
 169 15 259 33 259 10 c 0
 259 6 258 2 257 0 c 1
 33 0 l 1
 32 2 30 6 30 10 c 0
 30 29 67 11 92 38 c 0
 100 46 108 60 115 79 c 0
 194 275 282 528 318 622 c 0
 326 643 333 647 346 647 c 0
 361 647 368 640 369 638 c 2
 408 537 l 2
 586 78 559 139 589 74 c 0
 596 59 603 40 622 29 c 0
 639 20 683 27 683 10 c 0
 683 6 682 2 681 0 c 1
 568 0 l 2
 524 0 486 -3 457 -48 c 0
 446 -65 439 -85 439 -109 c 0
 439 -160 470 -182 500 -182 c 0
 530 -182 552 -170 552 -170 c 1
 556 -173 559 -176 559 -185 c 1
 559 -185 522 -222 467 -222 c 0
 399 -222 375 -177 375 -137 c 0
 375 -70 426 -29 465 -1 c 0
 486 14 499 27 499 49 c 0
 499 66 489 94 437 223 c 0
EndSplineSet
EndChar

StartChar: eogonek
Encoding: 281 281 412
Width: 409
VWidth: 0
Flags: HW
HStem: -222 40<252.919 333.294> -13 58<163.563 274.439> 251 21<111 288.015> 379 25<169.088 250.018>
VStem: 25 78<111.422 251> 168 64<-163.337 -68.1398> 291 81<272.88 337.101>
AnchorPoint: "r;o" 409 200 basechar 0
AnchorPoint: "r;x" 389 385 basechar 0
AnchorPoint: "r;bl" 389 10 basechar 0
AnchorPoint: "l;o" 0 200 basechar 0
AnchorPoint: "l;x" 30 385 basechar 0
AnchorPoint: "l;bl" 30 10 basechar 0
AnchorPoint: "r;lo" 374 -200 basechar 0
LayerCount: 3
Fore
SplineSet
211 379 m 0
 181 379 125 358 111 272 c 1
 238 272 l 2
 290 272 291 275 291 291 c 0
 291 333 262 379 211 379 c 0
168 -136 m 0
 168 -58 250 -8 250 -8 c 1
 250 -8 229 -13 206 -13 c 0
 128 -13 25 30 25 200 c 0
 25 300 92 404 213 404 c 0
 347 404 372 296 372 279 c 0
 372 251 371 251 284 251 c 2
 107 251 l 1
 104 234 103 218 103 202 c 0
 103 113 145 45 239 45 c 0
 266 45 320 48 361 107 c 1
 367 105 375 99 377 94 c 1
 357 54 339 39 303 11 c 0
 291 2 263 -17 248 -42 c 0
 238 -58 232 -78 232 -103 c 0
 232 -154 262 -182 298 -182 c 0
 328 -182 350 -170 350 -170 c 1
 354 -173 357 -176 357 -185 c 1
 357 -185 320 -222 265 -222 c 0
 200 -222 168 -181 168 -136 c 0
EndSplineSet
EndChar

StartChar: Eogonek
Encoding: 280 280 413
Width: 586
VWidth: 0
Flags: HW
HStem: -222 40<417.109 495.294> 0 27<211.075 424 437.155 465.666> 308 21<210.029 337.181> 609 27<211.617 424.364>
VStem: 117 93<29.8065 307.755 329.021 605.982> 332 63<-162.719 -66.0211> 378 21<195.003 254.875 384.055 455.997> 528 13<130.056 136.763>
AnchorPoint: "r;o" 586 200 basechar 0
AnchorPoint: "r;hi" 566 610 basechar 0
AnchorPoint: "r;x" 566 385 basechar 0
AnchorPoint: "r;bl" 586 10 basechar 0
AnchorPoint: "l;o" 20 200 basechar 0
AnchorPoint: "l;hi" 0 610 basechar 0
AnchorPoint: "l;x" 20 385 basechar 0
AnchorPoint: "l;bl" 0 10 basechar 0
AnchorPoint: "r;lo" 536 -200 basechar 0
LayerCount: 3
Fore
SplineSet
394 321 m 0xfb
 394 239 399 217 399 204 c 0
 399 196 397 195 389 195 c 0
 381 195 379 196 378 204 c 0xfb
 372 240 369 308 297 308 c 2
 246 308 l 2
 229 308 210 308 210 297 c 2
 210 49 l 2
 210 39 212 27 243 27 c 2
 430 27 l 2
 467 27 471 41 528 139 c 0
 530 143 533 147 539 145 c 0
 545 143 546 143 546 137 c 0
 546 132 544 123 541 110 c 0
 526 41 522 0 509 0 c 2
 477 0 l 2
 430 0 395 -50 395 -100 c 0
 395 -151 424 -182 460 -182 c 0
 490 -182 512 -170 512 -170 c 1
 516 -173 519 -176 519 -185 c 1
 519 -185 482 -222 427 -222 c 0
 361 -222 332 -180 332 -133 c 0xfd
 332 -87 368 -28 424 0 c 1
 33 0 l 1
 32 2 30 6 30 10 c 0
 30 37 117 -3 117 75 c 2
 117 561 l 2
 117 639 30 599 30 626 c 0
 30 630 32 634 33 636 c 1
 380 636 l 2
 428 636 469 640 479 640 c 0
 495 640 488 629 499 562 c 0
 503 535 508 509 508 496 c 0
 508 489 504 488 501 487 c 0
 493 484 488 494 487 495 c 0
 472 517 430 609 404 609 c 2
 229 609 l 2
 217 609 210 599 210 585 c 2
 210 338 l 2
 210 330 220 329 235 329 c 2
 297 329 l 2
 375 329 372 411 378 447 c 0
 379 455 381 456 389 456 c 0
 397 456 399 455 399 447 c 0
 399 434 394 403 394 321 c 0xfb
EndSplineSet
EndChar

StartChar: Uogonek
Encoding: 370 370 414
Width: 746
VWidth: 0
Flags: HW
HStem: -222 40<407.316 485.294> -20 56<308.942 382 395.916 484.374> 616 20G<31.5 304.5 487.5 713.5>
VStem: 117 93<167.009 604.11> 319 64<-160.908 -62.4964> 604 28<214.545 571.544>
AnchorPoint: "r;x" 726 385 basechar 0
AnchorPoint: "r;hi" 746 610 basechar 0
AnchorPoint: "r;o" 726 200 basechar 0
AnchorPoint: "r;bl" 666 10 basechar 0
AnchorPoint: "r;hi2" 736 670 basechar 0
AnchorPoint: "l;x" 20 385 basechar 0
AnchorPoint: "l;hi" 0 610 basechar 0
AnchorPoint: "l;o" 20 200 basechar 0
AnchorPoint: "l;bl" 60 10 basechar 0
AnchorPoint: "r;lo" 530 -200 basechar 0
LayerCount: 3
Fore
SplineSet
383 -98 m 0
 383 -149 414 -182 450 -182 c 0
 480 -182 502 -170 502 -170 c 1
 506 -173 509 -176 509 -185 c 1
 509 -185 472 -222 417 -222 c 0
 352 -222 319 -175 319 -130 c 0
 319 -82 350 -44 382 -20 c 1
 369 -20 l 2
 282 -20 227 9 195 39 c 0
 121 111 117 236 117 387 c 2
 117 561 l 2
 117 637 30 600 30 626 c 0
 30 630 31 634 32 636 c 1
 304 636 l 1
 305 634 307 630 307 626 c 0
 307 599 210 639 210 561 c 2
 210 359 l 2
 210 211 229 36 391 36 c 0
 511 36 604 91 604 325 c 2
 604 455 l 2
 604 520 599 560 584 584 c 0
 554 631 486 605 486 626 c 0
 486 630 487 634 488 636 c 1
 713 636 l 1
 714 634 716 630 716 626 c 0
 716 601 660 632 643 584 c 0
 636 564 632 529 632 469 c 2
 632 408 l 2
 632 264 631 239 619 183 c 0
 589 50 513 -4 417 -17 c 1
 395 -34 383 -62 383 -98 c 0
EndSplineSet
EndChar

StartChar: uogonek
Encoding: 371 371 415
Width: 485
VWidth: 0
Flags: HW
HStem: -222 40<321.316 399.294> -13 47<185.079 286.33> 372 20G<119.5 148 374.5 403>
VStem: 76 77<69.3069 354.28> 233 64<-160.908 -57.6962> 331 77<54.4961 354.28>
AnchorPoint: "r;o" 475 200 basechar 0
AnchorPoint: "r;x" 475 385 basechar 0
AnchorPoint: "r;bl" 485 10 basechar 0
AnchorPoint: "l;o" 10 200 basechar 0
AnchorPoint: "l;x" 0 385 basechar 0
AnchorPoint: "l;bl" 20 10 basechar 0
AnchorPoint: "r;lo" 442 -200 basechar 0
LayerCount: 3
Fore
SplineSet
408 331 m 2
 408 92 l 2
 408 9 469 60 469 28 c 0
 469 8 448 18 388 4 c 0
 360 -3 297 -12 297 -98 c 0
 297 -149 328 -182 364 -182 c 0
 394 -182 416 -170 416 -170 c 1
 420 -173 423 -176 423 -185 c 1
 423 -185 386 -222 331 -222 c 0
 266 -222 233 -175 233 -130 c 0
 233 -53 292 -13 337 6 c 1
 337 49 l 1
 337 49 296 14 285 8 c 0
 264 -4 239 -13 209 -13 c 0
 87 -13 76 86 76 177 c 2
 76 311 l 2
 76 382 15 343 15 369 c 0
 15 383 20 385 34 385 c 0
 102 387 93 383 146 392 c 1
 147 392 l 2
 149 392 153 391 155 386 c 0
 155 384 153 335 153 331 c 2
 153 195 l 2
 153 100 164 34 241 34 c 0
 284 34 331 58 331 83 c 2
 331 311 l 2
 331 382 270 343 270 369 c 0
 270 383 275 385 289 385 c 0
 357 387 348 383 401 392 c 1
 402 392 l 2
 404 392 408 391 410 386 c 0
 410 384 408 335 408 331 c 2
EndSplineSet
EndChar

StartChar: iogonek.dotless
Encoding: 65567 -1 416
Width: 231
VWidth: 0
Flags: HW
HStem: -222 40<111.316 189.294> 392 20G<93.5 148.5>
VStem: 23 64<-160.908 -59.4678> 77 77<22.8749 341.22>
AnchorPoint: "r;o" 231 200 basechar 0
AnchorPoint: "r;x" 221 385 basechar 0
AnchorPoint: "r;bl" 231 10 basechar 0
AnchorPoint: "l;o" 0 200 basechar 0
AnchorPoint: "l;x" 0 385 basechar 0
AnchorPoint: "l;bl" 0 10 basechar 0
AnchorPoint: "r;lo" 231 -200 basechar 0
AnchorPoint: "top" 117 540 basechar 0
AnchorPoint: "l;lo" 0 -200 basechar 0
LayerCount: 3
Fore
SplineSet
154 351 m 2xd0
 154 62 l 2xd0
 154 0 216 30 216 8 c 0
 216 5 215 2 214 0 c 1
 174 0 l 2
 122 0 87 -38 87 -98 c 0xe0
 87 -149 118 -182 154 -182 c 0xd0
 184 -182 206 -170 206 -170 c 1
 210 -173 213 -176 213 -185 c 1
 213 -185 176 -222 121 -222 c 0
 56 -222 23 -175 23 -130 c 0xe0
 23 -64 71 -23 109 0 c 1
 17 0 l 1
 16 2 15 5 15 8 c 0
 15 30 77 -2 77 62 c 2
 77 298 l 2
 77 369 16 330 16 355 c 0
 16 386 40 352 147 412 c 1
 150 412 155 410 156 406 c 0
 156 404 154 355 154 351 c 2xd0
EndSplineSet
EndChar

StartChar: ordfeminine
Encoding: 170 170 417
Width: 435
VWidth: 0
Flags: W
HStem: 414 24<153 219.417> 417 32<280.5 328.897> 644 21<176.116 269.313>
VStem: 107 58<573.028 630.076> 112 61<438.467 502.793> 247 55<449.693 534 542.12 639.925>
LayerCount: 3
Fore
SplineSet
107 598 m 0xb4
 107 629 175 665 236 665 c 0
 302 665 302 637 302 561 c 2
 302 497 l 2
 302 467 303 449 314 449 c 0
 328 449 327 461 335 461 c 0
 338 461 340 457 340 453 c 0
 340 432 307 417 289 417 c 0x74
 272 417 256 422 250 451 c 1
 236 432 208 414 169 414 c 0
 137 414 112 432 112 465 c 0xac
 112 497 149 523 247 548 c 1
 247 591 l 2
 247 618 245 644 205 644 c 0
 178 644 161 633 161 623 c 0
 161 620 165 611 165 600 c 0
 165 580 149 572 135 572 c 0
 120 572 107 582 107 598 c 0xb4
247 534 m 1
 242 532 229 529 215 522 c 0
 195 512 173 502 173 471 c 0
 173 453 183 438 199 438 c 0xac
 205 438 247 446 247 481 c 2
 247 534 l 1
EndSplineSet
Validated: 1
EndChar

StartChar: Euro
Encoding: 8364 8364 418
Width: 684
VWidth: 0
Flags: HW
HStem: -21 32<317.834 484.356> 240 31<-17.9745 42 151 493> 373 31<-17.9998 46 154 557> 627 27<317.56 473.093>
VStem: 40 105<271 373> 614 20<465.093 498.449>
AnchorPoint: "r;o" 684 200 basechar 0
AnchorPoint: "r;hi" 684 610 basechar 0
AnchorPoint: "r;x" 684 385 basechar 0
AnchorPoint: "r;bl" 684 10 basechar 0
AnchorPoint: "l;bl" 50 10 basechar 0
AnchorPoint: "l;x" 0 385 basechar 0
AnchorPoint: "l;hi" 50 610 basechar 0
AnchorPoint: "l;o" 0 200 basechar 0
LayerCount: 3
Fore
SplineSet
590 601 m 0
 595 601 600 623 612 623 c 0
 623 623 623 618 624 603 c 0
 628 538 634 489 634 477 c 0
 634 468 634 467 625 465 c 0
 616 463 615 470 614 473 c 0
 596 540 512 627 399 627 c 0
 263 627 180 533 154 404 c 1
 572 404 l 1
 557 373 l 1
 149 373 l 1
 147 354 145 334 145 313 c 0
 145 298 146 284 147 271 c 1
 508 271 l 1
 493 240 l 1
 151 240 l 1
 178 84 292 11 402 11 c 0
 542 11 598 124 616 158 c 0
 620 165 622 167 626 167 c 0
 630 167 632 165 632 161 c 2
 624 56 l 2
 622 25 617 29 596 25 c 0
 583 23 568 20 560 16 c 0
 496 -11 442 -21 390 -21 c 0
 195 -21 76 100 47 240 c 1
 -16 240 l 1
 -17 245 -18 249 -18 254 c 0
 -18 260 -17 265 -16 271 c 1
 42 271 l 1
 41 283 40 296 40 308 c 0
 40 329 42 351 46 373 c 1
 -16 373 l 1
 -18 378 -18 383 -18 388 c 0
 -18 393 -18 399 -16 404 c 1
 53 404 l 1
 90 535 204 654 393 654 c 0
 500 654 588 601 590 601 c 0
EndSplineSet
EndChar

StartChar: f.ld
Encoding: 65568 -1 419
Width: 242
VWidth: 0
Flags: W
HStem: -282 36<-155 -68.5273> 351 26<17.7728 101 172 251.227> 606 58<232.5 321.9>
DStem2: -56.8246 -282 10.5611 -282 0.241922 0.970296<429.974 652.378 694.783 898.292>
LayerCount: 3
Fore
SplineSet
236 606 m 0
 229 606 222 575 203 500 c 2
 172 377 l 1
 252 377 l 1
 254 371 252 357 249 351 c 1
 167 351 l 1
 126 181 l 2
 96 57 64 -96 9 -189 c 0
 -11 -223 -64 -282 -135 -282 c 0
 -175 -282 -193 -258 -193 -234 c 0
 -193 -212 -178 -191 -151 -191 c 0
 -108 -191 -101 -246 -76 -246 c 0
 -24 -246 92 317 101 351 c 1
 17 351 l 1
 15 358 17 370 20 377 c 1
 106 377 l 1
 142 522 174 583 205 615 c 0
 218 628 263 664 301 664 c 0
 333 664 349 642 349 620 c 0
 349 599 335 578 307 578 c 0
 267 578 254 606 236 606 c 0
EndSplineSet
Layer: 2
SplineSet
172 377 m 1
 252 377 l 1
 254 371 252 357 249 351 c 1
 167 351 l 1
 126 181 l 2
 96 57 64 -96 9 -189 c 0
 -11 -223 -64 -282 -135 -282 c 0
 -175 -282 -193 -258 -193 -234 c 0
 -193 -212 -178 -191 -151 -191 c 0
 -108 -191 -101 -246 -76 -246 c 0
 -24 -246 92 317 101 351 c 1
 17 351 l 1
 15 358 17 370 20 377 c 1
 106 377 l 1
 142 522 174 583 205 615 c 0
 218 628 263 664 301 664 c 0
 330 664 349 638 349 614 c 0
 349 594 336 574 306 574 c 0
 264 574 254 606 236 606 c 0
 229 606 222 575 203 500 c 2
 172 377 l 1
-76 -246 m 4
 -24 -246 92 317 101 351 c 5
 17 351 l 5
 15 358 17 370 20 377 c 5
 106 377 l 5
 156 580 199 618 242 643 c 4
 253 650 276 664 301 664 c 4
 329 664 349 647 349 613 c 4
 349 586 335 561 306 561 c 4
 264 561 254 606 236 606 c 4
 216 606 222 575 203 500 c 6
 172 377 l 5
 252 377 l 5
 254 371 252 357 249 351 c 5
 167 351 l 5
 126 181 l 6
 96 57 64 -96 9 -189 c 4
 -11 -223 -64 -282 -135 -282 c 4
 -175 -282 -193 -258 -193 -234 c 4
 -193 -212 -178 -191 -151 -191 c 4
 -108 -191 -101 -246 -76 -246 c 4
EndSplineSet
EndChar

StartChar: longs.ld
Encoding: 65569 -1 420
Width: 202
VWidth: 0
Flags: HW
HStem: -282 36<-155 -68.5598> 606 58<226 315>
DStem2: -51.7312 -282 10.5611 -282 0.241922 0.970296<270.555 909.428>
LayerCount: 3
Fore
SplineSet
236 606 m 0
 229 606 222 575 203 500 c 2
 126 181 l 2
 97 57 64 -96 9 -189 c 0
 -11 -223 -64 -282 -135 -282 c 0
 -175 -282 -193 -258 -193 -234 c 0
 -193 -212 -178 -191 -151 -191 c 0
 -108 -191 -101 -246 -76 -246 c 0
 -45 -246 9.43266295592 -50.3303564736 48 118 c 0
 105.432662956 368.669643526 135 543 205 615 c 0
 218 628 263 664 301 664 c 0
 333 664 349 642 349 620 c 0
 349 599 335 578 307 578 c 0
 267 578 254 606 236 606 c 0
EndSplineSet
Layer: 2
SplineSet
-76 -246 m 4
 -45 -246 8 -50 48 118 c 4
 104 357 103 376 129 460 c 4
 170 591 206 622 242 643 c 4
 253 650 276 664 301 664 c 4
 329 664 349 647 349 613 c 4
 349 586 335 561 306 561 c 4
 264 561 254 606 236 606 c 4
 216 606 222 575 203 500 c 6
 126 181 l 6
 96 57 64 -96 9 -189 c 4
 -11 -223 -64 -282 -135 -282 c 4
 -175 -282 -193 -258 -193 -234 c 4
 -193 -212 -178 -191 -151 -191 c 4
 -108 -191 -101 -246 -76 -246 c 4
EndSplineSet
EndChar

StartChar: serifs.DONT_KEEP
Encoding: 65570 -1 421
Width: 327
VWidth: 0
Flags: HW
LayerCount: 3
Fore
SplineSet
117 561 m 2
 117 637 30 600 30 626 c 0
 30 630 31 634 32 636 c 1
 294 636 l 1
 295 634 297 630 297 626 c 0
 297 599 210 639 210 561 c 2
210 75 m 2
 210 -1 297 36 297 10 c 0
 297 6 296 2 295 0 c 1
 33 0 l 1
 32 2 30 6 30 10 c 0
 30 37 117 -3 117 75 c 2
EndSplineSet
EndChar
